M48
; DRILL file {KiCad 8.0.2} date 2024-06-14T21:27:27+0530
; FORMAT={-:-/ absolute / metric / decimal}
; #@! TF.CreationDate,2024-06-14T21:27:27+05:30
; #@! TF.GenerationSoftware,Kicad,Pcbnew,8.0.2
; #@! TF.FileFunction,Plated,1,2,PTH
FMAT,2
METRIC
; #@! TA.AperFunction,Plated,PTH,ViaDrill
T1C0.300
; #@! TA.AperFunction,Plated,PTH,ComponentDrill
T2C1.100
%
G90
G05
T1
X77.772Y-60.615
X78.594Y-77.608
X78.64Y-80.88
X78.646Y-65.879
X78.674Y-84.663
X78.685Y-69.44
X79.553Y-60.568
X80.013Y-55.69
X80.107Y-51.064
X80.238Y-83.121
X80.526Y-56.166
X80.969Y-51.05
X82.332Y-59.077
X83.004Y-84.678
X83.651Y-68.837
X83.707Y-57.816
X83.882Y-50.756
X84.323Y-64.463
X84.345Y-47.293
X84.557Y-63.263
X84.609Y-62.417
X85.175Y-64.463
X86.341Y-54.521
X86.941Y-55.293
X86.983Y-76.606
X87.825Y-69.052
X88.099Y-55.919
X88.469Y-61.338
X89.064Y-59.531
X89.768Y-46.481
X91.185Y-51.948
X91.577Y-77.166
X91.577Y-78.754
X91.67Y-81.703
X93.693Y-50.273
X94.752Y-67.436
X94.976Y-46.478
X95.526Y-76.456
X97.157Y-79.32
X97.284Y-82.451
X97.687Y-80.238
X98.084Y-51.366
X98.796Y-79.345
X98.983Y-80.639
X99.036Y-66.497
X99.827Y-79.365
X99.827Y-80.565
X101.692Y-60.396
X102.328Y-81.546
X102.767Y-84.974
X102.776Y-83.109
X102.958Y-66.773
X103.178Y-79.208
X103.817Y-80.537
X104.422Y-65.237
X104.432Y-80.054
X105.205Y-82.754
X106.678Y-67.565
X107.22Y-79.73
X107.222Y-82.491
X107.962Y-62.778
X108.808Y-48.103
X108.888Y-65.495
X110.611Y-57.821
X114.558Y-68.123
T2
X110.243Y-78.299
X110.243Y-80.839
X110.243Y-83.379
X112.691Y-59.982
X112.691Y-62.522
X112.705Y-47.812
X112.705Y-50.352
X112.783Y-78.299
X112.783Y-80.839
X112.783Y-83.379
M30
