%TF.GenerationSoftware,KiCad,Pcbnew,8.0.2*%
%TF.CreationDate,2024-06-14T21:27:27+05:30*%
%TF.ProjectId,gate driver circuit design,67617465-2064-4726-9976-657220636972,rev?*%
%TF.SameCoordinates,Original*%
%TF.FileFunction,Soldermask,Bot*%
%TF.FilePolarity,Negative*%
%FSLAX46Y46*%
G04 Gerber Fmt 4.6, Leading zero omitted, Abs format (unit mm)*
G04 Created by KiCad (PCBNEW 8.0.2) date 2024-06-14 21:27:27*
%MOMM*%
%LPD*%
G01*
G04 APERTURE LIST*
G04 Aperture macros list*
%AMRoundRect*
0 Rectangle with rounded corners*
0 $1 Rounding radius*
0 $2 $3 $4 $5 $6 $7 $8 $9 X,Y pos of 4 corners*
0 Add a 4 corners polygon primitive as box body*
4,1,4,$2,$3,$4,$5,$6,$7,$8,$9,$2,$3,0*
0 Add four circle primitives for the rounded corners*
1,1,$1+$1,$2,$3*
1,1,$1+$1,$4,$5*
1,1,$1+$1,$6,$7*
1,1,$1+$1,$8,$9*
0 Add four rect primitives between the rounded corners*
20,1,$1+$1,$2,$3,$4,$5,0*
20,1,$1+$1,$4,$5,$6,$7,0*
20,1,$1+$1,$6,$7,$8,$9,0*
20,1,$1+$1,$8,$9,$2,$3,0*%
G04 Aperture macros list end*
%ADD10R,1.650000X1.650000*%
%ADD11C,1.650000*%
%ADD12RoundRect,0.076200X0.825000X-0.825000X0.825000X0.825000X-0.825000X0.825000X-0.825000X-0.825000X0*%
%ADD13C,1.802400*%
%ADD14R,1.000000X1.450000*%
%ADD15R,1.450000X1.150000*%
%ADD16R,1.800000X1.050000*%
%ADD17RoundRect,0.102000X0.475000X1.075000X-0.475000X1.075000X-0.475000X-1.075000X0.475000X-1.075000X0*%
%ADD18RoundRect,0.102000X1.625000X1.075000X-1.625000X1.075000X-1.625000X-1.075000X1.625000X-1.075000X0*%
%ADD19R,1.250000X0.600000*%
%ADD20R,1.390000X0.960000*%
%ADD21R,1.450000X1.000000*%
%ADD22R,1.800000X1.150000*%
%ADD23R,0.650000X1.528000*%
%ADD24R,0.540000X0.420000*%
%ADD25R,0.420000X0.540000*%
%ADD26R,0.900000X0.400000*%
%ADD27R,2.300000X1.550000*%
%ADD28R,0.400000X0.900000*%
%ADD29R,0.558800X1.320800*%
%ADD30R,0.558800X1.587500*%
%ADD31R,0.910000X1.390000*%
%ADD32R,0.600000X2.000000*%
%ADD33RoundRect,0.102000X0.200000X-0.227500X0.200000X0.227500X-0.200000X0.227500X-0.200000X-0.227500X0*%
%ADD34RoundRect,0.102000X-0.200000X0.227500X-0.200000X-0.227500X0.200000X-0.227500X0.200000X0.227500X0*%
%ADD35RoundRect,0.102000X0.200000X-0.425000X0.200000X0.425000X-0.200000X0.425000X-0.200000X-0.425000X0*%
%ADD36RoundRect,0.102000X0.525000X-0.550000X0.525000X0.550000X-0.525000X0.550000X-0.525000X-0.550000X0*%
G04 APERTURE END LIST*
D10*
%TO.C,J103*%
X112691000Y-59982000D03*
D11*
X112691000Y-62522000D03*
%TD*%
D12*
%TO.C,J101*%
X112783000Y-83379000D03*
D13*
X110243000Y-83379000D03*
X112783000Y-80839000D03*
X110243000Y-80839000D03*
X112783000Y-78299000D03*
X110243000Y-78299000D03*
%TD*%
D10*
%TO.C,J102*%
X112705000Y-47812000D03*
D11*
X112705000Y-50352000D03*
%TD*%
D14*
%TO.C,R33*%
X106155000Y-83038000D03*
X108055000Y-83038000D03*
%TD*%
D15*
%TO.C,C40*%
X110337000Y-49737000D03*
X110337000Y-47937000D03*
%TD*%
D16*
%TO.C,R13*%
X91027000Y-60779000D03*
X91027000Y-57779000D03*
%TD*%
D17*
%TO.C,U2*%
X83391000Y-53300000D03*
X81091000Y-53300000D03*
X78791000Y-53300000D03*
D18*
X81091000Y-47500000D03*
%TD*%
D19*
%TO.C,C26*%
X89202000Y-67184000D03*
X89202000Y-68984000D03*
%TD*%
D14*
%TO.C,R24*%
X84889000Y-59339000D03*
X86789000Y-59339000D03*
%TD*%
D20*
%TO.C,C25*%
X90858000Y-53102000D03*
X90858000Y-54722000D03*
%TD*%
D14*
%TO.C,R30*%
X95106000Y-81179000D03*
X93206000Y-81179000D03*
%TD*%
D21*
%TO.C,R20*%
X86583000Y-61472000D03*
X86583000Y-63372000D03*
%TD*%
%TO.C,R19*%
X88676000Y-64463000D03*
X88676000Y-62563000D03*
%TD*%
D22*
%TO.C,R11*%
X92932000Y-56099000D03*
X92932000Y-53299000D03*
%TD*%
D19*
%TO.C,C18*%
X112712000Y-66702000D03*
X112712000Y-68502000D03*
%TD*%
D23*
%TO.C,U7*%
X83762000Y-75434000D03*
X82492000Y-75434000D03*
X81222000Y-75434000D03*
X79952000Y-75434000D03*
X79952000Y-70012000D03*
X81222000Y-70012000D03*
X82492000Y-70012000D03*
X83762000Y-70012000D03*
%TD*%
D21*
%TO.C,R14*%
X115412000Y-47939000D03*
X115412000Y-49839000D03*
%TD*%
D24*
%TO.C,D8*%
X91980000Y-49392000D03*
X93580000Y-49392000D03*
%TD*%
D16*
%TO.C,R7*%
X107308000Y-61751000D03*
X107308000Y-58751000D03*
%TD*%
D20*
%TO.C,C19*%
X110148000Y-67565000D03*
X110148000Y-69185000D03*
%TD*%
%TO.C,C23*%
X105217000Y-60200000D03*
X105217000Y-58620000D03*
%TD*%
D25*
%TO.C,D5*%
X94987000Y-49352000D03*
X94987000Y-50952000D03*
%TD*%
D20*
%TO.C,C34*%
X90012000Y-47518000D03*
X90012000Y-49098000D03*
%TD*%
D26*
%TO.C,Q4*%
X96884000Y-83968000D03*
X96884000Y-82968000D03*
X98484000Y-83468000D03*
%TD*%
D27*
%TO.C,D3*%
X107036000Y-64320000D03*
X102736000Y-64320000D03*
%TD*%
%TO.C,D4*%
X97910000Y-59052000D03*
X93610000Y-59052000D03*
%TD*%
D21*
%TO.C,R132*%
X103989000Y-81573000D03*
X103989000Y-83473000D03*
%TD*%
D20*
%TO.C,C22*%
X93321000Y-78676000D03*
X93321000Y-77056000D03*
%TD*%
D28*
%TO.C,Q3*%
X85251000Y-47376000D03*
X86251000Y-47376000D03*
X85751000Y-48976000D03*
%TD*%
D20*
%TO.C,C27*%
X93540000Y-67474000D03*
X93540000Y-69094000D03*
%TD*%
D21*
%TO.C,R28*%
X85179000Y-55250000D03*
X85179000Y-57150000D03*
%TD*%
D14*
%TO.C,R21*%
X87326000Y-50756000D03*
X85426000Y-50756000D03*
%TD*%
%TO.C,R26*%
X91672000Y-47755000D03*
X93572000Y-47755000D03*
%TD*%
%TO.C,R23*%
X81294000Y-79734000D03*
X83194000Y-79734000D03*
%TD*%
%TO.C,R34*%
X108081000Y-81033000D03*
X106181000Y-81033000D03*
%TD*%
D15*
%TO.C,C39*%
X110125000Y-61950000D03*
X110125000Y-60150000D03*
%TD*%
D21*
%TO.C,R12*%
X115391000Y-60377000D03*
X115391000Y-62277000D03*
%TD*%
%TO.C,R15*%
X96799000Y-51541000D03*
X96799000Y-49641000D03*
%TD*%
D16*
%TO.C,R10*%
X97041000Y-53239000D03*
X97041000Y-56239000D03*
%TD*%
D20*
%TO.C,C24*%
X94985000Y-53091000D03*
X94985000Y-54671000D03*
%TD*%
D22*
%TO.C,R8*%
X103126000Y-61628000D03*
X103126000Y-58828000D03*
%TD*%
D14*
%TO.C,R32*%
X95133000Y-83603000D03*
X93233000Y-83603000D03*
%TD*%
%TO.C,R18*%
X95150000Y-47762000D03*
X97050000Y-47762000D03*
%TD*%
D29*
%TO.C,U9*%
X89049501Y-56403000D03*
X87149499Y-56403000D03*
D30*
X88099500Y-54504350D03*
%TD*%
D23*
%TO.C,U8*%
X78883000Y-57617000D03*
X80153000Y-57617000D03*
X81423000Y-57617000D03*
X82693000Y-57617000D03*
X82693000Y-63039000D03*
X81423000Y-63039000D03*
X80153000Y-63039000D03*
X78883000Y-63039000D03*
%TD*%
D21*
%TO.C,R25*%
X87949000Y-47012000D03*
X87949000Y-48912000D03*
%TD*%
D20*
%TO.C,C20*%
X108383000Y-67604000D03*
X108383000Y-69184000D03*
%TD*%
D31*
%TO.C,C35*%
X79649000Y-77413000D03*
X81289000Y-77413000D03*
%TD*%
D21*
%TO.C,R31*%
X100970000Y-82384000D03*
X100970000Y-84284000D03*
%TD*%
D20*
%TO.C,C30*%
X91764000Y-67500000D03*
X91764000Y-69080000D03*
%TD*%
D32*
%TO.C,U6*%
X105507000Y-77412000D03*
X104237000Y-77412000D03*
X102967000Y-77412000D03*
X101697000Y-77412000D03*
X100427000Y-77412000D03*
X99157000Y-77412000D03*
X97887000Y-77412000D03*
X96617000Y-77412000D03*
X96617000Y-68112000D03*
X97887000Y-68112000D03*
X99157000Y-68112000D03*
X102967000Y-68112000D03*
X104237000Y-68112000D03*
X105507000Y-68112000D03*
%TD*%
D33*
%TO.C,Q1*%
X91677000Y-64735000D03*
X91027000Y-64735000D03*
X90377000Y-64735000D03*
D34*
X90377000Y-62890000D03*
X91027000Y-62890000D03*
X91677000Y-62890000D03*
D35*
X90377000Y-63716500D03*
D36*
X91352000Y-63812500D03*
%TD*%
M02*
