%TF.GenerationSoftware,KiCad,Pcbnew,8.0.2*%
%TF.CreationDate,2024-06-14T21:27:28+05:30*%
%TF.ProjectId,gate driver circuit design,67617465-2064-4726-9976-657220636972,rev?*%
%TF.SameCoordinates,Original*%
%TF.FileFunction,Copper,L1,Top*%
%TF.FilePolarity,Positive*%
%FSLAX46Y46*%
G04 Gerber Fmt 4.6, Leading zero omitted, Abs format (unit mm)*
G04 Created by KiCad (PCBNEW 8.0.2) date 2024-06-14 21:27:28*
%MOMM*%
%LPD*%
G01*
G04 APERTURE LIST*
%ADD10C,0.300000*%
%TA.AperFunction,NonConductor*%
%ADD11C,0.300000*%
%TD*%
%TA.AperFunction,SMDPad,CuDef*%
%ADD12R,0.600000X1.250000*%
%TD*%
%TA.AperFunction,SMDPad,CuDef*%
%ADD13R,1.250000X0.750000*%
%TD*%
%TA.AperFunction,SMDPad,CuDef*%
%ADD14R,1.250000X0.600000*%
%TD*%
%TA.AperFunction,SMDPad,CuDef*%
%ADD15R,1.390000X0.960000*%
%TD*%
%TA.AperFunction,SMDPad,CuDef*%
%ADD16R,1.450000X1.150000*%
%TD*%
%TA.AperFunction,SMDPad,CuDef*%
%ADD17R,0.960000X1.390000*%
%TD*%
%TA.AperFunction,SMDPad,CuDef*%
%ADD18R,1.450000X1.000000*%
%TD*%
%TA.AperFunction,ComponentPad*%
%ADD19R,1.650000X1.650000*%
%TD*%
%TA.AperFunction,ComponentPad*%
%ADD20C,1.650000*%
%TD*%
%TA.AperFunction,SMDPad,CuDef*%
%ADD21R,0.812800X1.295400*%
%TD*%
%TA.AperFunction,SMDPad,CuDef*%
%ADD22R,0.600000X1.200000*%
%TD*%
%TA.AperFunction,SMDPad,CuDef*%
%ADD23R,0.420000X0.540000*%
%TD*%
%TA.AperFunction,SMDPad,CuDef*%
%ADD24R,1.397000X1.016000*%
%TD*%
%TA.AperFunction,SMDPad,CuDef*%
%ADD25R,0.920000X1.420000*%
%TD*%
%TA.AperFunction,SMDPad,CuDef*%
%ADD26R,0.508000X1.219200*%
%TD*%
%TA.AperFunction,SMDPad,CuDef*%
%ADD27R,1.420000X0.920000*%
%TD*%
%TA.AperFunction,SMDPad,CuDef*%
%ADD28R,0.900000X0.400000*%
%TD*%
%TA.AperFunction,SMDPad,CuDef*%
%ADD29R,1.150000X1.450000*%
%TD*%
%TA.AperFunction,SMDPad,CuDef*%
%ADD30R,1.000000X1.450000*%
%TD*%
%TA.AperFunction,SMDPad,CuDef*%
%ADD31R,0.558800X1.320800*%
%TD*%
%TA.AperFunction,SMDPad,CuDef*%
%ADD32R,0.558800X1.587500*%
%TD*%
%TA.AperFunction,SMDPad,CuDef*%
%ADD33R,2.200000X1.550000*%
%TD*%
%TA.AperFunction,ViaPad*%
%ADD34C,0.500000*%
%TD*%
%TA.AperFunction,Conductor*%
%ADD35C,0.300000*%
%TD*%
%ADD36C,0.300000*%
%ADD37C,0.350000*%
G04 APERTURE END LIST*
D10*
D11*
X93107510Y-112870828D02*
X93107510Y-111370828D01*
X93107510Y-111370828D02*
X93464653Y-111370828D01*
X93464653Y-111370828D02*
X93678939Y-111442257D01*
X93678939Y-111442257D02*
X93821796Y-111585114D01*
X93821796Y-111585114D02*
X93893225Y-111727971D01*
X93893225Y-111727971D02*
X93964653Y-112013685D01*
X93964653Y-112013685D02*
X93964653Y-112227971D01*
X93964653Y-112227971D02*
X93893225Y-112513685D01*
X93893225Y-112513685D02*
X93821796Y-112656542D01*
X93821796Y-112656542D02*
X93678939Y-112799400D01*
X93678939Y-112799400D02*
X93464653Y-112870828D01*
X93464653Y-112870828D02*
X93107510Y-112870828D01*
X94536082Y-112442257D02*
X95250368Y-112442257D01*
X94393225Y-112870828D02*
X94893225Y-111370828D01*
X94893225Y-111370828D02*
X95393225Y-112870828D01*
X95893224Y-112870828D02*
X95893224Y-111370828D01*
X96750367Y-112870828D02*
X96107510Y-112013685D01*
X96750367Y-111370828D02*
X95893224Y-112227971D01*
X97321796Y-112799400D02*
X97536082Y-112870828D01*
X97536082Y-112870828D02*
X97893224Y-112870828D01*
X97893224Y-112870828D02*
X98036082Y-112799400D01*
X98036082Y-112799400D02*
X98107510Y-112727971D01*
X98107510Y-112727971D02*
X98178939Y-112585114D01*
X98178939Y-112585114D02*
X98178939Y-112442257D01*
X98178939Y-112442257D02*
X98107510Y-112299400D01*
X98107510Y-112299400D02*
X98036082Y-112227971D01*
X98036082Y-112227971D02*
X97893224Y-112156542D01*
X97893224Y-112156542D02*
X97607510Y-112085114D01*
X97607510Y-112085114D02*
X97464653Y-112013685D01*
X97464653Y-112013685D02*
X97393224Y-111942257D01*
X97393224Y-111942257D02*
X97321796Y-111799400D01*
X97321796Y-111799400D02*
X97321796Y-111656542D01*
X97321796Y-111656542D02*
X97393224Y-111513685D01*
X97393224Y-111513685D02*
X97464653Y-111442257D01*
X97464653Y-111442257D02*
X97607510Y-111370828D01*
X97607510Y-111370828D02*
X97964653Y-111370828D01*
X97964653Y-111370828D02*
X98178939Y-111442257D01*
X98821795Y-112870828D02*
X98821795Y-111370828D01*
X98821795Y-112085114D02*
X99678938Y-112085114D01*
X99678938Y-112870828D02*
X99678938Y-111370828D01*
X101536081Y-112870828D02*
X101536081Y-111370828D01*
X101536081Y-111370828D02*
X102107510Y-111370828D01*
X102107510Y-111370828D02*
X102250367Y-111442257D01*
X102250367Y-111442257D02*
X102321796Y-111513685D01*
X102321796Y-111513685D02*
X102393224Y-111656542D01*
X102393224Y-111656542D02*
X102393224Y-111870828D01*
X102393224Y-111870828D02*
X102321796Y-112013685D01*
X102321796Y-112013685D02*
X102250367Y-112085114D01*
X102250367Y-112085114D02*
X102107510Y-112156542D01*
X102107510Y-112156542D02*
X101536081Y-112156542D01*
X102964653Y-112442257D02*
X103678939Y-112442257D01*
X102821796Y-112870828D02*
X103321796Y-111370828D01*
X103321796Y-111370828D02*
X103821796Y-112870828D01*
X104178938Y-111370828D02*
X104536081Y-112870828D01*
X104536081Y-112870828D02*
X104821795Y-111799400D01*
X104821795Y-111799400D02*
X105107510Y-112870828D01*
X105107510Y-112870828D02*
X105464653Y-111370828D01*
X105964653Y-112442257D02*
X106678939Y-112442257D01*
X105821796Y-112870828D02*
X106321796Y-111370828D01*
X106321796Y-111370828D02*
X106821796Y-112870828D01*
X108178938Y-112870828D02*
X107678938Y-112156542D01*
X107321795Y-112870828D02*
X107321795Y-111370828D01*
X107321795Y-111370828D02*
X107893224Y-111370828D01*
X107893224Y-111370828D02*
X108036081Y-111442257D01*
X108036081Y-111442257D02*
X108107510Y-111513685D01*
X108107510Y-111513685D02*
X108178938Y-111656542D01*
X108178938Y-111656542D02*
X108178938Y-111870828D01*
X108178938Y-111870828D02*
X108107510Y-112013685D01*
X108107510Y-112013685D02*
X108036081Y-112085114D01*
X108036081Y-112085114D02*
X107893224Y-112156542D01*
X107893224Y-112156542D02*
X107321795Y-112156542D01*
D10*
D11*
X92781225Y-107783828D02*
X93638368Y-107783828D01*
X93209796Y-109283828D02*
X93209796Y-107783828D01*
X94138367Y-109283828D02*
X94138367Y-107783828D01*
X94852653Y-109283828D02*
X94852653Y-107783828D01*
X94852653Y-107783828D02*
X95209796Y-107783828D01*
X95209796Y-107783828D02*
X95424082Y-107855257D01*
X95424082Y-107855257D02*
X95566939Y-107998114D01*
X95566939Y-107998114D02*
X95638368Y-108140971D01*
X95638368Y-108140971D02*
X95709796Y-108426685D01*
X95709796Y-108426685D02*
X95709796Y-108640971D01*
X95709796Y-108640971D02*
X95638368Y-108926685D01*
X95638368Y-108926685D02*
X95566939Y-109069542D01*
X95566939Y-109069542D02*
X95424082Y-109212400D01*
X95424082Y-109212400D02*
X95209796Y-109283828D01*
X95209796Y-109283828D02*
X94852653Y-109283828D01*
X96281225Y-108855257D02*
X96995511Y-108855257D01*
X96138368Y-109283828D02*
X96638368Y-107783828D01*
X96638368Y-107783828D02*
X97138368Y-109283828D01*
X97638367Y-108712400D02*
X98781225Y-108712400D01*
X99781225Y-107783828D02*
X99924082Y-107783828D01*
X99924082Y-107783828D02*
X100066939Y-107855257D01*
X100066939Y-107855257D02*
X100138368Y-107926685D01*
X100138368Y-107926685D02*
X100209796Y-108069542D01*
X100209796Y-108069542D02*
X100281225Y-108355257D01*
X100281225Y-108355257D02*
X100281225Y-108712400D01*
X100281225Y-108712400D02*
X100209796Y-108998114D01*
X100209796Y-108998114D02*
X100138368Y-109140971D01*
X100138368Y-109140971D02*
X100066939Y-109212400D01*
X100066939Y-109212400D02*
X99924082Y-109283828D01*
X99924082Y-109283828D02*
X99781225Y-109283828D01*
X99781225Y-109283828D02*
X99638368Y-109212400D01*
X99638368Y-109212400D02*
X99566939Y-109140971D01*
X99566939Y-109140971D02*
X99495510Y-108998114D01*
X99495510Y-108998114D02*
X99424082Y-108712400D01*
X99424082Y-108712400D02*
X99424082Y-108355257D01*
X99424082Y-108355257D02*
X99495510Y-108069542D01*
X99495510Y-108069542D02*
X99566939Y-107926685D01*
X99566939Y-107926685D02*
X99638368Y-107855257D01*
X99638368Y-107855257D02*
X99781225Y-107783828D01*
X101709796Y-109283828D02*
X100852653Y-109283828D01*
X101281224Y-109283828D02*
X101281224Y-107783828D01*
X101281224Y-107783828D02*
X101138367Y-107998114D01*
X101138367Y-107998114D02*
X100995510Y-108140971D01*
X100995510Y-108140971D02*
X100852653Y-108212400D01*
X102995510Y-107783828D02*
X102709795Y-107783828D01*
X102709795Y-107783828D02*
X102566938Y-107855257D01*
X102566938Y-107855257D02*
X102495510Y-107926685D01*
X102495510Y-107926685D02*
X102352652Y-108140971D01*
X102352652Y-108140971D02*
X102281224Y-108426685D01*
X102281224Y-108426685D02*
X102281224Y-108998114D01*
X102281224Y-108998114D02*
X102352652Y-109140971D01*
X102352652Y-109140971D02*
X102424081Y-109212400D01*
X102424081Y-109212400D02*
X102566938Y-109283828D01*
X102566938Y-109283828D02*
X102852652Y-109283828D01*
X102852652Y-109283828D02*
X102995510Y-109212400D01*
X102995510Y-109212400D02*
X103066938Y-109140971D01*
X103066938Y-109140971D02*
X103138367Y-108998114D01*
X103138367Y-108998114D02*
X103138367Y-108640971D01*
X103138367Y-108640971D02*
X103066938Y-108498114D01*
X103066938Y-108498114D02*
X102995510Y-108426685D01*
X102995510Y-108426685D02*
X102852652Y-108355257D01*
X102852652Y-108355257D02*
X102566938Y-108355257D01*
X102566938Y-108355257D02*
X102424081Y-108426685D01*
X102424081Y-108426685D02*
X102352652Y-108498114D01*
X102352652Y-108498114D02*
X102281224Y-108640971D01*
X104066938Y-107783828D02*
X104209795Y-107783828D01*
X104209795Y-107783828D02*
X104352652Y-107855257D01*
X104352652Y-107855257D02*
X104424081Y-107926685D01*
X104424081Y-107926685D02*
X104495509Y-108069542D01*
X104495509Y-108069542D02*
X104566938Y-108355257D01*
X104566938Y-108355257D02*
X104566938Y-108712400D01*
X104566938Y-108712400D02*
X104495509Y-108998114D01*
X104495509Y-108998114D02*
X104424081Y-109140971D01*
X104424081Y-109140971D02*
X104352652Y-109212400D01*
X104352652Y-109212400D02*
X104209795Y-109283828D01*
X104209795Y-109283828D02*
X104066938Y-109283828D01*
X104066938Y-109283828D02*
X103924081Y-109212400D01*
X103924081Y-109212400D02*
X103852652Y-109140971D01*
X103852652Y-109140971D02*
X103781223Y-108998114D01*
X103781223Y-108998114D02*
X103709795Y-108712400D01*
X103709795Y-108712400D02*
X103709795Y-108355257D01*
X103709795Y-108355257D02*
X103781223Y-108069542D01*
X103781223Y-108069542D02*
X103852652Y-107926685D01*
X103852652Y-107926685D02*
X103924081Y-107855257D01*
X103924081Y-107855257D02*
X104066938Y-107783828D01*
X105924080Y-107783828D02*
X105209794Y-107783828D01*
X105209794Y-107783828D02*
X105138366Y-108498114D01*
X105138366Y-108498114D02*
X105209794Y-108426685D01*
X105209794Y-108426685D02*
X105352652Y-108355257D01*
X105352652Y-108355257D02*
X105709794Y-108355257D01*
X105709794Y-108355257D02*
X105852652Y-108426685D01*
X105852652Y-108426685D02*
X105924080Y-108498114D01*
X105924080Y-108498114D02*
X105995509Y-108640971D01*
X105995509Y-108640971D02*
X105995509Y-108998114D01*
X105995509Y-108998114D02*
X105924080Y-109140971D01*
X105924080Y-109140971D02*
X105852652Y-109212400D01*
X105852652Y-109212400D02*
X105709794Y-109283828D01*
X105709794Y-109283828D02*
X105352652Y-109283828D01*
X105352652Y-109283828D02*
X105209794Y-109212400D01*
X105209794Y-109212400D02*
X105138366Y-109140971D01*
X108566937Y-107855257D02*
X108424080Y-107783828D01*
X108424080Y-107783828D02*
X108209794Y-107783828D01*
X108209794Y-107783828D02*
X107995508Y-107855257D01*
X107995508Y-107855257D02*
X107852651Y-107998114D01*
X107852651Y-107998114D02*
X107781222Y-108140971D01*
X107781222Y-108140971D02*
X107709794Y-108426685D01*
X107709794Y-108426685D02*
X107709794Y-108640971D01*
X107709794Y-108640971D02*
X107781222Y-108926685D01*
X107781222Y-108926685D02*
X107852651Y-109069542D01*
X107852651Y-109069542D02*
X107995508Y-109212400D01*
X107995508Y-109212400D02*
X108209794Y-109283828D01*
X108209794Y-109283828D02*
X108352651Y-109283828D01*
X108352651Y-109283828D02*
X108566937Y-109212400D01*
X108566937Y-109212400D02*
X108638365Y-109140971D01*
X108638365Y-109140971D02*
X108638365Y-108640971D01*
X108638365Y-108640971D02*
X108352651Y-108640971D01*
X109209794Y-108855257D02*
X109924080Y-108855257D01*
X109066937Y-109283828D02*
X109566937Y-107783828D01*
X109566937Y-107783828D02*
X110066937Y-109283828D01*
X110352651Y-107783828D02*
X111209794Y-107783828D01*
X110781222Y-109283828D02*
X110781222Y-107783828D01*
X111709793Y-108498114D02*
X112209793Y-108498114D01*
X112424079Y-109283828D02*
X111709793Y-109283828D01*
X111709793Y-109283828D02*
X111709793Y-107783828D01*
X111709793Y-107783828D02*
X112424079Y-107783828D01*
X114209793Y-109283828D02*
X114209793Y-107783828D01*
X114209793Y-107783828D02*
X114566936Y-107783828D01*
X114566936Y-107783828D02*
X114781222Y-107855257D01*
X114781222Y-107855257D02*
X114924079Y-107998114D01*
X114924079Y-107998114D02*
X114995508Y-108140971D01*
X114995508Y-108140971D02*
X115066936Y-108426685D01*
X115066936Y-108426685D02*
X115066936Y-108640971D01*
X115066936Y-108640971D02*
X114995508Y-108926685D01*
X114995508Y-108926685D02*
X114924079Y-109069542D01*
X114924079Y-109069542D02*
X114781222Y-109212400D01*
X114781222Y-109212400D02*
X114566936Y-109283828D01*
X114566936Y-109283828D02*
X114209793Y-109283828D01*
X116566936Y-109283828D02*
X116066936Y-108569542D01*
X115709793Y-109283828D02*
X115709793Y-107783828D01*
X115709793Y-107783828D02*
X116281222Y-107783828D01*
X116281222Y-107783828D02*
X116424079Y-107855257D01*
X116424079Y-107855257D02*
X116495508Y-107926685D01*
X116495508Y-107926685D02*
X116566936Y-108069542D01*
X116566936Y-108069542D02*
X116566936Y-108283828D01*
X116566936Y-108283828D02*
X116495508Y-108426685D01*
X116495508Y-108426685D02*
X116424079Y-108498114D01*
X116424079Y-108498114D02*
X116281222Y-108569542D01*
X116281222Y-108569542D02*
X115709793Y-108569542D01*
X117209793Y-109283828D02*
X117209793Y-107783828D01*
X117709794Y-107783828D02*
X118209794Y-109283828D01*
X118209794Y-109283828D02*
X118709794Y-107783828D01*
X119209793Y-108498114D02*
X119709793Y-108498114D01*
X119924079Y-109283828D02*
X119209793Y-109283828D01*
X119209793Y-109283828D02*
X119209793Y-107783828D01*
X119209793Y-107783828D02*
X119924079Y-107783828D01*
X121424079Y-109283828D02*
X120924079Y-108569542D01*
X120566936Y-109283828D02*
X120566936Y-107783828D01*
X120566936Y-107783828D02*
X121138365Y-107783828D01*
X121138365Y-107783828D02*
X121281222Y-107855257D01*
X121281222Y-107855257D02*
X121352651Y-107926685D01*
X121352651Y-107926685D02*
X121424079Y-108069542D01*
X121424079Y-108069542D02*
X121424079Y-108283828D01*
X121424079Y-108283828D02*
X121352651Y-108426685D01*
X121352651Y-108426685D02*
X121281222Y-108498114D01*
X121281222Y-108498114D02*
X121138365Y-108569542D01*
X121138365Y-108569542D02*
X120566936Y-108569542D01*
X124066936Y-109140971D02*
X123995508Y-109212400D01*
X123995508Y-109212400D02*
X123781222Y-109283828D01*
X123781222Y-109283828D02*
X123638365Y-109283828D01*
X123638365Y-109283828D02*
X123424079Y-109212400D01*
X123424079Y-109212400D02*
X123281222Y-109069542D01*
X123281222Y-109069542D02*
X123209793Y-108926685D01*
X123209793Y-108926685D02*
X123138365Y-108640971D01*
X123138365Y-108640971D02*
X123138365Y-108426685D01*
X123138365Y-108426685D02*
X123209793Y-108140971D01*
X123209793Y-108140971D02*
X123281222Y-107998114D01*
X123281222Y-107998114D02*
X123424079Y-107855257D01*
X123424079Y-107855257D02*
X123638365Y-107783828D01*
X123638365Y-107783828D02*
X123781222Y-107783828D01*
X123781222Y-107783828D02*
X123995508Y-107855257D01*
X123995508Y-107855257D02*
X124066936Y-107926685D01*
X124709793Y-109283828D02*
X124709793Y-107783828D01*
X126281222Y-109283828D02*
X125781222Y-108569542D01*
X125424079Y-109283828D02*
X125424079Y-107783828D01*
X125424079Y-107783828D02*
X125995508Y-107783828D01*
X125995508Y-107783828D02*
X126138365Y-107855257D01*
X126138365Y-107855257D02*
X126209794Y-107926685D01*
X126209794Y-107926685D02*
X126281222Y-108069542D01*
X126281222Y-108069542D02*
X126281222Y-108283828D01*
X126281222Y-108283828D02*
X126209794Y-108426685D01*
X126209794Y-108426685D02*
X126138365Y-108498114D01*
X126138365Y-108498114D02*
X125995508Y-108569542D01*
X125995508Y-108569542D02*
X125424079Y-108569542D01*
X127781222Y-109140971D02*
X127709794Y-109212400D01*
X127709794Y-109212400D02*
X127495508Y-109283828D01*
X127495508Y-109283828D02*
X127352651Y-109283828D01*
X127352651Y-109283828D02*
X127138365Y-109212400D01*
X127138365Y-109212400D02*
X126995508Y-109069542D01*
X126995508Y-109069542D02*
X126924079Y-108926685D01*
X126924079Y-108926685D02*
X126852651Y-108640971D01*
X126852651Y-108640971D02*
X126852651Y-108426685D01*
X126852651Y-108426685D02*
X126924079Y-108140971D01*
X126924079Y-108140971D02*
X126995508Y-107998114D01*
X126995508Y-107998114D02*
X127138365Y-107855257D01*
X127138365Y-107855257D02*
X127352651Y-107783828D01*
X127352651Y-107783828D02*
X127495508Y-107783828D01*
X127495508Y-107783828D02*
X127709794Y-107855257D01*
X127709794Y-107855257D02*
X127781222Y-107926685D01*
X128424079Y-107783828D02*
X128424079Y-108998114D01*
X128424079Y-108998114D02*
X128495508Y-109140971D01*
X128495508Y-109140971D02*
X128566937Y-109212400D01*
X128566937Y-109212400D02*
X128709794Y-109283828D01*
X128709794Y-109283828D02*
X128995508Y-109283828D01*
X128995508Y-109283828D02*
X129138365Y-109212400D01*
X129138365Y-109212400D02*
X129209794Y-109140971D01*
X129209794Y-109140971D02*
X129281222Y-108998114D01*
X129281222Y-108998114D02*
X129281222Y-107783828D01*
X129995508Y-109283828D02*
X129995508Y-107783828D01*
X130495509Y-107783828D02*
X131352652Y-107783828D01*
X130924080Y-109283828D02*
X130924080Y-107783828D01*
X132995508Y-109283828D02*
X132995508Y-107783828D01*
X132995508Y-107783828D02*
X133352651Y-107783828D01*
X133352651Y-107783828D02*
X133566937Y-107855257D01*
X133566937Y-107855257D02*
X133709794Y-107998114D01*
X133709794Y-107998114D02*
X133781223Y-108140971D01*
X133781223Y-108140971D02*
X133852651Y-108426685D01*
X133852651Y-108426685D02*
X133852651Y-108640971D01*
X133852651Y-108640971D02*
X133781223Y-108926685D01*
X133781223Y-108926685D02*
X133709794Y-109069542D01*
X133709794Y-109069542D02*
X133566937Y-109212400D01*
X133566937Y-109212400D02*
X133352651Y-109283828D01*
X133352651Y-109283828D02*
X132995508Y-109283828D01*
X134495508Y-108498114D02*
X134995508Y-108498114D01*
X135209794Y-109283828D02*
X134495508Y-109283828D01*
X134495508Y-109283828D02*
X134495508Y-107783828D01*
X134495508Y-107783828D02*
X135209794Y-107783828D01*
X135781223Y-109212400D02*
X135995509Y-109283828D01*
X135995509Y-109283828D02*
X136352651Y-109283828D01*
X136352651Y-109283828D02*
X136495509Y-109212400D01*
X136495509Y-109212400D02*
X136566937Y-109140971D01*
X136566937Y-109140971D02*
X136638366Y-108998114D01*
X136638366Y-108998114D02*
X136638366Y-108855257D01*
X136638366Y-108855257D02*
X136566937Y-108712400D01*
X136566937Y-108712400D02*
X136495509Y-108640971D01*
X136495509Y-108640971D02*
X136352651Y-108569542D01*
X136352651Y-108569542D02*
X136066937Y-108498114D01*
X136066937Y-108498114D02*
X135924080Y-108426685D01*
X135924080Y-108426685D02*
X135852651Y-108355257D01*
X135852651Y-108355257D02*
X135781223Y-108212400D01*
X135781223Y-108212400D02*
X135781223Y-108069542D01*
X135781223Y-108069542D02*
X135852651Y-107926685D01*
X135852651Y-107926685D02*
X135924080Y-107855257D01*
X135924080Y-107855257D02*
X136066937Y-107783828D01*
X136066937Y-107783828D02*
X136424080Y-107783828D01*
X136424080Y-107783828D02*
X136638366Y-107855257D01*
X137281222Y-109283828D02*
X137281222Y-107783828D01*
X138781223Y-107855257D02*
X138638366Y-107783828D01*
X138638366Y-107783828D02*
X138424080Y-107783828D01*
X138424080Y-107783828D02*
X138209794Y-107855257D01*
X138209794Y-107855257D02*
X138066937Y-107998114D01*
X138066937Y-107998114D02*
X137995508Y-108140971D01*
X137995508Y-108140971D02*
X137924080Y-108426685D01*
X137924080Y-108426685D02*
X137924080Y-108640971D01*
X137924080Y-108640971D02*
X137995508Y-108926685D01*
X137995508Y-108926685D02*
X138066937Y-109069542D01*
X138066937Y-109069542D02*
X138209794Y-109212400D01*
X138209794Y-109212400D02*
X138424080Y-109283828D01*
X138424080Y-109283828D02*
X138566937Y-109283828D01*
X138566937Y-109283828D02*
X138781223Y-109212400D01*
X138781223Y-109212400D02*
X138852651Y-109140971D01*
X138852651Y-109140971D02*
X138852651Y-108640971D01*
X138852651Y-108640971D02*
X138566937Y-108640971D01*
X139495508Y-109283828D02*
X139495508Y-107783828D01*
X139495508Y-107783828D02*
X140352651Y-109283828D01*
X140352651Y-109283828D02*
X140352651Y-107783828D01*
D12*
%TO.P,C16,1,1*%
%TO.N,-4Va*%
X111087000Y-67717000D03*
%TO.P,C16,2,2*%
%TO.N,Coma*%
X112887000Y-67717000D03*
%TD*%
D13*
%TO.P,D9,1,K*%
%TO.N,Net-(D8-A)*%
X93651736Y-47668000D03*
%TO.P,D9,2,A*%
%TO.N,-4Vb*%
X90351736Y-47668000D03*
%TD*%
D14*
%TO.P,C7,1,1*%
%TO.N,-4Vb*%
X79142736Y-53075000D03*
%TO.P,C7,2,2*%
%TO.N,Vcc5V*%
X79142736Y-51275000D03*
%TD*%
%TO.P,C13,1,1*%
%TO.N,-4Vb*%
X90194000Y-58370000D03*
%TO.P,C13,2,2*%
%TO.N,+15Vb*%
X90194000Y-60170000D03*
%TD*%
D15*
%TO.P,C11,1,1*%
%TO.N,GND*%
X84355000Y-83176000D03*
%TO.P,C11,2,2*%
%TO.N,5Vin*%
X84355000Y-81556000D03*
%TD*%
D16*
%TO.P,C42,1,1*%
%TO.N,GND*%
X107483000Y-83671000D03*
%TO.P,C42,2,2*%
%TO.N,Net-(U6-INA)*%
X107483000Y-81871000D03*
%TD*%
D17*
%TO.P,C21,1,1*%
%TO.N,-4Va*%
X109099000Y-63094000D03*
%TO.P,C21,2,2*%
%TO.N,Coma*%
X110679000Y-63094000D03*
%TD*%
D18*
%TO.P,R22,1,1*%
%TO.N,Net-(D7-A)*%
X83236000Y-60587000D03*
%TO.P,R22,2,2*%
%TO.N,Net-(U8-+IN_B)*%
X83236000Y-62487000D03*
%TD*%
D19*
%TO.P,J103,1,1*%
%TO.N,Coma*%
X112691000Y-59982000D03*
D20*
%TO.P,J103,2,2*%
%TO.N,G1*%
X112691000Y-62522000D03*
%TD*%
D18*
%TO.P,R17,1,1*%
%TO.N,Net-(D7-K)*%
X83045736Y-53587000D03*
%TO.P,R17,2,2*%
%TO.N,Net-(Q3-C)*%
X83045736Y-51687000D03*
%TD*%
D16*
%TO.P,C41,1,1*%
%TO.N,GND*%
X104164000Y-83659000D03*
%TO.P,C41,2,2*%
%TO.N,Net-(U6-INB)*%
X104164000Y-81859000D03*
%TD*%
D21*
%TO.P,T1,1,1*%
%TO.N,Net-(U1-D2)*%
X101862001Y-78130700D03*
%TO.P,T1,2,2*%
%TO.N,5Vin*%
X104912000Y-78130700D03*
%TO.P,T1,3,3*%
%TO.N,Net-(U1-D1)*%
X107961999Y-78130700D03*
%TO.P,T1,4,4*%
%TO.N,Net-(D1-Pad2)*%
X107961999Y-66421300D03*
%TO.P,T1,5,5*%
%TO.N,-4Va*%
X104912000Y-66421300D03*
%TO.P,T1,6,6*%
%TO.N,Net-(D1-Pad1)*%
X101862001Y-66421300D03*
%TD*%
D15*
%TO.P,C2,1,1*%
%TO.N,5Vin*%
X96084000Y-82803000D03*
%TO.P,C2,2,2*%
%TO.N,GND*%
X96084000Y-84383000D03*
%TD*%
D14*
%TO.P,C5,1,1*%
%TO.N,-4Va*%
X106169000Y-60385000D03*
%TO.P,C5,2,2*%
%TO.N,+15Va*%
X106169000Y-58585000D03*
%TD*%
D22*
%TO.P,U1,1,D1*%
%TO.N,Net-(U1-D1)*%
X99895000Y-81668000D03*
%TO.P,U1,2,VCC*%
%TO.N,5Vin*%
X98945000Y-81668000D03*
%TO.P,U1,3,D2*%
%TO.N,Net-(U1-D2)*%
X97995000Y-81668000D03*
%TO.P,U1,4,GND_1*%
%TO.N,GND*%
X97995000Y-84168000D03*
%TO.P,U1,5,GND_2*%
X99895000Y-84168000D03*
%TD*%
D17*
%TO.P,C1,1,1*%
%TO.N,Coma*%
X110649000Y-59347000D03*
%TO.P,C1,2,2*%
%TO.N,+15Va*%
X109029000Y-59347000D03*
%TD*%
D23*
%TO.P,D7,1,K*%
%TO.N,Net-(D7-K)*%
X81417736Y-52306000D03*
%TO.P,D7,2,A*%
%TO.N,Net-(D7-A)*%
X81417736Y-53906000D03*
%TD*%
D19*
%TO.P,J101,1,1*%
%TO.N,RESET*%
X112783000Y-83379000D03*
D20*
%TO.P,J101,2,2*%
%TO.N,FLT*%
X110243000Y-83379000D03*
%TO.P,J101,3,3*%
%TO.N,GND*%
X112783000Y-80839000D03*
%TO.P,J101,4,4*%
%TO.N,Net-(J101-Pad4)*%
X110243000Y-80839000D03*
%TO.P,J101,5,5*%
%TO.N,Vg2*%
X112783000Y-78299000D03*
%TO.P,J101,6,6*%
%TO.N,Vg1*%
X110243000Y-78299000D03*
%TD*%
D24*
%TO.P,R6,1,R1*%
%TO.N,-4Vb*%
X81850000Y-58158800D03*
%TO.P,R6,2,R2*%
%TO.N,Net-(R6-R2)*%
X81850000Y-56279200D03*
%TD*%
D14*
%TO.P,C4,1,1*%
%TO.N,-4Va*%
X102797000Y-60360000D03*
%TO.P,C4,2,2*%
%TO.N,+15Va*%
X102797000Y-58560000D03*
%TD*%
D15*
%TO.P,C9,1,1*%
%TO.N,Comb*%
X98111000Y-59385000D03*
%TO.P,C9,2,2*%
%TO.N,+15Vb*%
X98111000Y-61005000D03*
%TD*%
D25*
%TO.P,R29,1,1*%
%TO.N,-4Vb*%
X88340736Y-46825000D03*
%TO.P,R29,2,2*%
%TO.N,Net-(Q3-B)*%
X86340736Y-46825000D03*
%TD*%
D22*
%TO.P,U4,1,D1*%
%TO.N,Net-(U4-D1)*%
X88201000Y-80480000D03*
%TO.P,U4,2,VCC*%
%TO.N,5Vin*%
X87251000Y-80480000D03*
%TO.P,U4,3,D2*%
%TO.N,Net-(U4-D2)*%
X86301000Y-80480000D03*
%TO.P,U4,4,GND_1*%
%TO.N,GND*%
X86301000Y-82980000D03*
%TO.P,U4,5,GND_2*%
X88201000Y-82980000D03*
%TD*%
D17*
%TO.P,C15,1,1*%
%TO.N,-4Vb*%
X88192000Y-52014000D03*
%TO.P,C15,2,2*%
%TO.N,Comb*%
X89812000Y-52014000D03*
%TD*%
%TO.P,C32,1,1*%
%TO.N,GND*%
X78617000Y-78980000D03*
%TO.P,C32,2,2*%
%TO.N,5Vin*%
X80237000Y-78980000D03*
%TD*%
D18*
%TO.P,R2,1,1*%
%TO.N,Net-(R3-R2)*%
X106501000Y-54382000D03*
%TO.P,R2,2,2*%
%TO.N,Coma*%
X106501000Y-52482000D03*
%TD*%
D14*
%TO.P,C28,1,1*%
%TO.N,Comb*%
X93187000Y-64869000D03*
%TO.P,C28,2,2*%
%TO.N,+15Vb*%
X93187000Y-66669000D03*
%TD*%
D26*
%TO.P,D2,1,1*%
%TO.N,Net-(D2-Pad1)*%
X88387999Y-64651300D03*
%TO.P,D2,2,2*%
%TO.N,Net-(D2-Pad2)*%
X90388001Y-64651300D03*
%TO.P,D2,3,3*%
%TO.N,+15Vb*%
X89388000Y-62568500D03*
%TD*%
%TO.P,D1,1,1*%
%TO.N,Net-(D1-Pad1)*%
X103183998Y-64747000D03*
%TO.P,D1,2,2*%
%TO.N,Net-(D1-Pad2)*%
X105184000Y-64747000D03*
%TO.P,D1,3,3*%
%TO.N,+15Va*%
X104183999Y-62664200D03*
%TD*%
D17*
%TO.P,C8,1,1*%
%TO.N,-4Va*%
X111667000Y-55537000D03*
%TO.P,C8,2,2*%
%TO.N,Coma*%
X113287000Y-55537000D03*
%TD*%
D15*
%TO.P,C29,1,1*%
%TO.N,Comb*%
X95769000Y-64212000D03*
%TO.P,C29,2,2*%
%TO.N,+15Vb*%
X95769000Y-65832000D03*
%TD*%
D24*
%TO.P,R3,1,R1*%
%TO.N,-4Va*%
X104505000Y-56372800D03*
%TO.P,R3,2,R2*%
%TO.N,Net-(R3-R2)*%
X104505000Y-54493200D03*
%TD*%
D27*
%TO.P,R4,1,1*%
%TO.N,Comb*%
X96244000Y-59456000D03*
%TO.P,R4,2,2*%
%TO.N,+15Vb*%
X96244000Y-61456000D03*
%TD*%
D15*
%TO.P,C10,1,1*%
%TO.N,5Vin*%
X90159000Y-81601000D03*
%TO.P,C10,2,2*%
%TO.N,GND*%
X90159000Y-83181000D03*
%TD*%
D19*
%TO.P,J102,1,1*%
%TO.N,Comb*%
X112705000Y-47812000D03*
D20*
%TO.P,J102,2,2*%
%TO.N,G2*%
X112705000Y-50352000D03*
%TD*%
D28*
%TO.P,Q2,1,B*%
%TO.N,Net-(Q2-B)*%
X81387000Y-63913000D03*
%TO.P,Q2,2,E*%
%TO.N,Net-(Q2-E)*%
X81387000Y-64913000D03*
%TO.P,Q2,3,C*%
%TO.N,Vcc5V*%
X82987000Y-64413000D03*
%TD*%
D14*
%TO.P,C12,1,1*%
%TO.N,-4Vb*%
X93553000Y-58569000D03*
%TO.P,C12,2,2*%
%TO.N,+15Vb*%
X93553000Y-60369000D03*
%TD*%
D17*
%TO.P,C17,1,1*%
%TO.N,-4Va*%
X111177000Y-65109000D03*
%TO.P,C17,2,2*%
%TO.N,Coma*%
X112797000Y-65109000D03*
%TD*%
D29*
%TO.P,C38,1,1*%
%TO.N,-4Vb*%
X88020000Y-49457000D03*
%TO.P,C38,2,2*%
%TO.N,Net-(Q3-B)*%
X86220000Y-49457000D03*
%TD*%
D16*
%TO.P,C36,1,1*%
%TO.N,-4Vb*%
X85915000Y-62957000D03*
%TO.P,C36,2,2*%
%TO.N,Net-(U8-+IN_B)*%
X85915000Y-61157000D03*
%TD*%
D15*
%TO.P,C31,1,1*%
%TO.N,Comb*%
X97534000Y-64207000D03*
%TO.P,C31,2,2*%
%TO.N,+15Vb*%
X97534000Y-65787000D03*
%TD*%
D18*
%TO.P,R16,1,1*%
%TO.N,Net-(D7-A)*%
X81174000Y-60587000D03*
%TO.P,R16,2,2*%
%TO.N,Net-(Q2-B)*%
X81174000Y-62487000D03*
%TD*%
D30*
%TO.P,R9,1,1*%
%TO.N,GND*%
X94220000Y-80718000D03*
%TO.P,R9,2,2*%
%TO.N,Net-(U6-DT)*%
X96120000Y-80718000D03*
%TD*%
D15*
%TO.P,C6,1,1*%
%TO.N,-4Va*%
X100232000Y-59366000D03*
%TO.P,C6,2,2*%
%TO.N,+15Va*%
X100232000Y-60986000D03*
%TD*%
D25*
%TO.P,R1,1,1*%
%TO.N,Coma*%
X110591000Y-61217000D03*
%TO.P,R1,2,2*%
%TO.N,+15Va*%
X108591000Y-61217000D03*
%TD*%
D31*
%TO.P,U5,1,CATHODE*%
%TO.N,Comb*%
X85668501Y-56437000D03*
%TO.P,U5,2,REF*%
%TO.N,Net-(R6-R2)*%
X83768499Y-56437000D03*
D32*
%TO.P,U5,3,ANODE*%
%TO.N,-4Vb*%
X84718500Y-58335650D03*
%TD*%
D29*
%TO.P,C43,1,1*%
%TO.N,GND*%
X96735000Y-78006000D03*
%TO.P,C43,2,2*%
%TO.N,Net-(U6-DT)*%
X98535000Y-78006000D03*
%TD*%
D33*
%TO.P,D6,1,K*%
%TO.N,Coma*%
X103773000Y-52403000D03*
%TO.P,D6,2,A*%
%TO.N,Net-(D5-A)*%
X99673000Y-52403000D03*
%TD*%
D21*
%TO.P,T2,1,1*%
%TO.N,Net-(U4-D2)*%
X84082001Y-78130700D03*
%TO.P,T2,2,2*%
%TO.N,5Vin*%
X87132000Y-78130700D03*
%TO.P,T2,3,3*%
%TO.N,Net-(U4-D1)*%
X90181999Y-78130700D03*
%TO.P,T2,4,4*%
%TO.N,Net-(D2-Pad2)*%
X90181999Y-66421300D03*
%TO.P,T2,5,5*%
%TO.N,-4Vb*%
X87132000Y-66421300D03*
%TO.P,T2,6,6*%
%TO.N,Net-(D2-Pad1)*%
X84082001Y-66421300D03*
%TD*%
D30*
%TO.P,R5,1,1*%
%TO.N,Net-(R6-R2)*%
X87868000Y-53921000D03*
%TO.P,R5,2,2*%
%TO.N,Comb*%
X89768000Y-53921000D03*
%TD*%
D15*
%TO.P,C37,1,1*%
%TO.N,-4Vb*%
X78645736Y-61877000D03*
%TO.P,C37,2,2*%
%TO.N,Vcc5V*%
X78645736Y-63497000D03*
%TD*%
D30*
%TO.P,R27,1,1*%
%TO.N,Net-(U7-OUTB)*%
X83921000Y-48774000D03*
%TO.P,R27,2,2*%
%TO.N,Net-(Q3-B)*%
X82021000Y-48774000D03*
%TD*%
D15*
%TO.P,C14,1,1*%
%TO.N,-4Vb*%
X87612000Y-57444000D03*
%TO.P,C14,2,2*%
%TO.N,+15Vb*%
X87612000Y-59064000D03*
%TD*%
D17*
%TO.P,C33,1,1*%
%TO.N,-4Vb*%
X81488000Y-67101000D03*
%TO.P,C33,2,2*%
%TO.N,Vcc5V*%
X79868000Y-67101000D03*
%TD*%
D31*
%TO.P,U3,1,CATHODE*%
%TO.N,Coma*%
X110739000Y-52422000D03*
%TO.P,U3,2,REF*%
%TO.N,Net-(R3-R2)*%
X108838998Y-52422000D03*
D32*
%TO.P,U3,3,ANODE*%
%TO.N,-4Va*%
X109788999Y-54320650D03*
%TD*%
D15*
%TO.P,C3,1,1*%
%TO.N,GND*%
X101631000Y-84402000D03*
%TO.P,C3,2,2*%
%TO.N,5Vin*%
X101631000Y-82782000D03*
%TD*%
D34*
%TO.N,+15Va*%
X106678000Y-67565000D03*
%TO.N,Coma*%
X110611000Y-57821000D03*
X114558000Y-68123000D03*
%TO.N,GND*%
X78674000Y-84663000D03*
X78640000Y-80880000D03*
X95526000Y-76456000D03*
X91577000Y-77166000D03*
X91577000Y-78754000D03*
X78594000Y-77608000D03*
X97284087Y-82451442D03*
X80238000Y-83121000D03*
X83004000Y-84678000D03*
%TO.N,5Vin*%
X103178000Y-79208000D03*
X98982765Y-80638765D03*
X102328000Y-81546000D03*
X97686735Y-80237735D03*
X105205001Y-82754382D03*
X86983000Y-76606000D03*
X91670000Y-81703000D03*
%TO.N,-4Va*%
X102958000Y-66773000D03*
X107962500Y-62778500D03*
X101691757Y-60395938D03*
%TO.N,-4Vb*%
X88469000Y-61338000D03*
X88099500Y-55919000D03*
X89064000Y-59531000D03*
X80526279Y-56165972D03*
X82332000Y-59077000D03*
X78685000Y-69440000D03*
X83707000Y-57816000D03*
X89768036Y-46480842D03*
X87825000Y-69052000D03*
X80969000Y-51050000D03*
%TO.N,Vcc5V*%
X84323000Y-64463000D03*
X80106735Y-51063735D03*
X83651000Y-68837000D03*
X78645736Y-65878736D03*
%TO.N,Comb*%
X94752000Y-67436000D03*
X86941000Y-55292598D03*
X108808000Y-48103000D03*
X91185000Y-51948000D03*
%TO.N,+15Vb*%
X86341000Y-54521000D03*
X99036000Y-66497000D03*
%TO.N,Net-(U6-INB)*%
X104432000Y-80054000D03*
%TO.N,Net-(U6-INA)*%
X107222000Y-82491000D03*
X107220000Y-79730000D03*
%TO.N,Net-(D5-A)*%
X98084000Y-51366000D03*
%TO.N,Net-(D7-A)*%
X80013000Y-55690000D03*
X79553000Y-60568000D03*
%TO.N,Net-(D8-A)*%
X94976063Y-46478107D03*
X93693000Y-50273000D03*
%TO.N,FLT*%
X102766597Y-84973512D03*
%TO.N,Net-(J101-Pad4)*%
X102776000Y-83108529D03*
X103817000Y-80537000D03*
%TO.N,Net-(Q2-E)*%
X85175000Y-64463000D03*
%TO.N,Net-(U1-D1)*%
X99827000Y-79364955D03*
X99827000Y-80564955D03*
%TO.N,Net-(U7-OUTB)*%
X77771814Y-60615022D03*
%TO.N,Net-(Q3-C)*%
X83882000Y-50756000D03*
%TO.N,Net-(D1-Pad2)*%
X104422000Y-65237000D03*
X108888000Y-65495000D03*
%TO.N,Net-(U6-DT)*%
X97157000Y-79320000D03*
X98796000Y-79345000D03*
%TO.N,Net-(Q3-B)*%
X84345000Y-47293000D03*
%TO.N,Net-(U8-+IN_B)*%
X84557000Y-63263000D03*
X84608666Y-62416666D03*
%TD*%
D35*
%TO.N,+15Va*%
X104664800Y-62664200D02*
X104183999Y-62664200D01*
X100232000Y-60986000D02*
X101583000Y-60986000D01*
X106169000Y-58585000D02*
X108267000Y-58585000D01*
X102797000Y-58560000D02*
X104183999Y-59946999D01*
X108267000Y-58585000D02*
X109029000Y-59347000D01*
X101583000Y-60986000D02*
X103261200Y-62664200D01*
X103261200Y-62664200D02*
X104183999Y-62664200D01*
X109029000Y-60779000D02*
X108591000Y-61217000D01*
X106678000Y-67565000D02*
X106678000Y-64677400D01*
X106144000Y-58560000D02*
X106169000Y-58585000D01*
X104183999Y-59946999D02*
X104183999Y-62664200D01*
X109029000Y-59347000D02*
X109029000Y-60779000D01*
X106678000Y-64677400D02*
X104664800Y-62664200D01*
X102797000Y-58560000D02*
X106144000Y-58560000D01*
%TO.N,Coma*%
X110649000Y-59347000D02*
X110649000Y-57859000D01*
X114558000Y-68123000D02*
X114152000Y-67717000D01*
X110649000Y-57859000D02*
X110611000Y-57821000D01*
X114152000Y-67717000D02*
X112887000Y-67717000D01*
%TO.N,GND*%
X91579000Y-79134000D02*
X91579000Y-78754000D01*
X78594000Y-77608000D02*
X78594000Y-78957000D01*
X107471000Y-83659000D02*
X107483000Y-83671000D01*
X96080000Y-78006000D02*
X96735000Y-78006000D01*
X95526000Y-76456000D02*
X95526000Y-77452000D01*
X111418000Y-82204000D02*
X112783000Y-80839000D01*
X93163000Y-80718000D02*
X91589000Y-79144000D01*
X97284087Y-82451442D02*
X97284087Y-83457087D01*
X104164000Y-83659000D02*
X107471000Y-83659000D01*
X97284087Y-83457087D02*
X97995000Y-84168000D01*
X95526000Y-77452000D02*
X96080000Y-78006000D01*
X96084000Y-84383000D02*
X96299000Y-84383000D01*
X94220000Y-80718000D02*
X93163000Y-80718000D01*
X91589000Y-79144000D02*
X91579000Y-79134000D01*
X107483000Y-83671000D02*
X108950000Y-82204000D01*
X108950000Y-82204000D02*
X111418000Y-82204000D01*
X78594000Y-78957000D02*
X78617000Y-78980000D01*
%TO.N,5Vin*%
X98989000Y-80645000D02*
X98989000Y-81624000D01*
X98949000Y-82155000D02*
X99412000Y-82618000D01*
X86983000Y-76606000D02*
X86983000Y-77981700D01*
X105205001Y-82754382D02*
X106167000Y-81792383D01*
X87251000Y-81240000D02*
X87251000Y-80480000D01*
X80237000Y-78980000D02*
X80237000Y-80211000D01*
X81582000Y-81556000D02*
X84355000Y-81556000D01*
X87612000Y-81601000D02*
X90159000Y-81601000D01*
X87132000Y-78130700D02*
X87132000Y-80361000D01*
X84355000Y-81556000D02*
X86935000Y-81556000D01*
X97209000Y-81678000D02*
X97209000Y-80715470D01*
X97209000Y-80715470D02*
X97686735Y-80237735D01*
X101771000Y-82642000D02*
X101631000Y-82782000D01*
X87132000Y-80361000D02*
X87251000Y-80480000D01*
X106167000Y-79450700D02*
X104912000Y-78195700D01*
X102064000Y-81810000D02*
X101771000Y-81810000D01*
X98982765Y-80638765D02*
X98989000Y-80645000D01*
X104190300Y-78195700D02*
X103178000Y-79208000D01*
X91568000Y-81601000D02*
X90159000Y-81601000D01*
X87251000Y-81240000D02*
X87612000Y-81601000D01*
X104912000Y-78195700D02*
X104190300Y-78195700D01*
X96084000Y-82803000D02*
X97209000Y-81678000D01*
X101771000Y-81810000D02*
X101771000Y-82642000D01*
X106167000Y-81792383D02*
X106167000Y-79450700D01*
X80237000Y-80211000D02*
X81582000Y-81556000D01*
X86983000Y-77981700D02*
X87132000Y-78130700D01*
X86935000Y-81556000D02*
X87251000Y-81240000D01*
X98989000Y-81624000D02*
X98945000Y-81668000D01*
X102328000Y-81546000D02*
X102064000Y-81810000D01*
X98949000Y-81674000D02*
X98949000Y-82155000D01*
X91670000Y-81703000D02*
X91568000Y-81601000D01*
X101467000Y-82618000D02*
X101631000Y-82782000D01*
X99412000Y-82618000D02*
X101467000Y-82618000D01*
%TO.N,-4Va*%
X100232000Y-58525000D02*
X100232000Y-59366000D01*
X109099000Y-63309000D02*
X110899000Y-65109000D01*
X104912000Y-66647529D02*
X104912000Y-66486300D01*
X110639000Y-68165000D02*
X106429471Y-68165000D01*
X110416000Y-55537000D02*
X111667000Y-55537000D01*
X106169000Y-60385000D02*
X106169000Y-60985000D01*
X104505000Y-56372800D02*
X109580200Y-56372800D01*
X106429471Y-68165000D02*
X104912000Y-66647529D01*
X104912000Y-66486300D02*
X103244700Y-66486300D01*
X102797000Y-60360000D02*
X101727695Y-60360000D01*
X100232000Y-59366000D02*
X101803000Y-59366000D01*
X109788999Y-54320650D02*
X109788999Y-54909999D01*
X108278000Y-63094000D02*
X109099000Y-63094000D01*
X109788999Y-54909999D02*
X110416000Y-55537000D01*
X110899000Y-65109000D02*
X111177000Y-65109000D01*
X106169000Y-60985000D02*
X107962500Y-62778500D01*
X101727695Y-60360000D02*
X101691757Y-60395938D01*
X107962500Y-62778500D02*
X108278000Y-63094000D01*
X111177000Y-65109000D02*
X111177000Y-67627000D01*
X111177000Y-67627000D02*
X111087000Y-67717000D01*
X109580200Y-56372800D02*
X110416000Y-55537000D01*
X103244700Y-66486300D02*
X102958000Y-66773000D01*
X104505000Y-56372800D02*
X102384200Y-56372800D01*
X109099000Y-63094000D02*
X109099000Y-63309000D01*
X111087000Y-67717000D02*
X110639000Y-68165000D01*
X102384200Y-56372800D02*
X100232000Y-58525000D01*
X101803000Y-59366000D02*
X102797000Y-60360000D01*
%TO.N,-4Vb*%
X88918000Y-52740000D02*
X88918000Y-56138000D01*
X86626700Y-66421300D02*
X84846000Y-68202000D01*
X79147529Y-61437000D02*
X84311000Y-61437000D01*
X88991999Y-65610900D02*
X88991999Y-63691700D01*
X80526279Y-56165972D02*
X80526279Y-57664279D01*
X89768036Y-46480842D02*
X88656158Y-46480842D01*
X81850000Y-58158800D02*
X81850000Y-58595000D01*
X87185500Y-62621500D02*
X87185500Y-60427500D01*
X87127000Y-66426300D02*
X87132000Y-66421300D01*
X82589000Y-68202000D02*
X81488000Y-67101000D01*
X88020000Y-49457000D02*
X88020000Y-51842000D01*
X84718500Y-61029500D02*
X84718500Y-58335650D01*
X78645736Y-61877000D02*
X78707529Y-61877000D01*
X88020000Y-51842000D02*
X88192000Y-52014000D01*
X87127000Y-68354000D02*
X87127000Y-66426300D01*
X81850000Y-58595000D02*
X82332000Y-59077000D01*
X88656158Y-46480842D02*
X88333000Y-46804000D01*
X90194000Y-58401000D02*
X89064000Y-59531000D01*
X88699000Y-55919000D02*
X88918000Y-56138000D01*
X86850000Y-62957000D02*
X87185500Y-62621500D01*
X86850000Y-62957000D02*
X88469000Y-61338000D01*
X84846000Y-68202000D02*
X82589000Y-68202000D01*
X80969000Y-51050000D02*
X80969000Y-51650000D01*
X88918000Y-56138000D02*
X87612000Y-57444000D01*
X81020800Y-58158800D02*
X81850000Y-58158800D01*
X87132000Y-67544000D02*
X87132000Y-66421300D01*
X80526279Y-57664279D02*
X81020800Y-58158800D01*
X87825000Y-69052000D02*
X87127000Y-68354000D01*
X79719000Y-52900000D02*
X78831000Y-52900000D01*
X78688000Y-69437000D02*
X78685000Y-69440000D01*
X88991999Y-63691700D02*
X88257299Y-62957000D01*
X90194000Y-58370000D02*
X90194000Y-58401000D01*
X78707529Y-61877000D02*
X79147529Y-61437000D01*
X88181599Y-66421300D02*
X88991999Y-65610900D01*
X83707000Y-57816000D02*
X84198850Y-57816000D01*
X84198850Y-57816000D02*
X84718500Y-58335650D01*
X87440000Y-69437000D02*
X78688000Y-69437000D01*
X87185500Y-60427500D02*
X85093650Y-58335650D01*
X80969000Y-51650000D02*
X79719000Y-52900000D01*
X85093650Y-58335650D02*
X84718500Y-58335650D01*
X88257299Y-62957000D02*
X85915000Y-62957000D01*
X88192000Y-52014000D02*
X88918000Y-52740000D01*
X87132000Y-66421300D02*
X86626700Y-66421300D01*
X88099500Y-55919000D02*
X88699000Y-55919000D01*
X85915000Y-62957000D02*
X86850000Y-62957000D01*
X84311000Y-61437000D02*
X84718500Y-61029500D01*
X87132000Y-66421300D02*
X88181599Y-66421300D01*
X87825000Y-69052000D02*
X87440000Y-69437000D01*
%TO.N,Vcc5V*%
X83037000Y-64463000D02*
X82987000Y-64413000D01*
X79868000Y-67356000D02*
X81349000Y-68837000D01*
X82987000Y-65166000D02*
X82987000Y-64413000D01*
X79868000Y-66846000D02*
X81251000Y-65463000D01*
X81251000Y-65463000D02*
X82690000Y-65463000D01*
X84323000Y-64463000D02*
X83037000Y-64463000D01*
X79868000Y-67101000D02*
X79868000Y-66846000D01*
X80070470Y-51100000D02*
X80106735Y-51063735D01*
X81349000Y-68837000D02*
X83651000Y-68837000D01*
X82690000Y-65463000D02*
X82987000Y-65166000D01*
X78831000Y-51100000D02*
X80070470Y-51100000D01*
X79868000Y-67101000D02*
X79868000Y-67356000D01*
X78645736Y-63497000D02*
X78645736Y-65878736D01*
X78645736Y-65878736D02*
X79868000Y-67101000D01*
%TO.N,Comb*%
X85668501Y-54344970D02*
X85668501Y-56437000D01*
X93187000Y-64869000D02*
X95112000Y-64869000D01*
X93187000Y-65125000D02*
X94752000Y-66690000D01*
X89768000Y-53921000D02*
X92005000Y-53921000D01*
X96244000Y-59456000D02*
X98040000Y-59456000D01*
X89812000Y-52014000D02*
X89812000Y-53877000D01*
X108808000Y-48944000D02*
X107014000Y-50738000D01*
X101710000Y-55786000D02*
X98111000Y-59385000D01*
X86578529Y-53910000D02*
X86103471Y-53910000D01*
X98455000Y-64207000D02*
X99156000Y-63506000D01*
X97534000Y-64207000D02*
X95774000Y-64207000D01*
X108808000Y-48103000D02*
X108808000Y-48944000D01*
X94752000Y-66690000D02*
X94752000Y-67436000D01*
X95774000Y-64207000D02*
X95769000Y-64212000D01*
X89812000Y-53877000D02*
X89768000Y-53921000D01*
X92005000Y-53921000D02*
X96244000Y-58160000D01*
X97534000Y-64207000D02*
X98455000Y-64207000D01*
X107014000Y-50738000D02*
X103018000Y-50738000D01*
X99156000Y-63506000D02*
X99156000Y-60175000D01*
X98366000Y-59385000D02*
X98111000Y-59385000D01*
X89768000Y-53365000D02*
X91185000Y-51948000D01*
X93187000Y-64869000D02*
X93187000Y-65125000D01*
X86103471Y-53910000D02*
X85668501Y-54344970D01*
X89768000Y-53921000D02*
X89768000Y-53365000D01*
X96244000Y-58160000D02*
X96244000Y-59456000D01*
X103018000Y-50738000D02*
X101710000Y-52046000D01*
X86941000Y-55292598D02*
X86941000Y-54272471D01*
X98040000Y-59456000D02*
X98111000Y-59385000D01*
X95112000Y-64869000D02*
X95769000Y-64212000D01*
X101710000Y-52046000D02*
X101710000Y-55786000D01*
X86941000Y-54272471D02*
X86578529Y-53910000D01*
X99156000Y-60175000D02*
X98366000Y-59385000D01*
%TO.N,+15Vb*%
X93187000Y-66719529D02*
X93187000Y-66669000D01*
X95769000Y-65832000D02*
X95769000Y-67267529D01*
X87612000Y-59728000D02*
X87612000Y-59064000D01*
X87612000Y-59064000D02*
X87357000Y-59064000D01*
X90373000Y-60170000D02*
X90572000Y-60369000D01*
X86341000Y-58048000D02*
X86341000Y-54521000D01*
X92212000Y-65694000D02*
X93187000Y-66669000D01*
X90194000Y-60170000D02*
X88054000Y-60170000D01*
X95000529Y-68036000D02*
X94503471Y-68036000D01*
X90194000Y-60170000D02*
X90373000Y-60170000D01*
X96244000Y-61456000D02*
X97660000Y-61456000D01*
X90572000Y-60369000D02*
X93553000Y-60369000D01*
X94230000Y-60369000D02*
X95317000Y-61456000D01*
X94503471Y-68036000D02*
X93187000Y-66719529D01*
X98326000Y-65787000D02*
X99036000Y-66497000D01*
X90194000Y-62819000D02*
X92212000Y-64837000D01*
X93553000Y-60369000D02*
X94230000Y-60369000D01*
X97489000Y-65832000D02*
X97534000Y-65787000D01*
X95317000Y-61456000D02*
X96244000Y-61456000D01*
X87357000Y-59064000D02*
X86341000Y-58048000D01*
X90194000Y-61305000D02*
X89388000Y-62111000D01*
X90194000Y-60170000D02*
X90194000Y-62819000D01*
X88054000Y-60170000D02*
X87612000Y-59728000D01*
X97534000Y-65787000D02*
X98326000Y-65787000D01*
X92212000Y-64837000D02*
X92212000Y-65694000D01*
X97660000Y-61456000D02*
X98111000Y-61005000D01*
X89388000Y-62111000D02*
X89388000Y-62568500D01*
X95769000Y-65832000D02*
X97489000Y-65832000D01*
X95769000Y-67267529D02*
X95000529Y-68036000D01*
%TO.N,Net-(U6-INB)*%
X104432000Y-81591000D02*
X104164000Y-81859000D01*
X104432000Y-80054000D02*
X104432000Y-81591000D01*
%TO.N,Net-(U6-INA)*%
X107220000Y-81608000D02*
X107483000Y-81871000D01*
X107220000Y-79730000D02*
X107220000Y-81608000D01*
X107222000Y-82491000D02*
X107222000Y-82132000D01*
X107222000Y-82132000D02*
X107483000Y-81871000D01*
%TO.N,Net-(D5-A)*%
X98084000Y-51366000D02*
X98636000Y-51366000D01*
X98636000Y-51366000D02*
X99673000Y-52403000D01*
%TO.N,Net-(D7-K)*%
X82435000Y-53487000D02*
X81154000Y-52206000D01*
X82802000Y-53487000D02*
X82435000Y-53487000D01*
%TO.N,Net-(D7-A)*%
X81155000Y-60568000D02*
X81174000Y-60587000D01*
X81174000Y-60587000D02*
X83236000Y-60587000D01*
X80013000Y-55690000D02*
X81154000Y-54549000D01*
X81154000Y-54549000D02*
X81154000Y-53806000D01*
X79553000Y-60568000D02*
X81155000Y-60568000D01*
%TO.N,Net-(D8-A)*%
X93694000Y-47496000D02*
X93958170Y-47496000D01*
X93694000Y-47496000D02*
X93694000Y-50272000D01*
X93694000Y-50272000D02*
X93693000Y-50273000D01*
X93958170Y-47496000D02*
X94976063Y-46478107D01*
%TO.N,FLT*%
X102766597Y-84973512D02*
X108648488Y-84973512D01*
X108648488Y-84973512D02*
X110243000Y-83379000D01*
%TO.N,Net-(J101-Pad4)*%
X103089000Y-82795529D02*
X103089000Y-80934000D01*
X102776000Y-83108529D02*
X103089000Y-82795529D01*
X103486000Y-80537000D02*
X103817000Y-80537000D01*
X103089000Y-80934000D02*
X103486000Y-80537000D01*
%TO.N,Net-(Q2-E)*%
X81599000Y-64913000D02*
X81387000Y-64913000D01*
X85175000Y-64463000D02*
X84575000Y-63863000D01*
X84575000Y-63863000D02*
X83904893Y-63863000D01*
X83904893Y-63863000D02*
X83378893Y-63337000D01*
X82187000Y-64325000D02*
X81599000Y-64913000D01*
X83378893Y-63337000D02*
X82713000Y-63337000D01*
X82713000Y-63337000D02*
X82187000Y-63863000D01*
X82187000Y-63863000D02*
X82187000Y-64325000D01*
%TO.N,Net-(U4-D2)*%
X85447000Y-80480000D02*
X86301000Y-80480000D01*
X84082001Y-78130700D02*
X84082001Y-79115001D01*
X84082001Y-79115001D02*
X85447000Y-80480000D01*
%TO.N,Net-(U4-D1)*%
X88201000Y-79352000D02*
X89422300Y-78130700D01*
X89422300Y-78130700D02*
X90181999Y-78130700D01*
X88201000Y-80480000D02*
X88201000Y-79352000D01*
%TO.N,Net-(U1-D2)*%
X97999000Y-81674000D02*
X97999000Y-80774000D01*
X101805000Y-79633255D02*
X101805000Y-79633000D01*
X97999000Y-80774000D02*
X98808045Y-79964955D01*
X98808045Y-79964955D02*
X101473300Y-79964955D01*
X101805000Y-79633000D02*
X101862001Y-79575999D01*
X101473300Y-79964955D02*
X101805000Y-79633255D01*
X101862001Y-79575999D02*
X101862001Y-78195700D01*
%TO.N,Net-(U1-D1)*%
X99827000Y-78476601D02*
X99827000Y-79364955D01*
X99827000Y-81602000D02*
X99899000Y-81674000D01*
X99827000Y-80564955D02*
X99827000Y-81602000D01*
X107961999Y-78195700D02*
X106801299Y-77035000D01*
X106801299Y-77035000D02*
X101268601Y-77035000D01*
X101268601Y-77035000D02*
X99827000Y-78476601D01*
%TO.N,Net-(U7-OUTB)*%
X82245000Y-50450000D02*
X78181000Y-50450000D01*
X78181000Y-50450000D02*
X77856000Y-50450000D01*
X77856000Y-50450000D02*
X77771814Y-50534186D01*
X83921000Y-48774000D02*
X82245000Y-50450000D01*
X77771814Y-50534186D02*
X77771814Y-60615022D01*
%TO.N,Net-(R6-R2)*%
X83768499Y-56437000D02*
X82007800Y-56437000D01*
X87868000Y-53921000D02*
X87110000Y-53163000D01*
X83768499Y-55382501D02*
X83768499Y-56437000D01*
X82007800Y-56437000D02*
X81850000Y-56279200D01*
X87110000Y-53163000D02*
X85988000Y-53163000D01*
X85988000Y-53163000D02*
X83768499Y-55382501D01*
%TO.N,Net-(R3-R2)*%
X108838998Y-53729998D02*
X108186996Y-54382000D01*
X108838998Y-52422000D02*
X108838998Y-53729998D01*
X108186996Y-54382000D02*
X106501000Y-54382000D01*
X106501000Y-54382000D02*
X104616200Y-54382000D01*
X104616200Y-54382000D02*
X104505000Y-54493200D01*
%TO.N,Net-(Q3-C)*%
X83882000Y-50756000D02*
X83147000Y-50756000D01*
X82802000Y-51101000D02*
X82802000Y-51587000D01*
X83147000Y-50756000D02*
X82802000Y-51101000D01*
%TO.N,Net-(Q2-B)*%
X81387000Y-63913000D02*
X81387000Y-62700000D01*
X81387000Y-62700000D02*
X81174000Y-62487000D01*
%TO.N,Net-(D2-Pad2)*%
X90388001Y-65498999D02*
X90388001Y-64651300D01*
X90181999Y-65705001D02*
X90388001Y-65498999D01*
X90181999Y-66421300D02*
X90181999Y-65705001D01*
%TO.N,Net-(D2-Pad1)*%
X85852001Y-64651300D02*
X88387999Y-64651300D01*
X84082001Y-66421300D02*
X85852001Y-64651300D01*
%TO.N,Net-(D1-Pad1)*%
X101862001Y-66068997D02*
X103183998Y-64747000D01*
X101862001Y-66486300D02*
X101862001Y-66068997D01*
%TO.N,Net-(D1-Pad2)*%
X104608600Y-65423600D02*
X105097000Y-65423600D01*
X104422000Y-65237000D02*
X104608600Y-65423600D01*
X107961999Y-66486300D02*
X107961999Y-66421001D01*
X105097000Y-65423600D02*
X105097000Y-64834000D01*
X105097000Y-64834000D02*
X105184000Y-64747000D01*
X107961999Y-66421001D02*
X108888000Y-65495000D01*
%TO.N,Net-(U6-DT)*%
X96435000Y-79320000D02*
X96120000Y-79635000D01*
X97157000Y-79320000D02*
X96435000Y-79320000D01*
X96120000Y-79635000D02*
X96120000Y-80718000D01*
X98227000Y-78844000D02*
X98227000Y-78314000D01*
X98796000Y-79345000D02*
X98728000Y-79345000D01*
X98227000Y-78314000D02*
X98535000Y-78006000D01*
X98728000Y-79345000D02*
X98227000Y-78844000D01*
%TO.N,Net-(Q3-B)*%
X82021000Y-48774000D02*
X82021000Y-48749000D01*
X86333000Y-49344000D02*
X86220000Y-49457000D01*
X83966000Y-46804000D02*
X86333000Y-46804000D01*
X86333000Y-46804000D02*
X86333000Y-49344000D01*
X84834000Y-46804000D02*
X84345000Y-47293000D01*
X82021000Y-48749000D02*
X83966000Y-46804000D01*
X86333000Y-46804000D02*
X84834000Y-46804000D01*
%TO.N,Net-(U8-+IN_B)*%
X84655334Y-62416666D02*
X85915000Y-61157000D01*
X84012000Y-63263000D02*
X83236000Y-62487000D01*
X84557000Y-63263000D02*
X84012000Y-63263000D01*
X84608666Y-62416666D02*
X84655334Y-62416666D01*
%TD*%
%TA.AperFunction,Conductor*%
%TO.N,Coma*%
G36*
X111416080Y-46441701D02*
G01*
X111482991Y-46461814D01*
X111528407Y-46514909D01*
X111537907Y-46584130D01*
X111514552Y-46640009D01*
X111436204Y-46744668D01*
X111436202Y-46744671D01*
X111385908Y-46879517D01*
X111379895Y-46935454D01*
X111379501Y-46939123D01*
X111379500Y-46939135D01*
X111379500Y-48684870D01*
X111379501Y-48684876D01*
X111385908Y-48744483D01*
X111436202Y-48879328D01*
X111436206Y-48879335D01*
X111522452Y-48994544D01*
X111522455Y-48994547D01*
X111637664Y-49080793D01*
X111637671Y-49080797D01*
X111772517Y-49131091D01*
X111780062Y-49132874D01*
X111779383Y-49135746D01*
X111831162Y-49157196D01*
X111871008Y-49214589D01*
X111873500Y-49284414D01*
X111841035Y-49341426D01*
X111685726Y-49496735D01*
X111552701Y-49686714D01*
X111552699Y-49686718D01*
X111454681Y-49896917D01*
X111394651Y-50120948D01*
X111394650Y-50120955D01*
X111374437Y-50351998D01*
X111374437Y-50352001D01*
X111394650Y-50583044D01*
X111394651Y-50583051D01*
X111454678Y-50807074D01*
X111454679Y-50807076D01*
X111454680Y-50807079D01*
X111552699Y-51017282D01*
X111685730Y-51207269D01*
X111849731Y-51371270D01*
X112039718Y-51504301D01*
X112249921Y-51602320D01*
X112473950Y-51662349D01*
X112638985Y-51676787D01*
X112704998Y-51682563D01*
X112705000Y-51682563D01*
X112705002Y-51682563D01*
X112762762Y-51677509D01*
X112936050Y-51662349D01*
X113160079Y-51602320D01*
X113370282Y-51504301D01*
X113560269Y-51371270D01*
X113724270Y-51207269D01*
X113857301Y-51017282D01*
X113955320Y-50807079D01*
X114015349Y-50583050D01*
X114035563Y-50352000D01*
X114015349Y-50120950D01*
X113955320Y-49896921D01*
X113857301Y-49686719D01*
X113857299Y-49686716D01*
X113857298Y-49686714D01*
X113724273Y-49496735D01*
X113724268Y-49496729D01*
X113568965Y-49341426D01*
X113535480Y-49280103D01*
X113540464Y-49210411D01*
X113582336Y-49154478D01*
X113630556Y-49135517D01*
X113629932Y-49132876D01*
X113637479Y-49131092D01*
X113637481Y-49131091D01*
X113637483Y-49131091D01*
X113772331Y-49080796D01*
X113887546Y-48994546D01*
X113973796Y-48879331D01*
X114024091Y-48744483D01*
X114030500Y-48684873D01*
X114030499Y-46939128D01*
X114024091Y-46879517D01*
X113996595Y-46805797D01*
X113973797Y-46744671D01*
X113973793Y-46744664D01*
X113907865Y-46656596D01*
X113883447Y-46591132D01*
X113898298Y-46522859D01*
X113947703Y-46473453D01*
X114007923Y-46458288D01*
X116338553Y-46473203D01*
X116405464Y-46493316D01*
X116450880Y-46546411D01*
X116461752Y-46598443D01*
X116227237Y-69994541D01*
X116206881Y-70061380D01*
X116153621Y-70106603D01*
X116102537Y-70117296D01*
X114997002Y-70111000D01*
X114997000Y-70111000D01*
X114954321Y-70111025D01*
X100186758Y-70119925D01*
X100119706Y-70100281D01*
X100073920Y-70047504D01*
X100062683Y-69996243D01*
X100059728Y-68842498D01*
X100054000Y-66606000D01*
X100053999Y-66606000D01*
X99915846Y-66607487D01*
X99848598Y-66588525D01*
X99802278Y-66536216D01*
X99791291Y-66497377D01*
X99789942Y-66485408D01*
X99782389Y-66418369D01*
X99772314Y-66328944D01*
X99731947Y-66213582D01*
X99716456Y-66169310D01*
X99716455Y-66169309D01*
X99716454Y-66169305D01*
X99716452Y-66169302D01*
X99626481Y-66026115D01*
X99626476Y-66026109D01*
X99506890Y-65906523D01*
X99506884Y-65906518D01*
X99363699Y-65816548D01*
X99363688Y-65816543D01*
X99254728Y-65778416D01*
X99208002Y-65749056D01*
X98761808Y-65302862D01*
X98728323Y-65241539D01*
X98726199Y-65228432D01*
X98723091Y-65199516D01*
X98672797Y-65064670D01*
X98668547Y-65056888D01*
X98671757Y-65055134D01*
X98653361Y-65006001D01*
X98668127Y-64937709D01*
X98668749Y-64936740D01*
X98672791Y-64929336D01*
X98672796Y-64929331D01*
X98701870Y-64851375D01*
X98743740Y-64795443D01*
X98759600Y-64785350D01*
X98763122Y-64783466D01*
X98763127Y-64783465D01*
X98869669Y-64712277D01*
X99661277Y-63920669D01*
X99732465Y-63814127D01*
X99738578Y-63799369D01*
X99749782Y-63772321D01*
X99749782Y-63772320D01*
X99761446Y-63744161D01*
X99781501Y-63695744D01*
X99791931Y-63643309D01*
X99806500Y-63570071D01*
X99806500Y-62090499D01*
X99826185Y-62023460D01*
X99878989Y-61977705D01*
X99930500Y-61966499D01*
X100974871Y-61966499D01*
X100974872Y-61966499D01*
X101034483Y-61960091D01*
X101169331Y-61909796D01*
X101284546Y-61823546D01*
X101291282Y-61814547D01*
X101347213Y-61772676D01*
X101416904Y-61767690D01*
X101478228Y-61801174D01*
X101478230Y-61801176D01*
X102199053Y-62521998D01*
X102755924Y-63078869D01*
X102823799Y-63146744D01*
X102846532Y-63169477D01*
X102953066Y-63240661D01*
X102953072Y-63240664D01*
X102953073Y-63240665D01*
X103071456Y-63289701D01*
X103071460Y-63289701D01*
X103071461Y-63289702D01*
X103197128Y-63314700D01*
X103197131Y-63314700D01*
X103324979Y-63314700D01*
X103392018Y-63334385D01*
X103437773Y-63387189D01*
X103441161Y-63395368D01*
X103468835Y-63469568D01*
X103473819Y-63539260D01*
X103440333Y-63600582D01*
X103379009Y-63634067D01*
X103352653Y-63636900D01*
X102882127Y-63636900D01*
X102882121Y-63636901D01*
X102822514Y-63643308D01*
X102687669Y-63693602D01*
X102687662Y-63693606D01*
X102572453Y-63779852D01*
X102572450Y-63779855D01*
X102486204Y-63895064D01*
X102486200Y-63895071D01*
X102435906Y-64029917D01*
X102429499Y-64089516D01*
X102429499Y-64089523D01*
X102429498Y-64089535D01*
X102429498Y-64530191D01*
X102409813Y-64597230D01*
X102393179Y-64617872D01*
X101774269Y-65236781D01*
X101712946Y-65270266D01*
X101686588Y-65273100D01*
X101407731Y-65273100D01*
X101407724Y-65273101D01*
X101348117Y-65279508D01*
X101213272Y-65329802D01*
X101213265Y-65329806D01*
X101098056Y-65416052D01*
X101098053Y-65416055D01*
X101011807Y-65531264D01*
X101011803Y-65531271D01*
X100961509Y-65666117D01*
X100955102Y-65725716D01*
X100955101Y-65725735D01*
X100955101Y-67116870D01*
X100955102Y-67116876D01*
X100961509Y-67176483D01*
X101011803Y-67311328D01*
X101011807Y-67311335D01*
X101098053Y-67426544D01*
X101098056Y-67426547D01*
X101213265Y-67512793D01*
X101213272Y-67512797D01*
X101348118Y-67563091D01*
X101348117Y-67563091D01*
X101355045Y-67563835D01*
X101407728Y-67569500D01*
X102316273Y-67569499D01*
X102375884Y-67563091D01*
X102510732Y-67512796D01*
X102549943Y-67483441D01*
X102615404Y-67459025D01*
X102665206Y-67465666D01*
X102716008Y-67483443D01*
X102789943Y-67509314D01*
X102957997Y-67528249D01*
X102958000Y-67528249D01*
X102958003Y-67528249D01*
X103126056Y-67509314D01*
X103167492Y-67494815D01*
X103285690Y-67453456D01*
X103285692Y-67453454D01*
X103285694Y-67453454D01*
X103285697Y-67453452D01*
X103428884Y-67363481D01*
X103428885Y-67363480D01*
X103428890Y-67363477D01*
X103548477Y-67243890D01*
X103579304Y-67194828D01*
X103631638Y-67148537D01*
X103684298Y-67136800D01*
X103910613Y-67136800D01*
X103977652Y-67156485D01*
X104023407Y-67209289D01*
X104026795Y-67217467D01*
X104061802Y-67311328D01*
X104061806Y-67311335D01*
X104148052Y-67426544D01*
X104148055Y-67426547D01*
X104263264Y-67512793D01*
X104263271Y-67512797D01*
X104304701Y-67528249D01*
X104398117Y-67563091D01*
X104457727Y-67569500D01*
X104862662Y-67569499D01*
X104929701Y-67589183D01*
X104950343Y-67605818D01*
X106014796Y-68670272D01*
X106014797Y-68670273D01*
X106014800Y-68670275D01*
X106014802Y-68670277D01*
X106121344Y-68741465D01*
X106239727Y-68790501D01*
X106239731Y-68790501D01*
X106239732Y-68790502D01*
X106365399Y-68815500D01*
X106365402Y-68815500D01*
X110601938Y-68815500D01*
X110645273Y-68823319D01*
X110679511Y-68836089D01*
X110679517Y-68836091D01*
X110739127Y-68842500D01*
X111434872Y-68842499D01*
X111494483Y-68836091D01*
X111629331Y-68785796D01*
X111744546Y-68699546D01*
X111830796Y-68584331D01*
X111881091Y-68449483D01*
X111887500Y-68389873D01*
X111887499Y-67044128D01*
X111881091Y-66984517D01*
X111835318Y-66861792D01*
X111827500Y-66818459D01*
X111827500Y-66360591D01*
X111847185Y-66293552D01*
X111892076Y-66251757D01*
X111899323Y-66247798D01*
X111899331Y-66247796D01*
X112014546Y-66161546D01*
X112100796Y-66046331D01*
X112151091Y-65911483D01*
X112157500Y-65851873D01*
X112157499Y-64366128D01*
X112151091Y-64306517D01*
X112123595Y-64232797D01*
X112100797Y-64171671D01*
X112100793Y-64171664D01*
X112014547Y-64056455D01*
X112014544Y-64056452D01*
X111899335Y-63970206D01*
X111899328Y-63970202D01*
X111764482Y-63919908D01*
X111764483Y-63919908D01*
X111704883Y-63913501D01*
X111704881Y-63913500D01*
X111704873Y-63913500D01*
X111704865Y-63913500D01*
X110674808Y-63913500D01*
X110607769Y-63893815D01*
X110587127Y-63877181D01*
X110115818Y-63405872D01*
X110082333Y-63344549D01*
X110079499Y-63318191D01*
X110079499Y-62521998D01*
X111360437Y-62521998D01*
X111360437Y-62522001D01*
X111380650Y-62753044D01*
X111380651Y-62753051D01*
X111440678Y-62977074D01*
X111440679Y-62977076D01*
X111440680Y-62977079D01*
X111538699Y-63187282D01*
X111671730Y-63377269D01*
X111835731Y-63541270D01*
X112025718Y-63674301D01*
X112235921Y-63772320D01*
X112459950Y-63832349D01*
X112624985Y-63846787D01*
X112690998Y-63852563D01*
X112691000Y-63852563D01*
X112691002Y-63852563D01*
X112757009Y-63846788D01*
X112922050Y-63832349D01*
X113146079Y-63772320D01*
X113356282Y-63674301D01*
X113546269Y-63541270D01*
X113710270Y-63377269D01*
X113843301Y-63187282D01*
X113941320Y-62977079D01*
X114001349Y-62753050D01*
X114021563Y-62522000D01*
X114001349Y-62290950D01*
X113941320Y-62066921D01*
X113843301Y-61856719D01*
X113843299Y-61856716D01*
X113843298Y-61856714D01*
X113710273Y-61666735D01*
X113710268Y-61666729D01*
X113546269Y-61502730D01*
X113546263Y-61502726D01*
X113356282Y-61369699D01*
X113146079Y-61271680D01*
X113146076Y-61271679D01*
X113146074Y-61271678D01*
X112922051Y-61211651D01*
X112922044Y-61211650D01*
X112691002Y-61191437D01*
X112690998Y-61191437D01*
X112459955Y-61211650D01*
X112459948Y-61211651D01*
X112235917Y-61271681D01*
X112025718Y-61369699D01*
X112025714Y-61369701D01*
X111835735Y-61502726D01*
X111835729Y-61502731D01*
X111671731Y-61666729D01*
X111671726Y-61666735D01*
X111538701Y-61856714D01*
X111538699Y-61856718D01*
X111440681Y-62066917D01*
X111380651Y-62290948D01*
X111380650Y-62290955D01*
X111360437Y-62521998D01*
X110079499Y-62521998D01*
X110079499Y-62351129D01*
X110079498Y-62351123D01*
X110076468Y-62322938D01*
X110073091Y-62291517D01*
X110072881Y-62290955D01*
X110022797Y-62156671D01*
X110022793Y-62156664D01*
X109936547Y-62041455D01*
X109936544Y-62041452D01*
X109821335Y-61955206D01*
X109821328Y-61955202D01*
X109686483Y-61904908D01*
X109662241Y-61902302D01*
X109597690Y-61875563D01*
X109557844Y-61818169D01*
X109551499Y-61779013D01*
X109551499Y-61205508D01*
X109571184Y-61138469D01*
X109572398Y-61136616D01*
X109605463Y-61087131D01*
X109605463Y-61087129D01*
X109605466Y-61087126D01*
X109637978Y-61008634D01*
X109654501Y-60968744D01*
X109679500Y-60843069D01*
X109679500Y-60598591D01*
X109699185Y-60531552D01*
X109744076Y-60489757D01*
X109751323Y-60485798D01*
X109751331Y-60485796D01*
X109866546Y-60399546D01*
X109952796Y-60284331D01*
X110003091Y-60149483D01*
X110009500Y-60089873D01*
X110009499Y-58604128D01*
X110003091Y-58544517D01*
X109987428Y-58502523D01*
X109952797Y-58409671D01*
X109952793Y-58409664D01*
X109866547Y-58294455D01*
X109866544Y-58294452D01*
X109751335Y-58208206D01*
X109751328Y-58208202D01*
X109616482Y-58157908D01*
X109616483Y-58157908D01*
X109556883Y-58151501D01*
X109556881Y-58151500D01*
X109556873Y-58151500D01*
X109556865Y-58151500D01*
X108804808Y-58151500D01*
X108737769Y-58131815D01*
X108717126Y-58115180D01*
X108681673Y-58079727D01*
X108681673Y-58079726D01*
X108666370Y-58069501D01*
X108575127Y-58008535D01*
X108456744Y-57959499D01*
X108456738Y-57959497D01*
X108331071Y-57934500D01*
X108331069Y-57934500D01*
X107202231Y-57934500D01*
X107135192Y-57914815D01*
X107127920Y-57909767D01*
X107036331Y-57841204D01*
X107036328Y-57841202D01*
X106901482Y-57790908D01*
X106901483Y-57790908D01*
X106841883Y-57784501D01*
X106841881Y-57784500D01*
X106841873Y-57784500D01*
X106841864Y-57784500D01*
X105496129Y-57784500D01*
X105496123Y-57784501D01*
X105436516Y-57790908D01*
X105301671Y-57841202D01*
X105301668Y-57841204D01*
X105243476Y-57884767D01*
X105178011Y-57909184D01*
X105169165Y-57909500D01*
X103830231Y-57909500D01*
X103763192Y-57889815D01*
X103755920Y-57884767D01*
X103664331Y-57816204D01*
X103664328Y-57816202D01*
X103529482Y-57765908D01*
X103529483Y-57765908D01*
X103469883Y-57759501D01*
X103469881Y-57759500D01*
X103469873Y-57759500D01*
X103469865Y-57759500D01*
X102216806Y-57759500D01*
X102149767Y-57739815D01*
X102104012Y-57687011D01*
X102094068Y-57617853D01*
X102123093Y-57554297D01*
X102129102Y-57547842D01*
X102617327Y-57059619D01*
X102678650Y-57026134D01*
X102705008Y-57023300D01*
X103239375Y-57023300D01*
X103306414Y-57042985D01*
X103352169Y-57095789D01*
X103355549Y-57103947D01*
X103362704Y-57123131D01*
X103362705Y-57123132D01*
X103362706Y-57123135D01*
X103448952Y-57238344D01*
X103448955Y-57238347D01*
X103564164Y-57324593D01*
X103564171Y-57324597D01*
X103699017Y-57374891D01*
X103699016Y-57374891D01*
X103705944Y-57375635D01*
X103758627Y-57381300D01*
X105251372Y-57381299D01*
X105310983Y-57374891D01*
X105445831Y-57324596D01*
X105561046Y-57238346D01*
X105647296Y-57123131D01*
X105654444Y-57103964D01*
X105696314Y-57048034D01*
X105761778Y-57023616D01*
X105770625Y-57023300D01*
X109644271Y-57023300D01*
X109728815Y-57006482D01*
X109769944Y-56998301D01*
X109888327Y-56949265D01*
X109994869Y-56878077D01*
X110513161Y-56359784D01*
X110574482Y-56326301D01*
X110644173Y-56331285D01*
X110700107Y-56373156D01*
X110717022Y-56404134D01*
X110743202Y-56474328D01*
X110743206Y-56474335D01*
X110829452Y-56589544D01*
X110829455Y-56589547D01*
X110944664Y-56675793D01*
X110944671Y-56675797D01*
X111079517Y-56726091D01*
X111079516Y-56726091D01*
X111086444Y-56726835D01*
X111139127Y-56732500D01*
X112194872Y-56732499D01*
X112254483Y-56726091D01*
X112389331Y-56675796D01*
X112504546Y-56589546D01*
X112590796Y-56474331D01*
X112641091Y-56339483D01*
X112647500Y-56279873D01*
X112647499Y-54794128D01*
X112641091Y-54734517D01*
X112625055Y-54691523D01*
X112590797Y-54599671D01*
X112590793Y-54599664D01*
X112504547Y-54484455D01*
X112504544Y-54484452D01*
X112389335Y-54398206D01*
X112389328Y-54398202D01*
X112254482Y-54347908D01*
X112254483Y-54347908D01*
X112194883Y-54341501D01*
X112194881Y-54341500D01*
X112194873Y-54341500D01*
X112194864Y-54341500D01*
X111139129Y-54341500D01*
X111139123Y-54341501D01*
X111079516Y-54347908D01*
X110944671Y-54398202D01*
X110944664Y-54398206D01*
X110829455Y-54484452D01*
X110792164Y-54534267D01*
X110736230Y-54576137D01*
X110666539Y-54581121D01*
X110605216Y-54547635D01*
X110571732Y-54486312D01*
X110568898Y-54459955D01*
X110568898Y-53479029D01*
X110568897Y-53479023D01*
X110564509Y-53438204D01*
X110562921Y-53423426D01*
X110562490Y-53419416D01*
X110512196Y-53284571D01*
X110512192Y-53284564D01*
X110425946Y-53169355D01*
X110425943Y-53169352D01*
X110310734Y-53083106D01*
X110310727Y-53083102D01*
X110175881Y-53032808D01*
X110175882Y-53032808D01*
X110116282Y-53026401D01*
X110116280Y-53026400D01*
X110116272Y-53026400D01*
X110116264Y-53026400D01*
X109742897Y-53026400D01*
X109675858Y-53006715D01*
X109630103Y-52953911D01*
X109618897Y-52902400D01*
X109618897Y-51713729D01*
X109618896Y-51713723D01*
X109618895Y-51713716D01*
X109612489Y-51654117D01*
X109593170Y-51602321D01*
X109562195Y-51519271D01*
X109562191Y-51519264D01*
X109475945Y-51404055D01*
X109475942Y-51404052D01*
X109360733Y-51317806D01*
X109360726Y-51317802D01*
X109225884Y-51267510D01*
X109225883Y-51267509D01*
X109225881Y-51267509D01*
X109166271Y-51261100D01*
X109166261Y-51261100D01*
X108511727Y-51261100D01*
X108511721Y-51261101D01*
X108452114Y-51267508D01*
X108317269Y-51317802D01*
X108317262Y-51317806D01*
X108202053Y-51404052D01*
X108202050Y-51404055D01*
X108115804Y-51519264D01*
X108115800Y-51519271D01*
X108065506Y-51654117D01*
X108059099Y-51713716D01*
X108059099Y-51713723D01*
X108059098Y-51713735D01*
X108059098Y-53130270D01*
X108059099Y-53130276D01*
X108065506Y-53189883D01*
X108115800Y-53324728D01*
X108115802Y-53324731D01*
X108140679Y-53357962D01*
X108165097Y-53423426D01*
X108150246Y-53491699D01*
X108129094Y-53519955D01*
X107953869Y-53695181D01*
X107892546Y-53728666D01*
X107866188Y-53731500D01*
X107790141Y-53731500D01*
X107723102Y-53711815D01*
X107677347Y-53659011D01*
X107673969Y-53650859D01*
X107669796Y-53639669D01*
X107669793Y-53639665D01*
X107669793Y-53639664D01*
X107583547Y-53524455D01*
X107583544Y-53524452D01*
X107468335Y-53438206D01*
X107468328Y-53438202D01*
X107333482Y-53387908D01*
X107333483Y-53387908D01*
X107273883Y-53381501D01*
X107273881Y-53381500D01*
X107273873Y-53381500D01*
X107273864Y-53381500D01*
X105728129Y-53381500D01*
X105728123Y-53381501D01*
X105668516Y-53387908D01*
X105533671Y-53438202D01*
X105533668Y-53438204D01*
X105466649Y-53488375D01*
X105401185Y-53512792D01*
X105349005Y-53505290D01*
X105310982Y-53491108D01*
X105310983Y-53491108D01*
X105251383Y-53484701D01*
X105251381Y-53484700D01*
X105251373Y-53484700D01*
X105251364Y-53484700D01*
X103758629Y-53484700D01*
X103758623Y-53484701D01*
X103699016Y-53491108D01*
X103564171Y-53541402D01*
X103564164Y-53541406D01*
X103448955Y-53627652D01*
X103448952Y-53627655D01*
X103362706Y-53742864D01*
X103362702Y-53742871D01*
X103312408Y-53877717D01*
X103306001Y-53937316D01*
X103306000Y-53937335D01*
X103306000Y-55049070D01*
X103306001Y-55049076D01*
X103312408Y-55108683D01*
X103362702Y-55243528D01*
X103362704Y-55243531D01*
X103448911Y-55358689D01*
X103473328Y-55424153D01*
X103458476Y-55492426D01*
X103448911Y-55507311D01*
X103362708Y-55622464D01*
X103362704Y-55622469D01*
X103355555Y-55641635D01*
X103313686Y-55697566D01*
X103248222Y-55721984D01*
X103239375Y-55722300D01*
X102484500Y-55722300D01*
X102417461Y-55702615D01*
X102371706Y-55649811D01*
X102360500Y-55598300D01*
X102360500Y-52366808D01*
X102380185Y-52299769D01*
X102396819Y-52279127D01*
X103251127Y-51424819D01*
X103312450Y-51391334D01*
X103338808Y-51388500D01*
X107078071Y-51388500D01*
X107164693Y-51371269D01*
X107203744Y-51363501D01*
X107322127Y-51314465D01*
X107428669Y-51243277D01*
X109313276Y-49358669D01*
X109384465Y-49252127D01*
X109433501Y-49133744D01*
X109444033Y-49080796D01*
X109458500Y-49008069D01*
X109458500Y-48514087D01*
X109477506Y-48448115D01*
X109488456Y-48430690D01*
X109544313Y-48271059D01*
X109563249Y-48103000D01*
X109561883Y-48090873D01*
X109544314Y-47934943D01*
X109488454Y-47775305D01*
X109488452Y-47775302D01*
X109398481Y-47632115D01*
X109398476Y-47632109D01*
X109278890Y-47512523D01*
X109278884Y-47512518D01*
X109135697Y-47422547D01*
X109135694Y-47422545D01*
X108976056Y-47366685D01*
X108808003Y-47347751D01*
X108807997Y-47347751D01*
X108639943Y-47366685D01*
X108480305Y-47422545D01*
X108480302Y-47422547D01*
X108337115Y-47512518D01*
X108337109Y-47512523D01*
X108217523Y-47632109D01*
X108217518Y-47632115D01*
X108127547Y-47775302D01*
X108127545Y-47775305D01*
X108071685Y-47934943D01*
X108052751Y-48102997D01*
X108052751Y-48103002D01*
X108071686Y-48271057D01*
X108127542Y-48430687D01*
X108127544Y-48430690D01*
X108138493Y-48448115D01*
X108157500Y-48514087D01*
X108157500Y-48623192D01*
X108137815Y-48690231D01*
X108121181Y-48710873D01*
X106780873Y-50051181D01*
X106719550Y-50084666D01*
X106693192Y-50087500D01*
X102953929Y-50087500D01*
X102828261Y-50112497D01*
X102828255Y-50112499D01*
X102709870Y-50161535D01*
X102603331Y-50232722D01*
X102603324Y-50232728D01*
X101416424Y-51419628D01*
X101355101Y-51453113D01*
X101285409Y-51448129D01*
X101229476Y-51406257D01*
X101219909Y-51391370D01*
X101216794Y-51385665D01*
X101130547Y-51270455D01*
X101130544Y-51270452D01*
X101015335Y-51184206D01*
X101015328Y-51184202D01*
X100880482Y-51133908D01*
X100880483Y-51133908D01*
X100820883Y-51127501D01*
X100820881Y-51127500D01*
X100820873Y-51127500D01*
X100820865Y-51127500D01*
X99368808Y-51127500D01*
X99301769Y-51107815D01*
X99281127Y-51091181D01*
X99050674Y-50860727D01*
X99050673Y-50860726D01*
X99050669Y-50860723D01*
X98944127Y-50789535D01*
X98825744Y-50740499D01*
X98825738Y-50740497D01*
X98700071Y-50715500D01*
X98700069Y-50715500D01*
X98495088Y-50715500D01*
X98429117Y-50696494D01*
X98420168Y-50690871D01*
X98411690Y-50685544D01*
X98411689Y-50685543D01*
X98411688Y-50685543D01*
X98252057Y-50629686D01*
X98084003Y-50610751D01*
X98083997Y-50610751D01*
X97915943Y-50629685D01*
X97756305Y-50685545D01*
X97756302Y-50685547D01*
X97613115Y-50775518D01*
X97613109Y-50775523D01*
X97493523Y-50895109D01*
X97493518Y-50895115D01*
X97403547Y-51038302D01*
X97403545Y-51038305D01*
X97347685Y-51197943D01*
X97328751Y-51365997D01*
X97328751Y-51366002D01*
X97347685Y-51534056D01*
X97403545Y-51693694D01*
X97403547Y-51693697D01*
X97493518Y-51836884D01*
X97493523Y-51836890D01*
X97613109Y-51956476D01*
X97613115Y-51956481D01*
X97756302Y-52046452D01*
X97756305Y-52046454D01*
X97756309Y-52046455D01*
X97756310Y-52046456D01*
X97915941Y-52102313D01*
X97915945Y-52102314D01*
X97962383Y-52107546D01*
X98026797Y-52134612D01*
X98066352Y-52192206D01*
X98072500Y-52230766D01*
X98072500Y-53225870D01*
X98072501Y-53225876D01*
X98078908Y-53285483D01*
X98129202Y-53420328D01*
X98129206Y-53420335D01*
X98215452Y-53535544D01*
X98215455Y-53535547D01*
X98330664Y-53621793D01*
X98330671Y-53621797D01*
X98465517Y-53672091D01*
X98465516Y-53672091D01*
X98472444Y-53672835D01*
X98525127Y-53678500D01*
X100820872Y-53678499D01*
X100880483Y-53672091D01*
X100892165Y-53667734D01*
X100961857Y-53662748D01*
X101023180Y-53696233D01*
X101056666Y-53757555D01*
X101059500Y-53783915D01*
X101059500Y-55465191D01*
X101039815Y-55532230D01*
X101023181Y-55552872D01*
X98207871Y-58368181D01*
X98146548Y-58401666D01*
X98120190Y-58404500D01*
X97368129Y-58404500D01*
X97368123Y-58404501D01*
X97308516Y-58410908D01*
X97173671Y-58461202D01*
X97173670Y-58461203D01*
X97151087Y-58478108D01*
X97085622Y-58502523D01*
X97063523Y-58502128D01*
X97005244Y-58495862D01*
X96940693Y-58469124D01*
X96900845Y-58411731D01*
X96894500Y-58372573D01*
X96894500Y-58095928D01*
X96869502Y-57970261D01*
X96869501Y-57970260D01*
X96869501Y-57970256D01*
X96820465Y-57851873D01*
X96813336Y-57841204D01*
X96804292Y-57827669D01*
X96749274Y-57745327D01*
X92419673Y-53415726D01*
X92419669Y-53415723D01*
X92313127Y-53344535D01*
X92194744Y-53295499D01*
X92194738Y-53295497D01*
X92069071Y-53270500D01*
X92069069Y-53270500D01*
X91081808Y-53270500D01*
X91014769Y-53250815D01*
X90969014Y-53198011D01*
X90959070Y-53128853D01*
X90988095Y-53065297D01*
X90994127Y-53058819D01*
X91236462Y-52816483D01*
X91357003Y-52695941D01*
X91403727Y-52666583D01*
X91512690Y-52628456D01*
X91512693Y-52628453D01*
X91512697Y-52628452D01*
X91655884Y-52538481D01*
X91655885Y-52538480D01*
X91655890Y-52538477D01*
X91775477Y-52418890D01*
X91775481Y-52418884D01*
X91865452Y-52275697D01*
X91865454Y-52275694D01*
X91865454Y-52275692D01*
X91865456Y-52275690D01*
X91921313Y-52116059D01*
X91921313Y-52116058D01*
X91921314Y-52116056D01*
X91940249Y-51948002D01*
X91940249Y-51947997D01*
X91921314Y-51779943D01*
X91880166Y-51662348D01*
X91865456Y-51620310D01*
X91865455Y-51620309D01*
X91865454Y-51620305D01*
X91865452Y-51620302D01*
X91775481Y-51477115D01*
X91775476Y-51477109D01*
X91655890Y-51357523D01*
X91655884Y-51357518D01*
X91512697Y-51267547D01*
X91512694Y-51267545D01*
X91353056Y-51211685D01*
X91185003Y-51192751D01*
X91184997Y-51192751D01*
X91016942Y-51211686D01*
X90927475Y-51242992D01*
X90857697Y-51246553D01*
X90797069Y-51211824D01*
X90770339Y-51169283D01*
X90735797Y-51076671D01*
X90735793Y-51076664D01*
X90649547Y-50961455D01*
X90649544Y-50961452D01*
X90534335Y-50875206D01*
X90534328Y-50875202D01*
X90399482Y-50824908D01*
X90399483Y-50824908D01*
X90339883Y-50818501D01*
X90339881Y-50818500D01*
X90339873Y-50818500D01*
X90339864Y-50818500D01*
X89284129Y-50818500D01*
X89284120Y-50818501D01*
X89223066Y-50825064D01*
X89154307Y-50812657D01*
X89103171Y-50765045D01*
X89085845Y-50704531D01*
X89077854Y-50344813D01*
X89085642Y-50298729D01*
X89089091Y-50289483D01*
X89095500Y-50229873D01*
X89095499Y-48993487D01*
X89115184Y-48926449D01*
X89167987Y-48880694D01*
X89221958Y-48869512D01*
X92874000Y-48942000D01*
X92873999Y-48941999D01*
X92921961Y-48942951D01*
X92988596Y-48963962D01*
X93033294Y-49017664D01*
X93043500Y-49066927D01*
X93043500Y-49860319D01*
X93024494Y-49926291D01*
X93012545Y-49945307D01*
X92956685Y-50104943D01*
X92937751Y-50272997D01*
X92937751Y-50273002D01*
X92956685Y-50441056D01*
X93012545Y-50600694D01*
X93012547Y-50600697D01*
X93102518Y-50743884D01*
X93102523Y-50743890D01*
X93222109Y-50863476D01*
X93222115Y-50863481D01*
X93365302Y-50953452D01*
X93365305Y-50953454D01*
X93365309Y-50953455D01*
X93365310Y-50953456D01*
X93388170Y-50961455D01*
X93524943Y-51009314D01*
X93692997Y-51028249D01*
X93693000Y-51028249D01*
X93693003Y-51028249D01*
X93861056Y-51009314D01*
X93861059Y-51009313D01*
X94020690Y-50953456D01*
X94020692Y-50953454D01*
X94020694Y-50953454D01*
X94020697Y-50953452D01*
X94163884Y-50863481D01*
X94163885Y-50863480D01*
X94163890Y-50863477D01*
X94283477Y-50743890D01*
X94320138Y-50685545D01*
X94373452Y-50600697D01*
X94373454Y-50600694D01*
X94373454Y-50600692D01*
X94373456Y-50600690D01*
X94429313Y-50441059D01*
X94429313Y-50441058D01*
X94429314Y-50441056D01*
X94448249Y-50273002D01*
X94448249Y-50272997D01*
X94429314Y-50104943D01*
X94410502Y-50051181D01*
X94373456Y-49945310D01*
X94363506Y-49929474D01*
X94344500Y-49863502D01*
X94344500Y-48638000D01*
X94364185Y-48570961D01*
X94416989Y-48525206D01*
X94425168Y-48521818D01*
X94519062Y-48486798D01*
X94519062Y-48486797D01*
X94519067Y-48486796D01*
X94634282Y-48400546D01*
X94720532Y-48285331D01*
X94770827Y-48150483D01*
X94777236Y-48090873D01*
X94777235Y-47648240D01*
X94796919Y-47581202D01*
X94813549Y-47560565D01*
X95148066Y-47226048D01*
X95194790Y-47196690D01*
X95303753Y-47158563D01*
X95303756Y-47158560D01*
X95303760Y-47158559D01*
X95446947Y-47068588D01*
X95446948Y-47068587D01*
X95446953Y-47068584D01*
X95566540Y-46948997D01*
X95572742Y-46939127D01*
X95656515Y-46805804D01*
X95656517Y-46805801D01*
X95656517Y-46805799D01*
X95656519Y-46805797D01*
X95712376Y-46646166D01*
X95712376Y-46646165D01*
X95712377Y-46646163D01*
X95731312Y-46478109D01*
X95731312Y-46471143D01*
X95733078Y-46471143D01*
X95743574Y-46411187D01*
X95790918Y-46359803D01*
X95855534Y-46342119D01*
X111416080Y-46441701D01*
G37*
%TD.AperFunction*%
%TD*%
%TA.AperFunction,Conductor*%
%TO.N,-4Vb*%
G36*
X89623694Y-63698284D02*
G01*
X89669449Y-63751088D01*
X89679393Y-63820246D01*
X89672837Y-63845931D01*
X89639910Y-63934214D01*
X89639909Y-63934216D01*
X89633502Y-63993816D01*
X89633502Y-63993823D01*
X89633501Y-63993835D01*
X89633501Y-65206324D01*
X89613816Y-65273363D01*
X89561012Y-65319118D01*
X89552837Y-65322505D01*
X89533264Y-65329805D01*
X89418054Y-65416052D01*
X89337505Y-65523650D01*
X89297628Y-65553500D01*
X89300524Y-65558804D01*
X89295540Y-65628493D01*
X89281508Y-65666114D01*
X89281507Y-65666116D01*
X89276367Y-65713932D01*
X89275100Y-65725723D01*
X89275099Y-65725735D01*
X89275099Y-67116870D01*
X89275100Y-67116876D01*
X89281507Y-67176483D01*
X89331801Y-67311328D01*
X89331805Y-67311335D01*
X89418051Y-67426544D01*
X89418054Y-67426547D01*
X89533263Y-67512793D01*
X89533270Y-67512797D01*
X89668116Y-67563091D01*
X89668115Y-67563091D01*
X89675043Y-67563835D01*
X89727726Y-67569500D01*
X90636271Y-67569499D01*
X90695882Y-67563091D01*
X90830730Y-67512796D01*
X90945945Y-67426546D01*
X91032195Y-67311331D01*
X91082490Y-67176483D01*
X91088899Y-67116873D01*
X91088898Y-65725728D01*
X91082490Y-65666117D01*
X91076002Y-65648723D01*
X91066702Y-65623788D01*
X91061717Y-65554096D01*
X91083622Y-65506136D01*
X91085797Y-65503231D01*
X91136092Y-65368383D01*
X91142501Y-65308773D01*
X91142500Y-64986806D01*
X91162184Y-64919769D01*
X91214988Y-64874014D01*
X91284147Y-64864070D01*
X91347702Y-64893095D01*
X91354181Y-64899127D01*
X91525181Y-65070127D01*
X91558666Y-65131450D01*
X91561500Y-65157808D01*
X91561500Y-65758069D01*
X91561500Y-65758071D01*
X91561499Y-65758071D01*
X91583466Y-65868497D01*
X91586497Y-65883738D01*
X91586500Y-65883747D01*
X91635532Y-66002123D01*
X91653964Y-66029709D01*
X91706723Y-66108669D01*
X92025182Y-66427127D01*
X92058666Y-66488449D01*
X92061500Y-66514807D01*
X92061500Y-67016870D01*
X92061501Y-67016876D01*
X92067908Y-67076483D01*
X92118202Y-67211328D01*
X92118206Y-67211335D01*
X92204452Y-67326544D01*
X92204455Y-67326547D01*
X92319664Y-67412793D01*
X92319671Y-67412797D01*
X92329742Y-67416553D01*
X92454517Y-67463091D01*
X92514127Y-67469500D01*
X92965662Y-67469499D01*
X93032701Y-67489183D01*
X93053343Y-67505818D01*
X93527364Y-67979838D01*
X93998195Y-68450669D01*
X94056828Y-68509302D01*
X94088803Y-68541277D01*
X94195337Y-68612461D01*
X94195343Y-68612464D01*
X94195344Y-68612465D01*
X94313727Y-68661501D01*
X94313731Y-68661501D01*
X94313732Y-68661502D01*
X94439399Y-68686500D01*
X94439402Y-68686500D01*
X95064600Y-68686500D01*
X95149144Y-68669682D01*
X95190273Y-68661501D01*
X95308656Y-68612465D01*
X95415198Y-68541277D01*
X96274277Y-67682198D01*
X96345465Y-67575656D01*
X96394501Y-67457273D01*
X96396983Y-67444797D01*
X96400613Y-67426547D01*
X96419500Y-67331600D01*
X96419500Y-67126688D01*
X96439185Y-67059649D01*
X96491989Y-67013894D01*
X96545269Y-67002701D01*
X96863155Y-67007244D01*
X96929905Y-67027884D01*
X96974901Y-67081337D01*
X96985380Y-67131856D01*
X96967622Y-70654497D01*
X96947600Y-70721436D01*
X96894566Y-70766925D01*
X96843496Y-70777872D01*
X77659826Y-70758127D01*
X77592807Y-70738373D01*
X77547107Y-70685522D01*
X77535954Y-70634173D01*
X77533708Y-64534273D01*
X77553367Y-64467230D01*
X77606154Y-64421456D01*
X77675309Y-64411487D01*
X77701040Y-64418049D01*
X77708404Y-64420795D01*
X77708405Y-64420796D01*
X77818847Y-64461988D01*
X77843253Y-64471091D01*
X77843251Y-64471091D01*
X77884492Y-64475525D01*
X77949043Y-64502263D01*
X77988891Y-64559655D01*
X77995236Y-64598814D01*
X77995236Y-65467647D01*
X77976231Y-65533618D01*
X77965280Y-65551046D01*
X77909421Y-65710679D01*
X77890487Y-65878733D01*
X77890487Y-65878738D01*
X77909421Y-66046792D01*
X77965281Y-66206430D01*
X77965283Y-66206433D01*
X78055254Y-66349620D01*
X78055259Y-66349626D01*
X78174845Y-66469212D01*
X78174851Y-66469217D01*
X78318038Y-66559188D01*
X78318043Y-66559191D01*
X78318046Y-66559192D01*
X78427007Y-66597318D01*
X78473733Y-66626679D01*
X78851181Y-67004127D01*
X78884666Y-67065450D01*
X78887500Y-67091808D01*
X78887500Y-67843870D01*
X78887501Y-67843876D01*
X78893908Y-67903483D01*
X78944202Y-68038328D01*
X78944206Y-68038335D01*
X79030452Y-68153544D01*
X79030455Y-68153547D01*
X79145664Y-68239793D01*
X79145671Y-68239797D01*
X79163705Y-68246523D01*
X79280517Y-68290091D01*
X79340127Y-68296500D01*
X79837191Y-68296499D01*
X79904230Y-68316183D01*
X79924872Y-68332818D01*
X80934324Y-69342271D01*
X80934327Y-69342274D01*
X80985227Y-69376284D01*
X81040866Y-69413461D01*
X81040872Y-69413464D01*
X81040873Y-69413465D01*
X81159256Y-69462501D01*
X81159260Y-69462501D01*
X81159261Y-69462502D01*
X81284928Y-69487500D01*
X81284931Y-69487500D01*
X83239912Y-69487500D01*
X83305883Y-69506506D01*
X83323310Y-69517456D01*
X83482941Y-69573313D01*
X83524955Y-69578047D01*
X83650997Y-69592249D01*
X83651000Y-69592249D01*
X83651003Y-69592249D01*
X83819056Y-69573314D01*
X83819059Y-69573313D01*
X83978690Y-69517456D01*
X83978692Y-69517454D01*
X83978694Y-69517454D01*
X83978697Y-69517452D01*
X84121884Y-69427481D01*
X84121885Y-69427480D01*
X84121890Y-69427477D01*
X84241477Y-69307890D01*
X84331452Y-69164697D01*
X84331454Y-69164694D01*
X84331454Y-69164692D01*
X84331456Y-69164690D01*
X84387313Y-69005059D01*
X84387313Y-69005058D01*
X84387314Y-69005056D01*
X84406249Y-68837002D01*
X84406249Y-68836997D01*
X84387314Y-68668943D01*
X84331454Y-68509305D01*
X84331452Y-68509302D01*
X84241481Y-68366115D01*
X84241476Y-68366109D01*
X84121890Y-68246523D01*
X84121884Y-68246518D01*
X83978697Y-68156547D01*
X83978694Y-68156545D01*
X83819056Y-68100685D01*
X83651003Y-68081751D01*
X83650997Y-68081751D01*
X83482942Y-68100686D01*
X83323311Y-68156543D01*
X83305883Y-68167494D01*
X83239912Y-68186500D01*
X81669808Y-68186500D01*
X81602769Y-68166815D01*
X81582127Y-68150181D01*
X80884818Y-67452872D01*
X80851333Y-67391549D01*
X80848499Y-67365191D01*
X80848499Y-66836808D01*
X80868184Y-66769769D01*
X80884818Y-66749127D01*
X81484127Y-66149819D01*
X81545450Y-66116334D01*
X81571808Y-66113500D01*
X82754071Y-66113500D01*
X82838615Y-66096682D01*
X82879744Y-66088501D01*
X82998127Y-66039465D01*
X82998127Y-66039464D01*
X83003648Y-66037178D01*
X83073118Y-66029709D01*
X83135597Y-66060984D01*
X83171249Y-66121073D01*
X83175101Y-66151739D01*
X83175101Y-67116870D01*
X83175102Y-67116876D01*
X83181509Y-67176483D01*
X83231803Y-67311328D01*
X83231807Y-67311335D01*
X83318053Y-67426544D01*
X83318056Y-67426547D01*
X83433265Y-67512793D01*
X83433272Y-67512797D01*
X83568118Y-67563091D01*
X83568117Y-67563091D01*
X83575045Y-67563835D01*
X83627728Y-67569500D01*
X84536273Y-67569499D01*
X84595884Y-67563091D01*
X84730732Y-67512796D01*
X84845947Y-67426546D01*
X84932197Y-67311331D01*
X84982492Y-67176483D01*
X84988901Y-67116873D01*
X84988900Y-66485706D01*
X85008584Y-66418668D01*
X85025214Y-66398031D01*
X86085128Y-65338119D01*
X86146451Y-65304634D01*
X86172809Y-65301800D01*
X87528979Y-65301800D01*
X87596018Y-65321485D01*
X87641773Y-65374289D01*
X87645161Y-65382467D01*
X87690201Y-65503228D01*
X87690205Y-65503235D01*
X87776451Y-65618444D01*
X87776454Y-65618447D01*
X87891663Y-65704693D01*
X87891670Y-65704697D01*
X87925265Y-65717227D01*
X88026516Y-65754991D01*
X88086126Y-65761400D01*
X88689871Y-65761399D01*
X88749482Y-65754991D01*
X88884330Y-65704696D01*
X88999545Y-65618446D01*
X89080091Y-65510849D01*
X89119968Y-65480998D01*
X89117072Y-65475694D01*
X89122057Y-65406005D01*
X89136090Y-65368383D01*
X89142499Y-65308773D01*
X89142498Y-63993828D01*
X89136090Y-63934217D01*
X89117333Y-63883928D01*
X89103162Y-63845932D01*
X89098178Y-63776240D01*
X89131663Y-63714917D01*
X89192986Y-63681433D01*
X89219336Y-63678599D01*
X89556655Y-63678599D01*
X89623694Y-63698284D01*
G37*
%TD.AperFunction*%
%TA.AperFunction,Conductor*%
G36*
X87328995Y-60367728D02*
G01*
X87345956Y-60381903D01*
X87639324Y-60675271D01*
X87639331Y-60675277D01*
X87740962Y-60743184D01*
X87740963Y-60743184D01*
X87745873Y-60746465D01*
X87864256Y-60795501D01*
X87864260Y-60795501D01*
X87864261Y-60795502D01*
X87989928Y-60820500D01*
X87989931Y-60820500D01*
X89160769Y-60820500D01*
X89227808Y-60840185D01*
X89235080Y-60845233D01*
X89284585Y-60882292D01*
X89326669Y-60913796D01*
X89326670Y-60913796D01*
X89326673Y-60913798D01*
X89392493Y-60938347D01*
X89448427Y-60980217D01*
X89472845Y-61045682D01*
X89457994Y-61113955D01*
X89436842Y-61142210D01*
X89155744Y-61423309D01*
X89094421Y-61456794D01*
X89081317Y-61458918D01*
X89026516Y-61464809D01*
X88891671Y-61515102D01*
X88891664Y-61515106D01*
X88776455Y-61601352D01*
X88776452Y-61601355D01*
X88690206Y-61716564D01*
X88690202Y-61716571D01*
X88639908Y-61851417D01*
X88633501Y-61911016D01*
X88633500Y-61911035D01*
X88633500Y-63225970D01*
X88633501Y-63225976D01*
X88639909Y-63285584D01*
X88672836Y-63373868D01*
X88677820Y-63443559D01*
X88644334Y-63504882D01*
X88583011Y-63538366D01*
X88556654Y-63541200D01*
X88086128Y-63541200D01*
X88086122Y-63541201D01*
X88026515Y-63547608D01*
X87891670Y-63597902D01*
X87891663Y-63597906D01*
X87776454Y-63684152D01*
X87776451Y-63684155D01*
X87690205Y-63799364D01*
X87690201Y-63799371D01*
X87645161Y-63920133D01*
X87603290Y-63976067D01*
X87537826Y-64000484D01*
X87528979Y-64000800D01*
X85825529Y-64000800D01*
X85758490Y-63981115D01*
X85737848Y-63964481D01*
X85645890Y-63872523D01*
X85645884Y-63872518D01*
X85502690Y-63782543D01*
X85393727Y-63744415D01*
X85347000Y-63715054D01*
X85288707Y-63656760D01*
X85255223Y-63595437D01*
X85259347Y-63528126D01*
X85293313Y-63431059D01*
X85308256Y-63298437D01*
X85312249Y-63263002D01*
X85312249Y-63262997D01*
X85293314Y-63094943D01*
X85235156Y-62928738D01*
X85236366Y-62928314D01*
X85226195Y-62866570D01*
X85244275Y-62815727D01*
X85270075Y-62774669D01*
X85289120Y-62744360D01*
X85289120Y-62744358D01*
X85289122Y-62744356D01*
X85302128Y-62707183D01*
X85331487Y-62660457D01*
X85723127Y-62268818D01*
X85784450Y-62235333D01*
X85810808Y-62232499D01*
X86687871Y-62232499D01*
X86687872Y-62232499D01*
X86747483Y-62226091D01*
X86882331Y-62175796D01*
X86997546Y-62089546D01*
X87083796Y-61974331D01*
X87134091Y-61839483D01*
X87140500Y-61779873D01*
X87140499Y-60534128D01*
X87134985Y-60482836D01*
X87147391Y-60414079D01*
X87195002Y-60362942D01*
X87262701Y-60345663D01*
X87328995Y-60367728D01*
G37*
%TD.AperFunction*%
%TA.AperFunction,Conductor*%
G36*
X80545084Y-51782268D02*
G01*
X80577312Y-51844261D01*
X80570907Y-51913836D01*
X80570194Y-51915594D01*
X80528500Y-52016251D01*
X80528497Y-52016263D01*
X80503501Y-52141926D01*
X80503501Y-52270073D01*
X80522743Y-52366808D01*
X80528499Y-52395744D01*
X80577535Y-52514127D01*
X80648723Y-52620669D01*
X80648726Y-52620673D01*
X80695823Y-52667770D01*
X80724323Y-52712116D01*
X80763941Y-52818333D01*
X80763941Y-52818334D01*
X80850188Y-52933544D01*
X80850191Y-52933547D01*
X80928876Y-52992451D01*
X80970747Y-53048384D01*
X80975731Y-53118076D01*
X80942245Y-53179399D01*
X80902019Y-53206278D01*
X80845873Y-53229535D01*
X80845866Y-53229538D01*
X80739331Y-53300723D01*
X80739327Y-53300726D01*
X80648726Y-53391327D01*
X80648723Y-53391331D01*
X80577538Y-53497866D01*
X80577533Y-53497875D01*
X80528499Y-53616255D01*
X80528497Y-53616261D01*
X80503500Y-53741928D01*
X80503500Y-54228191D01*
X80483815Y-54295230D01*
X80467181Y-54315872D01*
X79840996Y-54942056D01*
X79794271Y-54971416D01*
X79685308Y-55009544D01*
X79685300Y-55009548D01*
X79542115Y-55099518D01*
X79542109Y-55099523D01*
X79422523Y-55219109D01*
X79422518Y-55219115D01*
X79332547Y-55362302D01*
X79332545Y-55362305D01*
X79276685Y-55521943D01*
X79257751Y-55689997D01*
X79257751Y-55690002D01*
X79276685Y-55858056D01*
X79332545Y-56017694D01*
X79332547Y-56017697D01*
X79422518Y-56160884D01*
X79422523Y-56160890D01*
X79542109Y-56280476D01*
X79542115Y-56280481D01*
X79685302Y-56370452D01*
X79685305Y-56370454D01*
X79685309Y-56370455D01*
X79685310Y-56370456D01*
X79757913Y-56395860D01*
X79844943Y-56426314D01*
X80012997Y-56445249D01*
X80013000Y-56445249D01*
X80013003Y-56445249D01*
X80181056Y-56426314D01*
X80197526Y-56420551D01*
X80340690Y-56370456D01*
X80461029Y-56294841D01*
X80528263Y-56275841D01*
X80595099Y-56296208D01*
X80640313Y-56349475D01*
X80651000Y-56399835D01*
X80651000Y-56835070D01*
X80651001Y-56835076D01*
X80657408Y-56894683D01*
X80707702Y-57029528D01*
X80707706Y-57029535D01*
X80793952Y-57144744D01*
X80793955Y-57144747D01*
X80909164Y-57230993D01*
X80909171Y-57230997D01*
X81044017Y-57281291D01*
X81044016Y-57281291D01*
X81050944Y-57282035D01*
X81103627Y-57287700D01*
X82596372Y-57287699D01*
X82655983Y-57281291D01*
X82790831Y-57230996D01*
X82795087Y-57227810D01*
X82825450Y-57205081D01*
X82890914Y-57180663D01*
X82959187Y-57195514D01*
X83008593Y-57244919D01*
X83015943Y-57261014D01*
X83045301Y-57339728D01*
X83045305Y-57339735D01*
X83131551Y-57454944D01*
X83131554Y-57454947D01*
X83246763Y-57541193D01*
X83246770Y-57541197D01*
X83291717Y-57557961D01*
X83381616Y-57591491D01*
X83441226Y-57597900D01*
X84095771Y-57597899D01*
X84155382Y-57591491D01*
X84290230Y-57541196D01*
X84405445Y-57454946D01*
X84491695Y-57339731D01*
X84541990Y-57204883D01*
X84548399Y-57145273D01*
X84548398Y-55728728D01*
X84541990Y-55669117D01*
X84531763Y-55641696D01*
X84526778Y-55572005D01*
X84560259Y-55510685D01*
X84806321Y-55264624D01*
X84867643Y-55231140D01*
X84937335Y-55236124D01*
X84993268Y-55277996D01*
X85017685Y-55343460D01*
X85018001Y-55352306D01*
X85018001Y-55395887D01*
X84998316Y-55462926D01*
X84993268Y-55470197D01*
X84945307Y-55534265D01*
X84945303Y-55534271D01*
X84895009Y-55669117D01*
X84888602Y-55728716D01*
X84888602Y-55728723D01*
X84888601Y-55728735D01*
X84888601Y-57145270D01*
X84888602Y-57145276D01*
X84895009Y-57204883D01*
X84945303Y-57339728D01*
X84945307Y-57339735D01*
X85031553Y-57454944D01*
X85031556Y-57454947D01*
X85146765Y-57541193D01*
X85146772Y-57541197D01*
X85191719Y-57557961D01*
X85281618Y-57591491D01*
X85341228Y-57597900D01*
X85566500Y-57597899D01*
X85633539Y-57617583D01*
X85679294Y-57670387D01*
X85690500Y-57721899D01*
X85690500Y-58112069D01*
X85690500Y-58112071D01*
X85690499Y-58112071D01*
X85712778Y-58224066D01*
X85715497Y-58237739D01*
X85715498Y-58237743D01*
X85715499Y-58237744D01*
X85764535Y-58356127D01*
X85824299Y-58445571D01*
X85835726Y-58462673D01*
X85835727Y-58462674D01*
X86380181Y-59007127D01*
X86413666Y-59068450D01*
X86416500Y-59094808D01*
X86416500Y-59591870D01*
X86416501Y-59591876D01*
X86422908Y-59651483D01*
X86473202Y-59786328D01*
X86473203Y-59786329D01*
X86473204Y-59786331D01*
X86524280Y-59854559D01*
X86545712Y-59883189D01*
X86570129Y-59948653D01*
X86555278Y-60016926D01*
X86505873Y-60066332D01*
X86446445Y-60081500D01*
X85142129Y-60081500D01*
X85142123Y-60081501D01*
X85082516Y-60087908D01*
X84947671Y-60138202D01*
X84947664Y-60138206D01*
X84832455Y-60224452D01*
X84832452Y-60224455D01*
X84746206Y-60339664D01*
X84746202Y-60339671D01*
X84701681Y-60459039D01*
X84659810Y-60514973D01*
X84594345Y-60539390D01*
X84526072Y-60524538D01*
X84476667Y-60475133D01*
X84461499Y-60415706D01*
X84461499Y-60039129D01*
X84461498Y-60039123D01*
X84461387Y-60038091D01*
X84455091Y-59979517D01*
X84454347Y-59977523D01*
X84404797Y-59844671D01*
X84404793Y-59844664D01*
X84318547Y-59729455D01*
X84318544Y-59729452D01*
X84203335Y-59643206D01*
X84203328Y-59643202D01*
X84068482Y-59592908D01*
X84068483Y-59592908D01*
X84008883Y-59586501D01*
X84008881Y-59586500D01*
X84008873Y-59586500D01*
X84008864Y-59586500D01*
X82463129Y-59586500D01*
X82463123Y-59586501D01*
X82403516Y-59592908D01*
X82268666Y-59643204D01*
X82264422Y-59645522D01*
X82196148Y-59660371D01*
X82145578Y-59645522D01*
X82141333Y-59643204D01*
X82006482Y-59592908D01*
X82006483Y-59592908D01*
X81946883Y-59586501D01*
X81946881Y-59586500D01*
X81946873Y-59586500D01*
X81946864Y-59586500D01*
X80401129Y-59586500D01*
X80401123Y-59586501D01*
X80341516Y-59592908D01*
X80206671Y-59643202D01*
X80206664Y-59643206D01*
X80091455Y-59729452D01*
X80008378Y-59840428D01*
X79952444Y-59882298D01*
X79882752Y-59887282D01*
X79868158Y-59883158D01*
X79721057Y-59831686D01*
X79553003Y-59812751D01*
X79552997Y-59812751D01*
X79384943Y-59831685D01*
X79225305Y-59887545D01*
X79225302Y-59887547D01*
X79082115Y-59977518D01*
X79082109Y-59977523D01*
X78962523Y-60097109D01*
X78962518Y-60097115D01*
X78872547Y-60240302D01*
X78872545Y-60240305D01*
X78816685Y-60399943D01*
X78797751Y-60567997D01*
X78797751Y-60568002D01*
X78816685Y-60736056D01*
X78872545Y-60895694D01*
X78872547Y-60895697D01*
X78962518Y-61038884D01*
X78962523Y-61038890D01*
X79082109Y-61158476D01*
X79082115Y-61158481D01*
X79225302Y-61248452D01*
X79225305Y-61248454D01*
X79225309Y-61248455D01*
X79225310Y-61248456D01*
X79256532Y-61259381D01*
X79384943Y-61304314D01*
X79552997Y-61323249D01*
X79553000Y-61323249D01*
X79553003Y-61323249D01*
X79721059Y-61304313D01*
X79721060Y-61304313D01*
X79849468Y-61259381D01*
X79919247Y-61255819D01*
X79979874Y-61290547D01*
X79999761Y-61322196D01*
X80000953Y-61321546D01*
X80005206Y-61329335D01*
X80091452Y-61444544D01*
X80096227Y-61449319D01*
X80129712Y-61510642D01*
X80124728Y-61580334D01*
X80096227Y-61624681D01*
X80091452Y-61629455D01*
X80005206Y-61744664D01*
X80005202Y-61744671D01*
X79954908Y-61879517D01*
X79948501Y-61939116D01*
X79948500Y-61939135D01*
X79948500Y-62621146D01*
X79928815Y-62688185D01*
X79876011Y-62733940D01*
X79806853Y-62743884D01*
X79743297Y-62714859D01*
X79725237Y-62695461D01*
X79698282Y-62659454D01*
X79698280Y-62659452D01*
X79698279Y-62659451D01*
X79583071Y-62573206D01*
X79583064Y-62573202D01*
X79448218Y-62522908D01*
X79448219Y-62522908D01*
X79388619Y-62516501D01*
X79388617Y-62516500D01*
X79388609Y-62516500D01*
X79388600Y-62516500D01*
X77902865Y-62516500D01*
X77902859Y-62516501D01*
X77843252Y-62522908D01*
X77700276Y-62576235D01*
X77630584Y-62581219D01*
X77569261Y-62547733D01*
X77535777Y-62486410D01*
X77532944Y-62460110D01*
X77532584Y-61482114D01*
X77552243Y-61415071D01*
X77605030Y-61369297D01*
X77670467Y-61358852D01*
X77771811Y-61370271D01*
X77771814Y-61370271D01*
X77771817Y-61370271D01*
X77939870Y-61351336D01*
X77939873Y-61351335D01*
X78099504Y-61295478D01*
X78099506Y-61295476D01*
X78099508Y-61295476D01*
X78099511Y-61295474D01*
X78242698Y-61205503D01*
X78242699Y-61205502D01*
X78242704Y-61205499D01*
X78362291Y-61085912D01*
X78367616Y-61077437D01*
X78452266Y-60942719D01*
X78452268Y-60942716D01*
X78452268Y-60942714D01*
X78452270Y-60942712D01*
X78508127Y-60783081D01*
X78508127Y-60783080D01*
X78508128Y-60783078D01*
X78527063Y-60615024D01*
X78527063Y-60615019D01*
X78508128Y-60446965D01*
X78494287Y-60407409D01*
X78452270Y-60287332D01*
X78441318Y-60269903D01*
X78422314Y-60203933D01*
X78422314Y-52199499D01*
X78441999Y-52132460D01*
X78494803Y-52086705D01*
X78546309Y-52075499D01*
X79815608Y-52075499D01*
X79875219Y-52069091D01*
X80010067Y-52018796D01*
X80125282Y-51932546D01*
X80187714Y-51849147D01*
X80243645Y-51807277D01*
X80273104Y-51800238D01*
X80274794Y-51800048D01*
X80414680Y-51751099D01*
X80484457Y-51747539D01*
X80545084Y-51782268D01*
G37*
%TD.AperFunction*%
%TA.AperFunction,Conductor*%
G36*
X84624926Y-61144461D02*
G01*
X84674332Y-61193866D01*
X84689500Y-61253294D01*
X84689500Y-61411191D01*
X84669815Y-61478230D01*
X84653185Y-61498867D01*
X84571719Y-61580334D01*
X84507092Y-61644961D01*
X84445769Y-61678445D01*
X84376077Y-61673461D01*
X84325181Y-61635359D01*
X84324817Y-61635724D01*
X84322284Y-61633191D01*
X84320144Y-61631589D01*
X84318546Y-61629454D01*
X84318544Y-61629452D01*
X84318540Y-61629447D01*
X84313773Y-61624680D01*
X84280288Y-61563357D01*
X84285272Y-61493665D01*
X84313777Y-61449314D01*
X84318542Y-61444548D01*
X84318546Y-61444546D01*
X84404796Y-61329331D01*
X84449318Y-61209960D01*
X84491189Y-61154027D01*
X84556653Y-61129610D01*
X84624926Y-61144461D01*
G37*
%TD.AperFunction*%
%TA.AperFunction,Conductor*%
G36*
X88780971Y-55052603D02*
G01*
X88830377Y-55102008D01*
X88845545Y-55161866D01*
X88838999Y-57049999D01*
X88839000Y-57049999D01*
X88839000Y-57050000D01*
X89031681Y-57051802D01*
X89098532Y-57072113D01*
X89111603Y-57081981D01*
X89188689Y-57148604D01*
X89188694Y-57148608D01*
X89319648Y-57208212D01*
X89386712Y-57227811D01*
X89386713Y-57227811D01*
X89387362Y-57227903D01*
X89395337Y-57229045D01*
X89395415Y-57229050D01*
X89529154Y-57248106D01*
X93602912Y-57242913D01*
X93620639Y-57242579D01*
X93621723Y-57242539D01*
X93629325Y-57242263D01*
X93647014Y-57241309D01*
X93787606Y-57210725D01*
X93853070Y-57186308D01*
X93979345Y-57117357D01*
X94000775Y-57095926D01*
X94062093Y-57062444D01*
X94088078Y-57059612D01*
X94171700Y-57059368D01*
X94238793Y-57078855D01*
X94259739Y-57095685D01*
X94262050Y-57097996D01*
X94295535Y-57159319D01*
X94298368Y-57185314D01*
X94299233Y-57480680D01*
X94287804Y-57533043D01*
X94242785Y-57630499D01*
X94242784Y-57630500D01*
X94222821Y-57697411D01*
X94222809Y-57697450D01*
X94222804Y-57697475D01*
X94201714Y-57839779D01*
X94201713Y-57839787D01*
X94194761Y-59445037D01*
X94174786Y-59511991D01*
X94121784Y-59557516D01*
X94070762Y-59568500D01*
X92880129Y-59568500D01*
X92880123Y-59568501D01*
X92820516Y-59574908D01*
X92685671Y-59625202D01*
X92685668Y-59625204D01*
X92594080Y-59693767D01*
X92528615Y-59718184D01*
X92519769Y-59718500D01*
X91382769Y-59718500D01*
X91315730Y-59698815D01*
X91269975Y-59646011D01*
X91266586Y-59637831D01*
X91262796Y-59627669D01*
X91262793Y-59627664D01*
X91176547Y-59512455D01*
X91176544Y-59512452D01*
X91061335Y-59426206D01*
X91061328Y-59426202D01*
X90926482Y-59375908D01*
X90926483Y-59375908D01*
X90866883Y-59369501D01*
X90866881Y-59369500D01*
X90866873Y-59369500D01*
X90866864Y-59369500D01*
X89521129Y-59369500D01*
X89521123Y-59369501D01*
X89461516Y-59375908D01*
X89326671Y-59426202D01*
X89326668Y-59426204D01*
X89235080Y-59494767D01*
X89169615Y-59519184D01*
X89160769Y-59519500D01*
X88931500Y-59519500D01*
X88864461Y-59499815D01*
X88818706Y-59447011D01*
X88807500Y-59395500D01*
X88807499Y-58536129D01*
X88807498Y-58536123D01*
X88804396Y-58507267D01*
X88801091Y-58476517D01*
X88799638Y-58472622D01*
X88750797Y-58341671D01*
X88750793Y-58341664D01*
X88664547Y-58226455D01*
X88664544Y-58226452D01*
X88549335Y-58140206D01*
X88549328Y-58140202D01*
X88414482Y-58089908D01*
X88414483Y-58089908D01*
X88354883Y-58083501D01*
X88354881Y-58083500D01*
X88354873Y-58083500D01*
X88354865Y-58083500D01*
X87347808Y-58083500D01*
X87280769Y-58063815D01*
X87260127Y-58047181D01*
X87027819Y-57814873D01*
X86994334Y-57753550D01*
X86991500Y-57727192D01*
X86991500Y-56152970D01*
X87011185Y-56085931D01*
X87063989Y-56040176D01*
X87101615Y-56029749D01*
X87109059Y-56028911D01*
X87268690Y-55973054D01*
X87268693Y-55973051D01*
X87268697Y-55973050D01*
X87411884Y-55883079D01*
X87411885Y-55883078D01*
X87411890Y-55883075D01*
X87531477Y-55763488D01*
X87553318Y-55728729D01*
X87621452Y-55620295D01*
X87621454Y-55620292D01*
X87621454Y-55620290D01*
X87621456Y-55620288D01*
X87677313Y-55460657D01*
X87677313Y-55460656D01*
X87677314Y-55460654D01*
X87696249Y-55292600D01*
X87696249Y-55292599D01*
X87695323Y-55284380D01*
X87707380Y-55215558D01*
X87754730Y-55164180D01*
X87818544Y-55146499D01*
X88415871Y-55146499D01*
X88415872Y-55146499D01*
X88475483Y-55140091D01*
X88610331Y-55089796D01*
X88647235Y-55062169D01*
X88712698Y-55037752D01*
X88780971Y-55052603D01*
G37*
%TD.AperFunction*%
%TA.AperFunction,Conductor*%
G36*
X92343959Y-46123014D02*
G01*
X92389714Y-46175818D01*
X92399658Y-46244976D01*
X92395978Y-46261985D01*
X92385282Y-46298724D01*
X92383610Y-46304465D01*
X92383083Y-46306153D01*
X92382936Y-46306777D01*
X92362787Y-46449234D01*
X92362787Y-46449240D01*
X92363099Y-46585288D01*
X92363293Y-46669937D01*
X92363293Y-46669941D01*
X92374968Y-46776805D01*
X92386176Y-46828042D01*
X92420177Y-46930001D01*
X92420180Y-46930007D01*
X92497966Y-47051042D01*
X92500623Y-47054591D01*
X92499145Y-47055696D01*
X92524994Y-47112287D01*
X92526257Y-47129723D01*
X92526447Y-47237644D01*
X92526271Y-47244463D01*
X92526236Y-47245119D01*
X92526236Y-48090870D01*
X92526237Y-48090883D01*
X92527281Y-48100592D01*
X92527991Y-48113624D01*
X92528324Y-48302833D01*
X92508757Y-48369907D01*
X92456034Y-48415755D01*
X92401863Y-48427027D01*
X89231990Y-48364111D01*
X89119404Y-48374523D01*
X89065433Y-48385705D01*
X89065417Y-48385710D01*
X88957992Y-48420876D01*
X88957990Y-48420876D01*
X88957990Y-48420877D01*
X88836951Y-48498666D01*
X88836949Y-48498667D01*
X88836947Y-48498669D01*
X88784148Y-48544421D01*
X88689935Y-48653148D01*
X88689934Y-48653149D01*
X88689934Y-48653150D01*
X88681418Y-48671798D01*
X88630160Y-48784032D01*
X88610481Y-48851049D01*
X88610474Y-48851075D01*
X88589999Y-48993488D01*
X88589999Y-50188337D01*
X88587496Y-50211564D01*
X88587698Y-50211599D01*
X88579422Y-50260571D01*
X88579420Y-50260587D01*
X88572479Y-50356024D01*
X88572478Y-50356054D01*
X88580469Y-50715749D01*
X88580469Y-50715755D01*
X88580470Y-50715758D01*
X88586574Y-50756000D01*
X88599871Y-50843669D01*
X88599872Y-50843674D01*
X88612773Y-50888731D01*
X88617198Y-50904186D01*
X88668427Y-51022974D01*
X88735851Y-51106647D01*
X88758705Y-51135009D01*
X88792752Y-51166710D01*
X88828403Y-51226800D01*
X88831340Y-51267800D01*
X88831436Y-51267806D01*
X88831500Y-51267806D01*
X88831500Y-51267809D01*
X88831678Y-51267819D01*
X88831533Y-51270505D01*
X88831547Y-51270690D01*
X88831500Y-51271120D01*
X88831500Y-52670049D01*
X88811815Y-52737088D01*
X88759011Y-52782843D01*
X88689853Y-52792787D01*
X88633188Y-52769315D01*
X88610331Y-52752204D01*
X88610328Y-52752202D01*
X88475482Y-52701908D01*
X88475483Y-52701908D01*
X88415883Y-52695501D01*
X88415881Y-52695500D01*
X88415873Y-52695500D01*
X88415865Y-52695500D01*
X87613809Y-52695500D01*
X87546770Y-52675815D01*
X87526128Y-52659181D01*
X87524673Y-52657726D01*
X87524669Y-52657723D01*
X87418127Y-52586535D01*
X87299744Y-52537499D01*
X87299738Y-52537497D01*
X87174071Y-52512500D01*
X87174069Y-52512500D01*
X85923931Y-52512500D01*
X85923929Y-52512500D01*
X85798261Y-52537497D01*
X85798255Y-52537499D01*
X85679870Y-52586535D01*
X85573331Y-52657722D01*
X85573324Y-52657728D01*
X84482916Y-53748137D01*
X84421593Y-53781622D01*
X84351901Y-53776638D01*
X84295968Y-53734766D01*
X84271551Y-53669302D01*
X84271235Y-53660456D01*
X84271235Y-53039129D01*
X84271234Y-53039123D01*
X84264827Y-52979516D01*
X84214533Y-52844671D01*
X84214529Y-52844664D01*
X84128283Y-52729455D01*
X84123509Y-52724681D01*
X84090024Y-52663358D01*
X84095008Y-52593666D01*
X84123509Y-52549319D01*
X84128278Y-52544548D01*
X84128282Y-52544546D01*
X84214532Y-52429331D01*
X84264827Y-52294483D01*
X84271236Y-52234873D01*
X84271235Y-51466315D01*
X84290919Y-51399277D01*
X84329260Y-51361324D01*
X84352890Y-51346477D01*
X84472477Y-51226890D01*
X84472534Y-51226800D01*
X84562452Y-51083697D01*
X84562454Y-51083694D01*
X84562454Y-51083692D01*
X84562456Y-51083690D01*
X84618313Y-50924059D01*
X84618313Y-50924058D01*
X84618314Y-50924056D01*
X84637249Y-50756002D01*
X84637249Y-50755997D01*
X84618314Y-50587943D01*
X84562454Y-50428305D01*
X84562452Y-50428302D01*
X84472481Y-50285115D01*
X84472476Y-50285109D01*
X84397507Y-50210140D01*
X84364022Y-50148817D01*
X84369006Y-50079125D01*
X84410878Y-50023192D01*
X84471933Y-49999169D01*
X84528483Y-49993091D01*
X84663331Y-49942796D01*
X84778546Y-49856546D01*
X84864796Y-49741331D01*
X84904318Y-49635365D01*
X84946188Y-49579432D01*
X85011652Y-49555014D01*
X85079925Y-49569865D01*
X85129331Y-49619270D01*
X85144500Y-49678698D01*
X85144500Y-50229870D01*
X85144501Y-50229876D01*
X85150908Y-50289483D01*
X85201202Y-50424328D01*
X85201206Y-50424335D01*
X85287452Y-50539544D01*
X85287455Y-50539547D01*
X85402664Y-50625793D01*
X85402671Y-50625797D01*
X85537517Y-50676091D01*
X85537516Y-50676091D01*
X85544444Y-50676835D01*
X85597127Y-50682500D01*
X86842872Y-50682499D01*
X86902483Y-50676091D01*
X87037331Y-50625796D01*
X87152546Y-50539546D01*
X87238796Y-50424331D01*
X87289091Y-50289483D01*
X87295500Y-50229873D01*
X87295499Y-48684128D01*
X87289091Y-48624517D01*
X87278318Y-48595634D01*
X87238797Y-48489671D01*
X87238793Y-48489664D01*
X87152547Y-48374455D01*
X87138729Y-48364111D01*
X87115027Y-48346367D01*
X87033188Y-48285102D01*
X86991318Y-48229168D01*
X86983500Y-48185836D01*
X86983500Y-48084894D01*
X87003185Y-48017855D01*
X87037391Y-47986014D01*
X87035967Y-47984112D01*
X87134650Y-47910237D01*
X87158282Y-47892546D01*
X87244532Y-47777331D01*
X87294827Y-47642483D01*
X87301236Y-47582873D01*
X87301235Y-46227328D01*
X87320920Y-46160290D01*
X87373723Y-46114535D01*
X87425235Y-46103329D01*
X92276920Y-46103329D01*
X92343959Y-46123014D01*
G37*
%TD.AperFunction*%
%TA.AperFunction,Conductor*%
G36*
X81763275Y-51120185D02*
G01*
X81809030Y-51172989D01*
X81820236Y-51224500D01*
X81820236Y-51413003D01*
X81800551Y-51480042D01*
X81747747Y-51525797D01*
X81682988Y-51536293D01*
X81677691Y-51535723D01*
X81675609Y-51535500D01*
X81675599Y-51535500D01*
X81159865Y-51535500D01*
X81159859Y-51535501D01*
X81100252Y-51541908D01*
X81043312Y-51563145D01*
X81024175Y-51568579D01*
X80964259Y-51580497D01*
X80964253Y-51580499D01*
X80923720Y-51597289D01*
X80854251Y-51604758D01*
X80791772Y-51573482D01*
X80756120Y-51513393D01*
X80758614Y-51443568D01*
X80771273Y-51416758D01*
X80787191Y-51391425D01*
X80843048Y-51231794D01*
X80843601Y-51226890D01*
X80845435Y-51210616D01*
X80872502Y-51146202D01*
X80930097Y-51106647D01*
X80968655Y-51100500D01*
X81696236Y-51100500D01*
X81763275Y-51120185D01*
G37*
%TD.AperFunction*%
%TD*%
%TA.AperFunction,Conductor*%
%TO.N,GND*%
G36*
X115354863Y-76427309D02*
G01*
X115421789Y-76447365D01*
X115467249Y-76500423D01*
X115478167Y-76552137D01*
X115446678Y-81248123D01*
X115417089Y-85660682D01*
X115416965Y-85679160D01*
X115396832Y-85746066D01*
X115343722Y-85791466D01*
X115292968Y-85802329D01*
X108970774Y-85802329D01*
X108903735Y-85782644D01*
X108857980Y-85729840D01*
X108848036Y-85660682D01*
X108877061Y-85597126D01*
X108923321Y-85563768D01*
X108927831Y-85561899D01*
X108956615Y-85549977D01*
X109063157Y-85478789D01*
X109835650Y-84706294D01*
X109896971Y-84672811D01*
X109955421Y-84674201D01*
X110011950Y-84689349D01*
X110088966Y-84696087D01*
X110242998Y-84709563D01*
X110243000Y-84709563D01*
X110243002Y-84709563D01*
X110300894Y-84704498D01*
X110474050Y-84689349D01*
X110698079Y-84629320D01*
X110908282Y-84531301D01*
X111098269Y-84398270D01*
X111253576Y-84242962D01*
X111314896Y-84209480D01*
X111384587Y-84214464D01*
X111440521Y-84256335D01*
X111459494Y-84304553D01*
X111462124Y-84303932D01*
X111463907Y-84311479D01*
X111514202Y-84446328D01*
X111514206Y-84446335D01*
X111600452Y-84561544D01*
X111600455Y-84561547D01*
X111715664Y-84647793D01*
X111715671Y-84647797D01*
X111850517Y-84698091D01*
X111850516Y-84698091D01*
X111857444Y-84698835D01*
X111910127Y-84704500D01*
X113655872Y-84704499D01*
X113715483Y-84698091D01*
X113850331Y-84647796D01*
X113965546Y-84561546D01*
X114051796Y-84446331D01*
X114102091Y-84311483D01*
X114108500Y-84251873D01*
X114108499Y-82506128D01*
X114102091Y-82446517D01*
X114099404Y-82439314D01*
X114051797Y-82311671D01*
X114051793Y-82311664D01*
X113965547Y-82196455D01*
X113965544Y-82196452D01*
X113850335Y-82110206D01*
X113850328Y-82110202D01*
X113715482Y-82059908D01*
X113715483Y-82059908D01*
X113655883Y-82053501D01*
X113655881Y-82053500D01*
X113655873Y-82053500D01*
X113655864Y-82053500D01*
X111910129Y-82053500D01*
X111910123Y-82053501D01*
X111850516Y-82059908D01*
X111715671Y-82110202D01*
X111715664Y-82110206D01*
X111600455Y-82196452D01*
X111600452Y-82196455D01*
X111514206Y-82311664D01*
X111514202Y-82311671D01*
X111463908Y-82446517D01*
X111462126Y-82454062D01*
X111459264Y-82453385D01*
X111437761Y-82505215D01*
X111380345Y-82545030D01*
X111310519Y-82547484D01*
X111253573Y-82515034D01*
X111098269Y-82359730D01*
X111077517Y-82345199D01*
X110908282Y-82226699D01*
X110896878Y-82221381D01*
X110844440Y-82175210D01*
X110825288Y-82108016D01*
X110845504Y-82041135D01*
X110896878Y-81996618D01*
X110908282Y-81991301D01*
X111098269Y-81858270D01*
X111262270Y-81694269D01*
X111395301Y-81504282D01*
X111493320Y-81294079D01*
X111553349Y-81070050D01*
X111573563Y-80839000D01*
X111573096Y-80833667D01*
X111563017Y-80718454D01*
X111553349Y-80607950D01*
X111493320Y-80383921D01*
X111395301Y-80173719D01*
X111395299Y-80173716D01*
X111395298Y-80173714D01*
X111262273Y-79983735D01*
X111262268Y-79983729D01*
X111098269Y-79819730D01*
X111045075Y-79782483D01*
X110908282Y-79686699D01*
X110896878Y-79681381D01*
X110844440Y-79635210D01*
X110825288Y-79568016D01*
X110845504Y-79501135D01*
X110896878Y-79456618D01*
X110908282Y-79451301D01*
X111098269Y-79318270D01*
X111262270Y-79154269D01*
X111395301Y-78964282D01*
X111400618Y-78952878D01*
X111446790Y-78900440D01*
X111513984Y-78881288D01*
X111580865Y-78901504D01*
X111625381Y-78952878D01*
X111630699Y-78964282D01*
X111763730Y-79154269D01*
X111927731Y-79318270D01*
X112117718Y-79451301D01*
X112327921Y-79549320D01*
X112551950Y-79609349D01*
X112716985Y-79623787D01*
X112782998Y-79629563D01*
X112783000Y-79629563D01*
X112783002Y-79629563D01*
X112840762Y-79624509D01*
X113014050Y-79609349D01*
X113238079Y-79549320D01*
X113448282Y-79451301D01*
X113638269Y-79318270D01*
X113802270Y-79154269D01*
X113935301Y-78964282D01*
X114033320Y-78754079D01*
X114093349Y-78530050D01*
X114113563Y-78299000D01*
X114110160Y-78260108D01*
X114093349Y-78067955D01*
X114093349Y-78067950D01*
X114033320Y-77843921D01*
X113935301Y-77633719D01*
X113935299Y-77633716D01*
X113935298Y-77633714D01*
X113802273Y-77443735D01*
X113802268Y-77443729D01*
X113638269Y-77279730D01*
X113582477Y-77240664D01*
X113448282Y-77146699D01*
X113238079Y-77048680D01*
X113238076Y-77048679D01*
X113238074Y-77048678D01*
X113014051Y-76988651D01*
X113014044Y-76988650D01*
X112783002Y-76968437D01*
X112782998Y-76968437D01*
X112551955Y-76988650D01*
X112551948Y-76988651D01*
X112327917Y-77048681D01*
X112117718Y-77146699D01*
X112117714Y-77146701D01*
X111927735Y-77279726D01*
X111927729Y-77279731D01*
X111763731Y-77443729D01*
X111763726Y-77443735D01*
X111630701Y-77633714D01*
X111630698Y-77633720D01*
X111625381Y-77645123D01*
X111579207Y-77697562D01*
X111512013Y-77716712D01*
X111445133Y-77696495D01*
X111400619Y-77645123D01*
X111395301Y-77633720D01*
X111395298Y-77633714D01*
X111262273Y-77443735D01*
X111262268Y-77443729D01*
X111098269Y-77279730D01*
X111042477Y-77240664D01*
X110908282Y-77146699D01*
X110698079Y-77048680D01*
X110698076Y-77048679D01*
X110698074Y-77048678D01*
X110474051Y-76988651D01*
X110474044Y-76988650D01*
X110243002Y-76968437D01*
X110242998Y-76968437D01*
X110011955Y-76988650D01*
X110011948Y-76988651D01*
X109787917Y-77048681D01*
X109577718Y-77146699D01*
X109577714Y-77146701D01*
X109387735Y-77279726D01*
X109387729Y-77279731D01*
X109223731Y-77443729D01*
X109223730Y-77443731D01*
X109094473Y-77628329D01*
X109039896Y-77671953D01*
X108970397Y-77679146D01*
X108908043Y-77647624D01*
X108872629Y-77587394D01*
X108868898Y-77557205D01*
X108868898Y-77435129D01*
X108868897Y-77435123D01*
X108868896Y-77435116D01*
X108862490Y-77375517D01*
X108826762Y-77279726D01*
X108812196Y-77240671D01*
X108812192Y-77240664D01*
X108725946Y-77125455D01*
X108725943Y-77125452D01*
X108610734Y-77039206D01*
X108610727Y-77039202D01*
X108475881Y-76988908D01*
X108475882Y-76988908D01*
X108416282Y-76982501D01*
X108416280Y-76982500D01*
X108416272Y-76982500D01*
X108416264Y-76982500D01*
X107720107Y-76982500D01*
X107653068Y-76962815D01*
X107632426Y-76946181D01*
X107280782Y-76594536D01*
X107247297Y-76533213D01*
X107252281Y-76463521D01*
X107294153Y-76407588D01*
X107359617Y-76383171D01*
X107369133Y-76382857D01*
X115354863Y-76427309D01*
G37*
%TD.AperFunction*%
%TA.AperFunction,Conductor*%
G36*
X85005100Y-74549304D02*
G01*
X85071688Y-74570466D01*
X85116265Y-74624269D01*
X85126357Y-74673928D01*
X85117999Y-76258999D01*
X85118000Y-76258999D01*
X85118000Y-76259000D01*
X86133256Y-76264651D01*
X86200181Y-76284707D01*
X86245641Y-76337765D01*
X86255200Y-76406978D01*
X86249605Y-76429599D01*
X86246686Y-76437941D01*
X86227751Y-76605997D01*
X86227751Y-76606002D01*
X86246686Y-76774057D01*
X86302542Y-76933687D01*
X86302544Y-76933690D01*
X86313493Y-76951115D01*
X86332500Y-77017087D01*
X86332500Y-77131676D01*
X86312815Y-77198715D01*
X86307767Y-77205987D01*
X86281804Y-77240669D01*
X86281802Y-77240671D01*
X86231508Y-77375517D01*
X86225101Y-77435116D01*
X86225101Y-77435123D01*
X86225100Y-77435135D01*
X86225100Y-78826270D01*
X86225101Y-78826276D01*
X86231508Y-78885883D01*
X86281802Y-79020728D01*
X86281803Y-79020729D01*
X86281804Y-79020731D01*
X86368054Y-79135946D01*
X86395156Y-79156234D01*
X86437026Y-79212167D01*
X86442010Y-79281859D01*
X86408525Y-79343182D01*
X86347202Y-79376666D01*
X86320844Y-79379500D01*
X85953130Y-79379500D01*
X85953123Y-79379501D01*
X85893516Y-79385908D01*
X85758671Y-79436202D01*
X85758664Y-79436206D01*
X85643455Y-79522452D01*
X85643453Y-79522454D01*
X85629009Y-79541749D01*
X85573074Y-79583619D01*
X85503382Y-79588601D01*
X85442063Y-79555117D01*
X84981885Y-79094939D01*
X84948400Y-79033616D01*
X84953383Y-78963926D01*
X84982492Y-78885883D01*
X84988901Y-78826273D01*
X84988900Y-77435128D01*
X84982492Y-77375517D01*
X84946764Y-77279726D01*
X84932198Y-77240671D01*
X84932194Y-77240664D01*
X84845948Y-77125455D01*
X84845945Y-77125452D01*
X84730736Y-77039206D01*
X84730729Y-77039202D01*
X84595883Y-76988908D01*
X84595884Y-76988908D01*
X84536284Y-76982501D01*
X84536282Y-76982500D01*
X84536274Y-76982500D01*
X84536265Y-76982500D01*
X83627730Y-76982500D01*
X83627724Y-76982501D01*
X83568117Y-76988908D01*
X83433272Y-77039202D01*
X83433265Y-77039206D01*
X83318056Y-77125452D01*
X83318053Y-77125455D01*
X83231807Y-77240664D01*
X83231803Y-77240671D01*
X83181509Y-77375517D01*
X83175102Y-77435116D01*
X83175102Y-77435123D01*
X83175101Y-77435135D01*
X83175101Y-78826270D01*
X83175102Y-78826276D01*
X83181509Y-78885883D01*
X83231803Y-79020728D01*
X83231807Y-79020735D01*
X83318052Y-79135943D01*
X83318053Y-79135944D01*
X83318055Y-79135946D01*
X83403235Y-79199712D01*
X83445105Y-79255644D01*
X83450539Y-79274782D01*
X83451820Y-79281220D01*
X83454655Y-79295468D01*
X83454656Y-79295474D01*
X83456499Y-79304743D01*
X83487465Y-79379500D01*
X83505536Y-79423128D01*
X83576724Y-79529670D01*
X83576727Y-79529674D01*
X83576728Y-79529675D01*
X84410873Y-80363819D01*
X84444358Y-80425142D01*
X84439374Y-80494833D01*
X84397502Y-80550767D01*
X84332038Y-80575184D01*
X84323192Y-80575500D01*
X83612129Y-80575500D01*
X83612123Y-80575501D01*
X83552516Y-80581908D01*
X83417671Y-80632202D01*
X83417664Y-80632206D01*
X83302455Y-80718452D01*
X83302452Y-80718455D01*
X83216204Y-80833667D01*
X83212239Y-80840929D01*
X83162832Y-80890334D01*
X83103408Y-80905500D01*
X81902808Y-80905500D01*
X81835769Y-80885815D01*
X81815127Y-80869181D01*
X81109400Y-80163454D01*
X81075915Y-80102131D01*
X81080899Y-80032439D01*
X81097811Y-80001467D01*
X81160796Y-79917331D01*
X81211091Y-79782483D01*
X81217500Y-79722873D01*
X81217499Y-78237128D01*
X81211091Y-78177517D01*
X81203680Y-78157648D01*
X81160797Y-78042671D01*
X81160793Y-78042664D01*
X81074547Y-77927455D01*
X81074544Y-77927452D01*
X80959335Y-77841206D01*
X80959328Y-77841202D01*
X80824482Y-77790908D01*
X80824483Y-77790908D01*
X80764883Y-77784501D01*
X80764881Y-77784500D01*
X80764873Y-77784500D01*
X80764864Y-77784500D01*
X79709129Y-77784500D01*
X79709123Y-77784501D01*
X79649516Y-77790908D01*
X79514671Y-77841202D01*
X79514664Y-77841206D01*
X79399455Y-77927452D01*
X79399452Y-77927455D01*
X79313206Y-78042664D01*
X79313202Y-78042671D01*
X79262908Y-78177517D01*
X79259551Y-78208746D01*
X79256501Y-78237123D01*
X79256500Y-78237135D01*
X79256500Y-79722870D01*
X79256501Y-79722876D01*
X79262908Y-79782483D01*
X79313202Y-79917328D01*
X79313206Y-79917335D01*
X79399452Y-80032544D01*
X79399455Y-80032547D01*
X79514663Y-80118792D01*
X79514665Y-80118793D01*
X79514669Y-80118796D01*
X79514673Y-80118797D01*
X79521924Y-80122757D01*
X79571331Y-80172161D01*
X79586500Y-80231591D01*
X79586500Y-80275071D01*
X79610731Y-80396882D01*
X79610731Y-80396890D01*
X79610733Y-80396890D01*
X79611499Y-80400745D01*
X79660532Y-80519123D01*
X79660668Y-80519326D01*
X79728269Y-80620500D01*
X79731726Y-80625673D01*
X81167327Y-82061274D01*
X81167330Y-82061276D01*
X81268208Y-82128680D01*
X81273871Y-82132464D01*
X81273872Y-82132464D01*
X81273873Y-82132465D01*
X81392256Y-82181501D01*
X81392260Y-82181501D01*
X81392261Y-82181502D01*
X81517928Y-82206500D01*
X81517931Y-82206500D01*
X83103408Y-82206500D01*
X83170447Y-82226185D01*
X83212239Y-82271071D01*
X83216204Y-82278332D01*
X83302452Y-82393544D01*
X83302455Y-82393547D01*
X83417664Y-82479793D01*
X83417671Y-82479797D01*
X83552517Y-82530091D01*
X83552516Y-82530091D01*
X83559444Y-82530835D01*
X83612127Y-82536500D01*
X85097872Y-82536499D01*
X85157483Y-82530091D01*
X85292331Y-82479796D01*
X85407546Y-82393546D01*
X85493796Y-82278331D01*
X85493796Y-82278328D01*
X85497761Y-82271071D01*
X85547168Y-82221666D01*
X85606592Y-82206500D01*
X86999071Y-82206500D01*
X87083615Y-82189682D01*
X87124744Y-82181501D01*
X87177817Y-82159516D01*
X87247286Y-82152048D01*
X87294162Y-82170977D01*
X87303865Y-82177460D01*
X87303875Y-82177466D01*
X87313619Y-82181502D01*
X87422256Y-82226501D01*
X87422260Y-82226501D01*
X87422261Y-82226502D01*
X87547928Y-82251500D01*
X87547931Y-82251500D01*
X88907408Y-82251500D01*
X88974447Y-82271185D01*
X89016239Y-82316071D01*
X89020204Y-82323332D01*
X89106452Y-82438544D01*
X89106455Y-82438547D01*
X89221664Y-82524793D01*
X89221671Y-82524797D01*
X89356517Y-82575091D01*
X89356516Y-82575091D01*
X89363444Y-82575835D01*
X89416127Y-82581500D01*
X90901872Y-82581499D01*
X90961483Y-82575091D01*
X91096331Y-82524796D01*
X91211546Y-82438546D01*
X91216912Y-82431377D01*
X91272841Y-82389505D01*
X91342532Y-82384517D01*
X91357135Y-82388644D01*
X91501939Y-82439313D01*
X91669997Y-82458249D01*
X91670000Y-82458249D01*
X91670003Y-82458249D01*
X91838056Y-82439314D01*
X91860730Y-82431380D01*
X91997690Y-82383456D01*
X91997692Y-82383454D01*
X91997694Y-82383454D01*
X91997697Y-82383452D01*
X92140884Y-82293481D01*
X92140885Y-82293480D01*
X92140890Y-82293477D01*
X92260477Y-82173890D01*
X92260481Y-82173884D01*
X92350452Y-82030697D01*
X92350454Y-82030694D01*
X92350454Y-82030692D01*
X92350456Y-82030690D01*
X92406313Y-81871059D01*
X92406313Y-81871058D01*
X92406314Y-81871056D01*
X92425249Y-81703002D01*
X92425249Y-81702997D01*
X92406314Y-81534943D01*
X92375860Y-81447913D01*
X92350456Y-81375310D01*
X92350455Y-81375309D01*
X92350454Y-81375305D01*
X92350452Y-81375302D01*
X92260481Y-81232115D01*
X92260476Y-81232109D01*
X92140890Y-81112523D01*
X92140884Y-81112518D01*
X91997697Y-81022547D01*
X91997694Y-81022545D01*
X91838056Y-80966685D01*
X91670003Y-80947751D01*
X91669995Y-80947751D01*
X91652287Y-80949745D01*
X91638159Y-80949869D01*
X91638159Y-80950500D01*
X91410592Y-80950500D01*
X91343553Y-80930815D01*
X91301761Y-80885929D01*
X91297795Y-80878667D01*
X91211547Y-80763455D01*
X91211544Y-80763452D01*
X91096335Y-80677206D01*
X91096328Y-80677202D01*
X90961482Y-80626908D01*
X90961483Y-80626908D01*
X90901883Y-80620501D01*
X90901881Y-80620500D01*
X90901873Y-80620500D01*
X90901864Y-80620500D01*
X89416129Y-80620500D01*
X89416123Y-80620501D01*
X89356516Y-80626908D01*
X89221671Y-80677202D01*
X89221665Y-80677205D01*
X89199808Y-80693568D01*
X89134344Y-80717984D01*
X89066071Y-80703132D01*
X89016666Y-80653726D01*
X89001499Y-80594300D01*
X89001499Y-79832129D01*
X89001498Y-79832123D01*
X89000165Y-79819726D01*
X88995091Y-79772517D01*
X88992564Y-79765743D01*
X88961100Y-79681382D01*
X88944796Y-79637669D01*
X88944795Y-79637668D01*
X88942892Y-79632565D01*
X88937908Y-79562874D01*
X88971391Y-79501553D01*
X89295724Y-79177220D01*
X89357045Y-79143737D01*
X89426737Y-79148721D01*
X89457712Y-79165635D01*
X89499470Y-79196895D01*
X89533268Y-79222196D01*
X89533270Y-79222197D01*
X89668116Y-79272491D01*
X89668115Y-79272491D01*
X89675043Y-79273235D01*
X89727726Y-79278900D01*
X90636271Y-79278899D01*
X90695882Y-79272491D01*
X90830730Y-79222196D01*
X90945945Y-79135946D01*
X91032195Y-79020731D01*
X91082490Y-78885883D01*
X91088899Y-78826273D01*
X91088898Y-77435128D01*
X91082490Y-77375517D01*
X91046762Y-77279726D01*
X91032196Y-77240671D01*
X91032192Y-77240664D01*
X90945946Y-77125455D01*
X90945943Y-77125452D01*
X90830734Y-77039206D01*
X90830727Y-77039202D01*
X90695881Y-76988908D01*
X90695882Y-76988908D01*
X90636282Y-76982501D01*
X90636280Y-76982500D01*
X90636272Y-76982500D01*
X90636263Y-76982500D01*
X89727728Y-76982500D01*
X89727722Y-76982501D01*
X89668115Y-76988908D01*
X89533270Y-77039202D01*
X89533263Y-77039206D01*
X89418054Y-77125452D01*
X89418051Y-77125455D01*
X89331805Y-77240664D01*
X89331801Y-77240671D01*
X89281507Y-77375516D01*
X89277061Y-77416872D01*
X89250322Y-77481423D01*
X89201225Y-77518176D01*
X89114175Y-77554233D01*
X89007626Y-77625426D01*
X89007625Y-77625427D01*
X88250580Y-78382473D01*
X88189257Y-78415958D01*
X88119565Y-78410974D01*
X88063632Y-78369102D01*
X88039215Y-78303638D01*
X88038899Y-78294792D01*
X88038899Y-77435129D01*
X88038898Y-77435123D01*
X88038897Y-77435116D01*
X88032491Y-77375517D01*
X87996763Y-77279726D01*
X87982197Y-77240671D01*
X87982193Y-77240664D01*
X87895947Y-77125455D01*
X87895944Y-77125452D01*
X87780735Y-77039206D01*
X87780725Y-77039201D01*
X87758170Y-77030788D01*
X87702237Y-76988916D01*
X87677821Y-76923451D01*
X87684464Y-76873652D01*
X87719313Y-76774060D01*
X87719313Y-76774059D01*
X87738249Y-76606002D01*
X87738249Y-76605997D01*
X87719313Y-76437940D01*
X87717764Y-76431151D01*
X87719294Y-76430801D01*
X87716149Y-76369324D01*
X87750871Y-76308692D01*
X87812861Y-76276458D01*
X87837432Y-76274137D01*
X100739035Y-76345952D01*
X100805961Y-76366008D01*
X100851421Y-76419066D01*
X100860980Y-76488279D01*
X100831601Y-76551672D01*
X100826023Y-76557630D01*
X99822180Y-77561474D01*
X99760857Y-77594959D01*
X99691165Y-77589975D01*
X99635232Y-77548103D01*
X99610815Y-77482639D01*
X99610499Y-77473793D01*
X99610499Y-77233129D01*
X99610498Y-77233123D01*
X99610497Y-77233116D01*
X99604091Y-77173517D01*
X99603878Y-77172947D01*
X99553797Y-77038671D01*
X99553793Y-77038664D01*
X99467547Y-76923455D01*
X99467544Y-76923452D01*
X99352335Y-76837206D01*
X99352328Y-76837202D01*
X99217482Y-76786908D01*
X99217483Y-76786908D01*
X99157883Y-76780501D01*
X99157881Y-76780500D01*
X99157873Y-76780500D01*
X99157864Y-76780500D01*
X97912129Y-76780500D01*
X97912123Y-76780501D01*
X97852516Y-76786908D01*
X97717671Y-76837202D01*
X97717664Y-76837206D01*
X97602455Y-76923452D01*
X97602452Y-76923455D01*
X97516206Y-77038664D01*
X97516202Y-77038671D01*
X97465908Y-77173517D01*
X97459501Y-77233116D01*
X97459501Y-77233123D01*
X97459500Y-77233135D01*
X97459500Y-78460078D01*
X97439815Y-78527117D01*
X97387011Y-78572872D01*
X97321617Y-78583298D01*
X97157004Y-78564751D01*
X97156997Y-78564751D01*
X96988942Y-78583686D01*
X96829311Y-78639543D01*
X96811883Y-78650494D01*
X96745912Y-78669500D01*
X96370929Y-78669500D01*
X96245261Y-78694497D01*
X96245255Y-78694499D01*
X96126870Y-78743535D01*
X96020331Y-78814722D01*
X96020324Y-78814728D01*
X95614724Y-79220328D01*
X95562324Y-79298752D01*
X95543540Y-79326864D01*
X95543533Y-79326877D01*
X95494498Y-79445257D01*
X95492729Y-79451090D01*
X95490893Y-79450533D01*
X95462627Y-79504560D01*
X95416737Y-79534632D01*
X95377665Y-79549205D01*
X95262455Y-79635452D01*
X95262452Y-79635455D01*
X95176206Y-79750664D01*
X95176202Y-79750671D01*
X95125908Y-79885517D01*
X95119501Y-79945116D01*
X95119500Y-79945135D01*
X95119500Y-81490870D01*
X95119501Y-81490876D01*
X95125908Y-81550483D01*
X95176202Y-81685328D01*
X95176206Y-81685335D01*
X95184895Y-81696942D01*
X95209312Y-81762406D01*
X95194460Y-81830679D01*
X95152692Y-81872450D01*
X95153769Y-81873888D01*
X95031455Y-81965452D01*
X95031452Y-81965455D01*
X94945206Y-82080664D01*
X94945202Y-82080671D01*
X94894908Y-82215517D01*
X94888501Y-82275116D01*
X94888500Y-82275135D01*
X94888500Y-83330870D01*
X94888501Y-83330876D01*
X94894908Y-83390483D01*
X94945202Y-83525328D01*
X94945206Y-83525335D01*
X95031452Y-83640544D01*
X95031455Y-83640547D01*
X95146664Y-83726793D01*
X95146671Y-83726797D01*
X95281517Y-83777091D01*
X95281516Y-83777091D01*
X95288444Y-83777835D01*
X95341127Y-83783500D01*
X96826872Y-83783499D01*
X96886483Y-83777091D01*
X97021331Y-83726796D01*
X97136546Y-83640546D01*
X97222796Y-83525331D01*
X97273091Y-83390483D01*
X97279500Y-83330873D01*
X97279499Y-82825799D01*
X97299183Y-82758762D01*
X97351987Y-82713007D01*
X97421146Y-82703063D01*
X97446832Y-82709619D01*
X97452669Y-82711796D01*
X97587517Y-82762091D01*
X97647127Y-82768500D01*
X98342872Y-82768499D01*
X98402483Y-82762091D01*
X98426663Y-82753071D01*
X98496353Y-82748085D01*
X98513329Y-82753069D01*
X98537517Y-82762091D01*
X98558433Y-82764339D01*
X98597114Y-82768499D01*
X98597121Y-82768499D01*
X98597127Y-82768500D01*
X98597132Y-82768499D01*
X98597668Y-82768529D01*
X98597789Y-82768572D01*
X98600431Y-82768856D01*
X98600363Y-82769479D01*
X98663560Y-82791767D01*
X98678724Y-82804671D01*
X98997326Y-83123273D01*
X98997329Y-83123275D01*
X98997331Y-83123277D01*
X99095562Y-83188912D01*
X99103873Y-83194465D01*
X99222256Y-83243501D01*
X99222260Y-83243501D01*
X99222261Y-83243502D01*
X99347928Y-83268500D01*
X99347931Y-83268500D01*
X100319933Y-83268500D01*
X100386972Y-83288185D01*
X100432727Y-83340989D01*
X100440610Y-83363986D01*
X100441908Y-83369483D01*
X100492202Y-83504328D01*
X100492206Y-83504335D01*
X100578452Y-83619544D01*
X100578455Y-83619547D01*
X100693664Y-83705793D01*
X100693671Y-83705797D01*
X100828517Y-83756091D01*
X100828516Y-83756091D01*
X100835444Y-83756835D01*
X100888127Y-83762500D01*
X102370433Y-83762499D01*
X102436405Y-83781505D01*
X102444116Y-83786350D01*
X102448310Y-83788985D01*
X102569621Y-83831433D01*
X102607943Y-83844843D01*
X102775997Y-83863778D01*
X102776000Y-83863778D01*
X102776003Y-83863778D01*
X102944056Y-83844843D01*
X102944059Y-83844842D01*
X103103690Y-83788985D01*
X103103692Y-83788983D01*
X103103694Y-83788983D01*
X103103697Y-83788981D01*
X103246884Y-83699010D01*
X103246885Y-83699009D01*
X103246890Y-83699006D01*
X103366477Y-83579419D01*
X103366481Y-83579413D01*
X103456452Y-83436226D01*
X103456455Y-83436221D01*
X103456941Y-83434834D01*
X103494582Y-83327258D01*
X103523943Y-83280531D01*
X103535974Y-83268500D01*
X103594277Y-83210198D01*
X103665465Y-83103656D01*
X103674406Y-83082072D01*
X103703825Y-83011047D01*
X103747666Y-82956643D01*
X103813960Y-82934578D01*
X103818386Y-82934499D01*
X104384924Y-82934499D01*
X104451963Y-82954184D01*
X104497718Y-83006988D01*
X104501966Y-83017545D01*
X104524545Y-83082075D01*
X104614519Y-83225266D01*
X104614524Y-83225272D01*
X104734110Y-83344858D01*
X104734116Y-83344863D01*
X104877303Y-83434834D01*
X104877306Y-83434836D01*
X104877310Y-83434837D01*
X104877311Y-83434838D01*
X104881278Y-83436226D01*
X105036944Y-83490696D01*
X105204998Y-83509631D01*
X105205001Y-83509631D01*
X105205004Y-83509631D01*
X105373057Y-83490696D01*
X105373060Y-83490695D01*
X105532691Y-83434838D01*
X105532693Y-83434836D01*
X105532695Y-83434836D01*
X105532698Y-83434834D01*
X105675885Y-83344863D01*
X105675886Y-83344862D01*
X105675891Y-83344859D01*
X105795478Y-83225272D01*
X105804950Y-83210198D01*
X105885453Y-83082079D01*
X105885457Y-83082071D01*
X105923584Y-82973109D01*
X105952942Y-82926385D01*
X106160270Y-82719057D01*
X106221591Y-82685574D01*
X106291283Y-82690558D01*
X106347215Y-82732429D01*
X106400452Y-82803544D01*
X106400455Y-82803547D01*
X106515666Y-82889794D01*
X106515667Y-82889794D01*
X106515669Y-82889796D01*
X106568490Y-82909496D01*
X106624423Y-82951366D01*
X106630151Y-82959706D01*
X106631523Y-82961890D01*
X106751109Y-83081476D01*
X106751115Y-83081481D01*
X106894302Y-83171452D01*
X106894305Y-83171454D01*
X106894309Y-83171455D01*
X106894310Y-83171456D01*
X106944197Y-83188912D01*
X107053943Y-83227314D01*
X107221997Y-83246249D01*
X107222000Y-83246249D01*
X107222003Y-83246249D01*
X107390056Y-83227314D01*
X107438971Y-83210198D01*
X107549690Y-83171456D01*
X107549692Y-83171454D01*
X107549694Y-83171454D01*
X107549697Y-83171452D01*
X107692884Y-83081481D01*
X107692885Y-83081480D01*
X107692890Y-83081477D01*
X107791549Y-82982818D01*
X107852872Y-82949333D01*
X107879230Y-82946499D01*
X108255871Y-82946499D01*
X108255872Y-82946499D01*
X108315483Y-82940091D01*
X108450331Y-82889796D01*
X108565546Y-82803546D01*
X108651796Y-82688331D01*
X108702091Y-82553483D01*
X108708500Y-82493873D01*
X108708499Y-81248128D01*
X108702091Y-81188517D01*
X108700592Y-81184499D01*
X108651797Y-81053671D01*
X108651793Y-81053664D01*
X108565547Y-80938455D01*
X108565544Y-80938452D01*
X108450335Y-80852206D01*
X108450328Y-80852202D01*
X108315482Y-80801908D01*
X108315483Y-80801908D01*
X108255883Y-80795501D01*
X108255881Y-80795500D01*
X108255873Y-80795500D01*
X108255865Y-80795500D01*
X107994500Y-80795500D01*
X107927461Y-80775815D01*
X107881706Y-80723011D01*
X107870500Y-80671500D01*
X107870500Y-80141087D01*
X107889506Y-80075115D01*
X107900456Y-80057690D01*
X107956313Y-79898059D01*
X107967533Y-79798477D01*
X107975249Y-79730002D01*
X107975249Y-79729997D01*
X107956313Y-79561942D01*
X107954681Y-79557279D01*
X107930461Y-79488059D01*
X107914993Y-79443853D01*
X107911432Y-79374074D01*
X107946161Y-79313447D01*
X108008154Y-79281220D01*
X108032035Y-79278899D01*
X108416270Y-79278899D01*
X108416271Y-79278899D01*
X108475882Y-79272491D01*
X108610730Y-79222196D01*
X108725945Y-79135946D01*
X108812195Y-79020731D01*
X108844206Y-78934905D01*
X108886077Y-78878972D01*
X108951541Y-78854554D01*
X109019814Y-78869405D01*
X109069220Y-78918810D01*
X109072770Y-78925833D01*
X109090698Y-78964281D01*
X109150399Y-79049542D01*
X109223730Y-79154269D01*
X109387731Y-79318270D01*
X109577718Y-79451301D01*
X109589121Y-79456618D01*
X109641560Y-79502790D01*
X109660712Y-79569984D01*
X109640496Y-79636865D01*
X109589123Y-79681381D01*
X109577720Y-79686698D01*
X109577714Y-79686701D01*
X109387735Y-79819726D01*
X109387729Y-79819731D01*
X109223731Y-79983729D01*
X109223726Y-79983735D01*
X109090701Y-80173714D01*
X109090699Y-80173718D01*
X108992681Y-80383917D01*
X108932651Y-80607948D01*
X108932650Y-80607955D01*
X108912437Y-80838998D01*
X108912437Y-80839001D01*
X108932650Y-81070044D01*
X108932651Y-81070051D01*
X108992678Y-81294074D01*
X108992679Y-81294076D01*
X108992680Y-81294079D01*
X109090699Y-81504282D01*
X109223730Y-81694269D01*
X109387731Y-81858270D01*
X109577718Y-81991301D01*
X109589121Y-81996618D01*
X109641560Y-82042790D01*
X109660712Y-82109984D01*
X109640496Y-82176865D01*
X109589123Y-82221381D01*
X109577720Y-82226698D01*
X109577714Y-82226701D01*
X109387735Y-82359726D01*
X109387729Y-82359731D01*
X109223731Y-82523729D01*
X109223726Y-82523735D01*
X109090701Y-82713714D01*
X109090699Y-82713718D01*
X108992681Y-82923917D01*
X108932651Y-83147948D01*
X108932650Y-83147955D01*
X108912437Y-83378998D01*
X108912437Y-83379001D01*
X108932650Y-83610044D01*
X108932652Y-83610055D01*
X108947797Y-83666576D01*
X108946134Y-83736426D01*
X108915703Y-83786350D01*
X108415361Y-84286693D01*
X108354038Y-84320178D01*
X108327680Y-84323012D01*
X103177685Y-84323012D01*
X103111714Y-84304006D01*
X103102765Y-84298383D01*
X103094287Y-84293056D01*
X103094286Y-84293055D01*
X103094285Y-84293055D01*
X102934654Y-84237198D01*
X102766600Y-84218263D01*
X102766594Y-84218263D01*
X102598540Y-84237197D01*
X102438902Y-84293057D01*
X102438899Y-84293059D01*
X102295712Y-84383030D01*
X102295706Y-84383035D01*
X102176120Y-84502621D01*
X102176115Y-84502627D01*
X102086144Y-84645814D01*
X102086142Y-84645817D01*
X102030282Y-84805455D01*
X102011348Y-84973509D01*
X102011348Y-84973514D01*
X102030282Y-85141568D01*
X102086142Y-85301206D01*
X102086144Y-85301209D01*
X102176115Y-85444396D01*
X102176120Y-85444402D01*
X102295706Y-85563988D01*
X102301153Y-85568332D01*
X102300190Y-85569539D01*
X102341038Y-85615722D01*
X102351685Y-85684776D01*
X102323309Y-85748623D01*
X102264918Y-85786994D01*
X102228486Y-85792379D01*
X77641145Y-85735287D01*
X77574151Y-85715446D01*
X77528519Y-85662536D01*
X77517434Y-85610856D01*
X77556309Y-74510917D01*
X77576228Y-74443949D01*
X77629192Y-74398379D01*
X77683044Y-74387383D01*
X85005100Y-74549304D01*
G37*
%TD.AperFunction*%
%TD*%
D36*
X106678000Y-67565000D03*
X110611000Y-57821000D03*
X114558000Y-68123000D03*
X78674000Y-84663000D03*
X78640000Y-80880000D03*
X95526000Y-76456000D03*
X91577000Y-77166000D03*
X91577000Y-78754000D03*
X78594000Y-77608000D03*
X97284087Y-82451442D03*
X80238000Y-83121000D03*
X83004000Y-84678000D03*
X103178000Y-79208000D03*
X98982765Y-80638765D03*
X102328000Y-81546000D03*
X97686735Y-80237735D03*
X105205001Y-82754382D03*
X86983000Y-76606000D03*
X91670000Y-81703000D03*
X102958000Y-66773000D03*
X107962500Y-62778500D03*
X101691757Y-60395938D03*
X88469000Y-61338000D03*
X88099500Y-55919000D03*
X89064000Y-59531000D03*
X80526279Y-56165972D03*
X82332000Y-59077000D03*
X78685000Y-69440000D03*
X83707000Y-57816000D03*
X89768036Y-46480842D03*
X87825000Y-69052000D03*
X80969000Y-51050000D03*
X84323000Y-64463000D03*
X80106735Y-51063735D03*
X83651000Y-68837000D03*
X78645736Y-65878736D03*
X94752000Y-67436000D03*
X86941000Y-55292598D03*
X108808000Y-48103000D03*
X91185000Y-51948000D03*
X86341000Y-54521000D03*
X99036000Y-66497000D03*
X104432000Y-80054000D03*
X107222000Y-82491000D03*
X107220000Y-79730000D03*
X98084000Y-51366000D03*
X80013000Y-55690000D03*
X79553000Y-60568000D03*
X94976063Y-46478107D03*
X93693000Y-50273000D03*
X102766597Y-84973512D03*
X102776000Y-83108529D03*
X103817000Y-80537000D03*
X85175000Y-64463000D03*
X99827000Y-79364955D03*
X99827000Y-80564955D03*
X77771814Y-60615022D03*
X83882000Y-50756000D03*
X104422000Y-65237000D03*
X108888000Y-65495000D03*
X97157000Y-79320000D03*
X98796000Y-79345000D03*
X84345000Y-47293000D03*
X84557000Y-63263000D03*
X84608666Y-62416666D03*
D37*
X112691000Y-59982000D03*
X112691000Y-62522000D03*
X112783000Y-83379000D03*
X110243000Y-83379000D03*
X112783000Y-80839000D03*
X110243000Y-80839000D03*
X112783000Y-78299000D03*
X110243000Y-78299000D03*
X112705000Y-47812000D03*
X112705000Y-50352000D03*
M02*
