%TF.GenerationSoftware,KiCad,Pcbnew,8.0.2*%
%TF.CreationDate,2024-06-14T21:27:28+05:30*%
%TF.ProjectId,gate driver circuit design,67617465-2064-4726-9976-657220636972,rev?*%
%TF.SameCoordinates,Original*%
%TF.FileFunction,Soldermask,Top*%
%TF.FilePolarity,Negative*%
%FSLAX46Y46*%
G04 Gerber Fmt 4.6, Leading zero omitted, Abs format (unit mm)*
G04 Created by KiCad (PCBNEW 8.0.2) date 2024-06-14 21:27:28*
%MOMM*%
%LPD*%
G01*
G04 APERTURE LIST*
G04 Aperture macros list*
%AMRoundRect*
0 Rectangle with rounded corners*
0 $1 Rounding radius*
0 $2 $3 $4 $5 $6 $7 $8 $9 X,Y pos of 4 corners*
0 Add a 4 corners polygon primitive as box body*
4,1,4,$2,$3,$4,$5,$6,$7,$8,$9,$2,$3,0*
0 Add four circle primitives for the rounded corners*
1,1,$1+$1,$2,$3*
1,1,$1+$1,$4,$5*
1,1,$1+$1,$6,$7*
1,1,$1+$1,$8,$9*
0 Add four rect primitives between the rounded corners*
20,1,$1+$1,$2,$3,$4,$5,0*
20,1,$1+$1,$4,$5,$6,$7,0*
20,1,$1+$1,$6,$7,$8,$9,0*
20,1,$1+$1,$8,$9,$2,$3,0*%
G04 Aperture macros list end*
%ADD10R,0.600000X1.250000*%
%ADD11R,1.250000X0.750000*%
%ADD12R,1.250000X0.600000*%
%ADD13R,1.390000X0.960000*%
%ADD14R,1.450000X1.150000*%
%ADD15R,0.960000X1.390000*%
%ADD16R,1.450000X1.000000*%
%ADD17R,1.650000X1.650000*%
%ADD18C,1.650000*%
%ADD19R,0.812800X1.295400*%
%ADD20R,0.600000X1.200000*%
%ADD21R,0.420000X0.540000*%
%ADD22RoundRect,0.076200X0.825000X-0.825000X0.825000X0.825000X-0.825000X0.825000X-0.825000X-0.825000X0*%
%ADD23C,1.802400*%
%ADD24R,1.397000X1.016000*%
%ADD25RoundRect,0.102000X0.460000X0.710000X-0.460000X0.710000X-0.460000X-0.710000X0.460000X-0.710000X0*%
%ADD26R,0.508000X1.219200*%
%ADD27RoundRect,0.102000X-0.710000X0.460000X-0.710000X-0.460000X0.710000X-0.460000X0.710000X0.460000X0*%
%ADD28R,0.900000X0.400000*%
%ADD29R,1.150000X1.450000*%
%ADD30R,1.000000X1.450000*%
%ADD31R,0.558800X1.320800*%
%ADD32R,0.558800X1.587500*%
%ADD33R,2.200000X1.550000*%
G04 APERTURE END LIST*
D10*
%TO.C,C16*%
X111087000Y-67717000D03*
X112887000Y-67717000D03*
%TD*%
D11*
%TO.C,D9*%
X93651736Y-47668000D03*
X90351736Y-47668000D03*
%TD*%
D12*
%TO.C,C7*%
X79142736Y-53075000D03*
X79142736Y-51275000D03*
%TD*%
%TO.C,C13*%
X90194000Y-58370000D03*
X90194000Y-60170000D03*
%TD*%
D13*
%TO.C,C11*%
X84355000Y-83176000D03*
X84355000Y-81556000D03*
%TD*%
D14*
%TO.C,C42*%
X107483000Y-83671000D03*
X107483000Y-81871000D03*
%TD*%
D15*
%TO.C,C21*%
X109099000Y-63094000D03*
X110679000Y-63094000D03*
%TD*%
D16*
%TO.C,R22*%
X83236000Y-60587000D03*
X83236000Y-62487000D03*
%TD*%
D17*
%TO.C,J103*%
X112691000Y-59982000D03*
D18*
X112691000Y-62522000D03*
%TD*%
D16*
%TO.C,R17*%
X83045736Y-53587000D03*
X83045736Y-51687000D03*
%TD*%
D14*
%TO.C,C41*%
X104164000Y-83659000D03*
X104164000Y-81859000D03*
%TD*%
D19*
%TO.C,T1*%
X101862001Y-78130700D03*
X104912000Y-78130700D03*
X107961999Y-78130700D03*
X107961999Y-66421300D03*
X104912000Y-66421300D03*
X101862001Y-66421300D03*
%TD*%
D13*
%TO.C,C2*%
X96084000Y-82803000D03*
X96084000Y-84383000D03*
%TD*%
D12*
%TO.C,C5*%
X106169000Y-60385000D03*
X106169000Y-58585000D03*
%TD*%
D20*
%TO.C,U1*%
X99895000Y-81668000D03*
X98945000Y-81668000D03*
X97995000Y-81668000D03*
X97995000Y-84168000D03*
X99895000Y-84168000D03*
%TD*%
D15*
%TO.C,C1*%
X110649000Y-59347000D03*
X109029000Y-59347000D03*
%TD*%
D21*
%TO.C,D7*%
X81417736Y-52306000D03*
X81417736Y-53906000D03*
%TD*%
D22*
%TO.C,J101*%
X112783000Y-83379000D03*
D23*
X110243000Y-83379000D03*
X112783000Y-80839000D03*
X110243000Y-80839000D03*
X112783000Y-78299000D03*
X110243000Y-78299000D03*
%TD*%
D24*
%TO.C,R6*%
X81850000Y-58158800D03*
X81850000Y-56279200D03*
%TD*%
D12*
%TO.C,C4*%
X102797000Y-60360000D03*
X102797000Y-58560000D03*
%TD*%
D13*
%TO.C,C9*%
X98111000Y-59385000D03*
X98111000Y-61005000D03*
%TD*%
D25*
%TO.C,R29*%
X88340736Y-46825000D03*
X86340736Y-46825000D03*
%TD*%
D20*
%TO.C,U4*%
X88201000Y-80480000D03*
X87251000Y-80480000D03*
X86301000Y-80480000D03*
X86301000Y-82980000D03*
X88201000Y-82980000D03*
%TD*%
D15*
%TO.C,C15*%
X88192000Y-52014000D03*
X89812000Y-52014000D03*
%TD*%
%TO.C,C32*%
X78617000Y-78980000D03*
X80237000Y-78980000D03*
%TD*%
D16*
%TO.C,R2*%
X106501000Y-54382000D03*
X106501000Y-52482000D03*
%TD*%
D12*
%TO.C,C28*%
X93187000Y-64869000D03*
X93187000Y-66669000D03*
%TD*%
D26*
%TO.C,D2*%
X88387999Y-64651300D03*
X90388001Y-64651300D03*
X89388000Y-62568500D03*
%TD*%
%TO.C,D1*%
X103183998Y-64747000D03*
X105184000Y-64747000D03*
X104183999Y-62664200D03*
%TD*%
D15*
%TO.C,C8*%
X111667000Y-55537000D03*
X113287000Y-55537000D03*
%TD*%
D13*
%TO.C,C29*%
X95769000Y-64212000D03*
X95769000Y-65832000D03*
%TD*%
D24*
%TO.C,R3*%
X104505000Y-56372800D03*
X104505000Y-54493200D03*
%TD*%
D27*
%TO.C,R4*%
X96244000Y-59456000D03*
X96244000Y-61456000D03*
%TD*%
D13*
%TO.C,C10*%
X90159000Y-81601000D03*
X90159000Y-83181000D03*
%TD*%
D17*
%TO.C,J102*%
X112705000Y-47812000D03*
D18*
X112705000Y-50352000D03*
%TD*%
D28*
%TO.C,Q2*%
X81387000Y-63913000D03*
X81387000Y-64913000D03*
X82987000Y-64413000D03*
%TD*%
D12*
%TO.C,C12*%
X93553000Y-58569000D03*
X93553000Y-60369000D03*
%TD*%
D15*
%TO.C,C17*%
X111177000Y-65109000D03*
X112797000Y-65109000D03*
%TD*%
D29*
%TO.C,C38*%
X88020000Y-49457000D03*
X86220000Y-49457000D03*
%TD*%
D14*
%TO.C,C36*%
X85915000Y-62957000D03*
X85915000Y-61157000D03*
%TD*%
D13*
%TO.C,C31*%
X97534000Y-64207000D03*
X97534000Y-65787000D03*
%TD*%
D16*
%TO.C,R16*%
X81174000Y-60587000D03*
X81174000Y-62487000D03*
%TD*%
D30*
%TO.C,R9*%
X94220000Y-80718000D03*
X96120000Y-80718000D03*
%TD*%
D13*
%TO.C,C6*%
X100232000Y-59366000D03*
X100232000Y-60986000D03*
%TD*%
D25*
%TO.C,R1*%
X110591000Y-61217000D03*
X108591000Y-61217000D03*
%TD*%
D31*
%TO.C,U5*%
X85668501Y-56437000D03*
X83768499Y-56437000D03*
D32*
X84718500Y-58335650D03*
%TD*%
D29*
%TO.C,C43*%
X96735000Y-78006000D03*
X98535000Y-78006000D03*
%TD*%
D33*
%TO.C,D6*%
X103773000Y-52403000D03*
X99673000Y-52403000D03*
%TD*%
D19*
%TO.C,T2*%
X84082001Y-78130700D03*
X87132000Y-78130700D03*
X90181999Y-78130700D03*
X90181999Y-66421300D03*
X87132000Y-66421300D03*
X84082001Y-66421300D03*
%TD*%
D30*
%TO.C,R5*%
X87868000Y-53921000D03*
X89768000Y-53921000D03*
%TD*%
D13*
%TO.C,C37*%
X78645736Y-61877000D03*
X78645736Y-63497000D03*
%TD*%
D30*
%TO.C,R27*%
X83921000Y-48774000D03*
X82021000Y-48774000D03*
%TD*%
D13*
%TO.C,C14*%
X87612000Y-57444000D03*
X87612000Y-59064000D03*
%TD*%
D15*
%TO.C,C33*%
X81488000Y-67101000D03*
X79868000Y-67101000D03*
%TD*%
D31*
%TO.C,U3*%
X110739000Y-52422000D03*
X108838998Y-52422000D03*
D32*
X109788999Y-54320650D03*
%TD*%
D13*
%TO.C,C3*%
X101631000Y-84402000D03*
X101631000Y-82782000D03*
%TD*%
M02*
