M48
METRIC,TZ
T1C0.300
T2C1.100
%
G90
G05
T1
X77772Y-60615
X78594Y-77608
X78640Y-80880
X78646Y-65879
X78674Y-84663
X78685Y-69440
X79553Y-60568
X80013Y-55690
X80107Y-51064
X80238Y-83121
X80526Y-56166
X80969Y-51050
X82332Y-59077
X83004Y-84678
X83651Y-68837
X83707Y-57816
X83882Y-50756
X84323Y-64463
X84345Y-47293
X84557Y-63263
X84609Y-62417
X85175Y-64463
X86341Y-54521
X86941Y-55293
X86983Y-76606
X87825Y-69052
X88099Y-55919
X88469Y-61338
X89064Y-59531
X89768Y-46481
X91185Y-51948
X91577Y-77166
X91577Y-78754
X91670Y-81703
X93693Y-50273
X94752Y-67436
X94976Y-46478
X95526Y-76456
X97157Y-79320
X97284Y-82451
X97687Y-80238
X98084Y-51366
X98796Y-79345
X98983Y-80639
X99036Y-66497
X99827Y-79365
X99827Y-80565
X101692Y-60396
X102328Y-81546
X102767Y-84974
X102776Y-83109
X102958Y-66773
X103178Y-79208
X103817Y-80537
X104422Y-65237
X104432Y-80054
X105205Y-82754
X106678Y-67565
X107220Y-79730
X107222Y-82491
X107963Y-62778
X108808Y-48103
X108888Y-65495
X110611Y-57821
X114558Y-68123
T2
X110243Y-78299
X110243Y-80839
X110243Y-83379
X112691Y-59982
X112691Y-62522
X112705Y-47812
X112705Y-50352
X112783Y-78299
X112783Y-80839
X112783Y-83379
M30
